<div><svg xmlns="http://www.w3.org/2000/svg" xmlns:xlink="http://www.w3.org/1999/xlink" width="441.008" height="585.479" viewBox="0 0 441.008 585.479">
    <defs>
        <filter id="Devicon-css3-plain" x="0" y="116.994" width="441.008" height="468.485" filterUnits="userSpaceOnUse">
            <feOffset dy="3" input="SourceAlpha"/>
            <feGaussianBlur stdDeviation="24.5" result="blur"/>
            <feFlood flood-color="#fff" flood-opacity="0.749"/>
            <feComposite operator="in" in2="blur"/>
            <feComposite in="SourceGraphic"/>
        </filter>
        <filter id="path2999" x="40.129" y="0" width="212.194" height="228.025" filterUnits="userSpaceOnUse">
            <feOffset dy="3" input="SourceAlpha"/>
            <feGaussianBlur stdDeviation="25" result="blur-2"/>
            <feFlood flood-color="#fff" flood-opacity="0.71"/>
            <feComposite operator="in" in2="blur-2"/>
            <feComposite in="SourceGraphic"/>
        </filter>
        <filter id="path3001" x="114.407" y="0" width="212.194" height="229.156" filterUnits="userSpaceOnUse">
            <feOffset dy="3" input="SourceAlpha"/>
            <feGaussianBlur stdDeviation="25" result="blur-3"/>
            <feFlood flood-color="#fff" flood-opacity="0.71"/>
            <feComposite operator="in" in2="blur-3"/>
            <feComposite in="SourceGraphic"/>
        </filter>
        <filter id="path3003" x="188.685" y="0" width="212.194" height="229.156" filterUnits="userSpaceOnUse">
            <feOffset dy="3" input="SourceAlpha"/>
            <feGaussianBlur stdDeviation="25" result="blur-4"/>
            <feFlood flood-color="#fff" flood-opacity="0.71"/>
            <feComposite operator="in" in2="blur-4"/>
            <feComposite in="SourceGraphic"/>
        </filter>
    </defs>
    <g id="Group_2" data-name="Group 2" transform="translate(73.5 72)">
        <g transform="matrix(1, 0, 0, 1, -73.5, -72)" filter="url(#Devicon-css3-plain)">
            <path id="Devicon-css3-plain-2" data-name="Devicon-css3-plain" d="M8.76,1,35.518,290.25l120.068,32.235,120.4-32.353L302.768,1H8.76ZM247.179,67.268l-8.907,96.359.027.52-.037,1.2v-.01l-6.328,67.375-.7,5.986-75.471,20.1v0l-.059.049L80.365,238.633l-5.1-55.7h36.945l2.621,28.325,40.945,10.685-.011.021v-.005l41.1-10.836,4.343-46.126H115.293l-.737-7.8-1.679-18.267L112,129.119h92.474l3.364-35.873H66.987l-.737-7.792L64.573,67.181l-.884-9.809H248.06l-.881,9.9Z" transform="translate(64.74 186.49)" fill="#fff"/>
        </g>
        <g transform="matrix(1, 0, 0, 1, -73.5, -72)" filter="url(#path2999)">
            <path id="path2999-2" data-name="path2999" d="M160,0h62.194V26.008H186.008V52.017h36.186V78.025H160Z" transform="translate(-44.87 72)" fill="#fff"/>
        </g>
        <g transform="matrix(1, 0, 0, 1, -73.5, -72)" filter="url(#path3001)">
            <path id="path3001-2" data-name="path3001" d="M226,0h62.194V22.616H252.008v4.523h36.186V79.156H226V55.409h36.186V50.886H226Z" transform="translate(-36.59 72)" fill="#fff"/>
        </g>
        <g transform="matrix(1, 0, 0, 1, -73.5, -72)" filter="url(#path3003)">
            <path id="path3003-2" data-name="path3003" d="M292,0h62.194V22.616H318.008v4.523h36.186V79.156H292V55.409h36.186V50.886H292Z" transform="translate(-28.31 72)" fill="#fff"/>
        </g>
    </g>
</svg>