<svg xmlns="http://www.w3.org/2000/svg" width="131.848" height="197.772" viewBox="0 0 131.848 197.772"><path d="M32.962,265.924a32.974,32.974,0,0,0,32.962-32.962V200H32.962a32.962,32.962,0,0,0,0,65.924Z" transform="translate(0 -68.152)" fill="#0acf83"/><path d="M0,132.962A32.974,32.974,0,0,1,32.962,100H65.924v65.924H32.962A32.974,32.974,0,0,1,0,132.962Z" transform="translate(0 -34.076)" fill="#a259ff"/><path d="M0,32.962A32.974,32.974,0,0,1,32.962,0H65.924V65.924H32.962A32.974,32.974,0,0,1,0,32.962Z" fill="#f24e1e"/><path d="M100,0h32.962a32.962,32.962,0,1,1,0,65.924H100Z" transform="translate(-34.076)" fill="#ff7262"/><path d="M165.924,132.962A32.962,32.962,0,1,1,132.962,100,32.974,32.974,0,0,1,165.924,132.962Z" transform="translate(-34.076 -34.076)" fill="#1abcfe"/></svg>