<svg xmlns="http://www.w3.org/2000/svg" xmlns:xlink="http://www.w3.org/1999/xlink" width="232" height="199.814" viewBox="0 0 232 199.814"><defs><clipPath id="a"><rect width="232" height="199.814" fill="none"/></clipPath><clipPath id="c"><rect width="73.222" height="11.368" fill="none"/></clipPath></defs><g clip-path="url(#a)"><g clip-path="url(#a)"><path d="M125.449,208.122c60.924,9.064,138.8-55.669,113.219-99.822-7.6-13.114-22.661-18.16-32.681-29.1-9.122-9.96-13.576-24.281-22.805-34.121-8.977-9.572-22.235-13.959-34.482-11.41-13.236,2.755-24.648,12.892-38.02,14.665-14.1,1.87-21.12-4.627-41.629,6.316C42.531,68.8,39.414,88.2,39.521,121.695c.172,53.892,29.228,29.412,23.136,78.585-.389,3.14-.765,6.561.7,9.285,2.7,5.026,9.353,4.346,14.5,3.014,16.863-4.367,30.242-6.91,47.6-4.456" transform="translate(-18.695 -13.726)" fill="#e5eafe"/><path d="M72.063,208.087c-4.114,0-6.957-1.428-8.487-4.275-1.61-3-1.141-6.779-.765-9.819,3.149-25.419-2.753-31.536-9.587-38.619-6.667-6.909-14.223-14.74-14.311-42.5-.055-17.328.768-31.145,4.962-42.251,4.446-11.772,12.379-20.2,25.721-27.315,14.368-7.666,22.22-7.1,30.533-6.5a58.525,58.525,0,0,0,12.564-.057c7.267-.964,14.112-4.407,20.732-7.736,5.924-2.98,12.05-6.061,18.516-7.406,12.776-2.66,26.531,1.892,35.9,11.877,4.852,5.173,8.483,11.627,11.995,17.868,3.409,6.059,6.935,12.325,11.563,17.377,4.268,4.66,9.516,8.341,14.591,11.9,7.167,5.026,14.577,10.224,19.207,18.216a38.571,38.571,0,0,1,5.074,22.87c-.62,7.665-3.282,15.635-7.912,23.687-9.657,16.8-27.259,32.726-48.291,43.7-17.935,9.362-36.622,14.27-53.81,14.271a83.62,83.62,0,0,1-12.313-.888c-17.013-2.4-30.367-.24-49.046,4.6a27.67,27.67,0,0,1-6.833,1M93.475,37.2c-6.215,0-13.174,1.181-23.6,6.744C43.788,57.866,39.438,76.46,39.554,112.874c.087,27.452,7.536,35.171,14.108,41.982,3.43,3.555,6.671,6.913,8.664,12.639,2.221,6.38,2.578,14.83,1.12,26.594-.363,2.93-.815,6.577.68,9.36,2.108,3.924,7.029,4.916,14.623,2.949,18.752-4.856,32.159-7.028,49.275-4.609a82.584,82.584,0,0,0,12.151.879c40.948,0,84.853-28.449,101.639-57.644,6.673-11.607,12.583-28.972,2.839-45.793-4.554-7.86-11.9-13.015-19.011-18-5.1-3.579-10.381-7.28-14.7-11.994-4.682-5.112-8.228-11.413-11.657-17.507-3.491-6.2-7.1-12.62-11.9-17.732-9.218-9.829-22.756-14.309-35.333-11.692-6.39,1.33-12.48,4.393-18.369,7.355-6.664,3.352-13.555,6.818-20.921,7.8a59.028,59.028,0,0,1-12.682.061c-2.193-.159-4.354-.315-6.612-.315" transform="translate(-18.408 -8.689)" fill="#e5eafe"/><path d="M331.475,139l-.329-.046c-3.381-.465-5.244-4.6-3.53-7.864a171.164,171.164,0,0,0,11.369-27.074c2.62-8.12.251-9.092-1.937-13.277-4.648-8.89.692-22.47-6.282-29.243-1.115-1.082-2.488-1.89-3.313-3.254-2.318-3.835.477-18.36-6.526-30.758-2.842-5.032-9.782-10.361-13.863-.256-5.377,13.313-5.111,34.917-18.812,42.577-17.886,10-36.475-15.523-49.519,68.661-2.913,18.8-10.469,37.359,29.723,43.248,27.755,4.066,79.794-40.405,63.019-42.715" transform="translate(-111.747 -8.955)" fill="#c5c8e3"/><path d="M111.438,162.66c-2.7-8.387-10.419-16.04-9.883-33.175.209-6.683,1.726-13.881-1.237-19.709a37.644,37.644,0,0,0-4.543-6.148C87.744,93.526,82.5,74.193,68.4,71.786c-9-1.536-39.611,8.554-66.079,26.134a5.6,5.6,0,0,0-.431,8.732c8.875,7.451,23.779,6.971,32.2,16.111,2.534,2.749,4.386,6.3,7.314,8.517,8.91,6.754,23.35-2.063,27.383,2.621,3.482,4.044-1.619,17.955-2.279,27.208-.536,7.509,2.018,16.3,8.439,18.782,5.415,2.092,11.6-1.051,17.054.916,6.26,2.258,10.488,14.962,17.031,8.624,5.292-5.127,4.48-20.334,2.405-26.771" transform="translate(0 -29.834)" fill="#c5c8e3"/><path d="M171.384,36.454C165.718,4.481,186.369-2.245,191.457.585c5.519,3.07,3.167,20.264,10.5,26.474,2.709,2.294,6.24,2.9,9.453,4.167,11.639,4.581,19.135,19.428,16.563,32.807-2.093,10.885-9.793,19.881-10.938,30.938-.6,5.822-.174,7.132,7.776,55.223.8,4.813-4.249,8.126-7.679,5.041-2.528-2.274-4.739-4.39-5.5-5.7-4.427-7.551-6.046-15.851-7.009-24.664-3.456-31.65-27.33-55.111-33.233-88.421" transform="translate(-80.617 0)" fill="#c5c8e3"/><path d="M260.767,118.412c-18.71,2.021-29.881,2.175-48.515.012a1.789,1.789,0,0,1-1.495-1.836V81.432a1.735,1.735,0,0,1,1.887-1.828c17.556,2.576,29.637,2.572,47.748-.009a1.736,1.736,0,0,1,1.881,1.829v35.151a1.787,1.787,0,0,1-1.506,1.837" transform="translate(-99.705 -33.144)" fill="#dae6ea"/><path d="M265.7,114.451c-18.709,2.021-29.881,2.175-48.514.012a1.789,1.789,0,0,1-1.5-1.836V77.471a1.736,1.736,0,0,1,1.887-1.828c17.556,2.576,29.638,2.572,47.748-.009a1.736,1.736,0,0,1,1.881,1.829v35.151a1.787,1.787,0,0,1-1.507,1.837" transform="translate(-102.04 -31.494)" fill="#ecf9ff"/><path d="M230.626,88.01h-5.537a.725.725,0,0,1,0-1.443h5.537a.725.725,0,0,1,0,1.443" transform="translate(-106.177 -36.054)" fill="#fff"/><path d="M252.014,88.01h-5.537a.725.725,0,0,1,0-1.443h5.537a.725.725,0,0,1,0,1.443" transform="translate(-116.295 -36.054)" fill="#fff"/><path d="M273.4,88.01h-5.537a.725.725,0,0,1,0-1.443H273.4a.725.725,0,0,1,0,1.443" transform="translate(-126.414 -36.054)" fill="#fff"/><path d="M294.791,88.01h-5.537a.725.725,0,0,1,0-1.443h5.537a.725.725,0,0,1,0,1.443" transform="translate(-136.532 -36.054)" fill="#fff"/><path d="M230.626,99.089h-5.537a.725.725,0,0,1,0-1.443h5.537a.725.725,0,0,1,0,1.443" transform="translate(-106.177 -40.669)" fill="#fff"/><path d="M252.014,99.089h-5.537a.725.725,0,0,1,0-1.443h5.537a.725.725,0,0,1,0,1.443" transform="translate(-116.295 -40.669)" fill="#fff"/><path d="M273.4,99.089h-5.537a.725.725,0,0,1,0-1.443H273.4a.725.725,0,0,1,0,1.443" transform="translate(-126.414 -40.669)" fill="#fff"/><path d="M294.791,99.089h-5.537a.725.725,0,0,1,0-1.443h5.537a.725.725,0,0,1,0,1.443" transform="translate(-136.532 -40.669)" fill="#fff"/><path d="M230.626,110.449h-5.537a.725.725,0,0,1,0-1.443h5.537a.725.725,0,0,1,0,1.443" transform="translate(-106.177 -45.4)" fill="#fff"/><path d="M252.014,110.449h-5.537a.725.725,0,0,1,0-1.443h5.537a.725.725,0,0,1,0,1.443" transform="translate(-116.295 -45.4)" fill="#fff"/><path d="M273.4,110.449h-5.537a.725.725,0,0,1,0-1.443H273.4a.725.725,0,0,1,0,1.443" transform="translate(-126.414 -45.4)" fill="#fff"/><path d="M294.791,110.449h-5.537a.725.725,0,0,1,0-1.443h5.537a.725.725,0,0,1,0,1.443" transform="translate(-136.532 -45.4)" fill="#fff"/><path d="M230.626,121.368h-5.537a.725.725,0,0,1,0-1.443h5.537a.725.725,0,0,1,0,1.443" transform="translate(-106.177 -49.948)" fill="#fff"/><path d="M252.014,121.368h-5.537a.725.725,0,0,1,0-1.443h5.537a.725.725,0,0,1,0,1.443" transform="translate(-116.295 -49.948)" fill="#fff"/><path d="M273.4,121.368h-5.537a.725.725,0,0,1,0-1.443H273.4a.725.725,0,0,1,0,1.443" transform="translate(-126.414 -49.948)" fill="#fff"/><path d="M294.791,121.368h-5.537a.725.725,0,0,1,0-1.443h5.537a.725.725,0,0,1,0,1.443" transform="translate(-136.532 -49.948)" fill="#fff"/><path d="M230.626,130.978h-5.537a.725.725,0,0,1,0-1.442h5.537a.725.725,0,0,1,0,1.442" transform="translate(-106.177 -53.951)" fill="#fff"/><path d="M252.014,130.978h-5.537a.725.725,0,0,1,0-1.442h5.537a.725.725,0,0,1,0,1.442" transform="translate(-116.295 -53.951)" fill="#fff"/><path d="M273.4,130.978h-5.537a.725.725,0,0,1,0-1.442H273.4a.725.725,0,0,1,0,1.442" transform="translate(-126.414 -53.951)" fill="#fff"/><path d="M294.791,130.978h-5.537a.725.725,0,0,1,0-1.442h5.537a.725.725,0,0,1,0,1.442" transform="translate(-136.532 -53.951)" fill="#fff"/><path d="M295.995,158.182c-21.9-1.248-37.2-1.9-58.12-.062a1.746,1.746,0,0,1-1.8-1.839V115.592a1.739,1.739,0,0,1,1.824-1.836c16.6,1.834,35.612,1.137,58.095-.114a1.753,1.753,0,0,1,1.752,1.842V156.34a1.752,1.752,0,0,1-1.753,1.842" transform="translate(-111.684 -47.33)" fill="#edf2f2"/><path d="M299.521,163.583c-21.9-1.248-37.2-1.9-58.12-.063a1.745,1.745,0,0,1-1.8-1.838V120.993a1.739,1.739,0,0,1,1.824-1.836c16.6,1.834,35.612,1.137,58.095-.115a1.754,1.754,0,0,1,1.752,1.843v40.856a1.752,1.752,0,0,1-1.753,1.842" transform="translate(-113.352 -49.579)" fill="#fff"/><path d="M258.6,152.613h.73v4.193c0,1.664-.739,2.175-1.712,2.175a2.162,2.162,0,0,1-.78-.149l.109-.66a1.6,1.6,0,0,0,.613.121c.654,0,1.041-.326,1.041-1.553Z" transform="translate(-121.507 -63.562)" fill="#444244"/><path d="M265.8,160.067l-.059-.567h-.025a1.47,1.47,0,0,1-1.242.669,1.22,1.22,0,0,1-1.242-1.292c0-1.088.873-1.683,2.443-1.673v-.093c0-.372-.092-1.041-.923-1.041a1.886,1.886,0,0,0-1.058.334l-.168-.539a2.34,2.34,0,0,1,1.335-.4c1.242,0,1.544.939,1.544,1.84v1.683a7.044,7.044,0,0,0,.067,1.078Zm-.109-2.3c-.806-.019-1.721.139-1.721,1.013a.69.69,0,0,0,.7.781,1.024,1.024,0,0,0,.982-.753.93.93,0,0,0,.042-.26Z" transform="translate(-124.529 -64.75)" fill="#444244"/><path d="M271.22,155.64l.8,2.528c.134.409.243.781.327,1.153h.025c.092-.372.21-.744.344-1.153l.789-2.528h.772l-1.595,4.5h-.705l-1.544-4.5Z" transform="translate(-127.936 -64.823)" fill="#444244"/><path d="M280.949,160.067l-.058-.567h-.025a1.471,1.471,0,0,1-1.242.669,1.22,1.22,0,0,1-1.242-1.292c0-1.088.873-1.683,2.443-1.673v-.093c0-.372-.092-1.041-.923-1.041a1.885,1.885,0,0,0-1.058.334l-.168-.539a2.341,2.341,0,0,1,1.335-.4c1.242,0,1.544.939,1.544,1.84v1.683a6.974,6.974,0,0,0,.067,1.078Zm-.109-2.3c-.806-.019-1.721.139-1.721,1.013a.69.69,0,0,0,.7.781,1.024,1.024,0,0,0,.982-.753.928.928,0,0,0,.042-.26Z" transform="translate(-131.697 -64.75)" fill="#444244"/><path d="M289.733,157.82a2.406,2.406,0,0,0,1.309.409,1.054,1.054,0,0,0,1.184-1.069c0-.586-.3-.92-1.066-1.246-.923-.362-1.494-.892-1.494-1.776a1.7,1.7,0,0,1,1.831-1.7,2.368,2.368,0,0,1,1.25.307l-.2.66a2.086,2.086,0,0,0-1.074-.3.952.952,0,0,0-1.066.939c0,.586.345.874,1.125,1.208.957.409,1.444.92,1.444,1.84a1.777,1.777,0,0,1-1.981,1.8,2.705,2.705,0,0,1-1.444-.4Z" transform="translate(-136.98 -63.489)" fill="#444244"/><path d="M300.624,159.906a2.5,2.5,0,0,1-1.167.26,2.046,2.046,0,0,1-2.023-2.3,2.182,2.182,0,0,1,2.182-2.389,2.27,2.27,0,0,1,1.024.232l-.168.632a1.581,1.581,0,0,0-.856-.214c-.932,0-1.435.762-1.435,1.7,0,1.042.6,1.683,1.41,1.683a1.935,1.935,0,0,0,.907-.223Z" transform="translate(-140.711 -64.756)" fill="#444244"/><path d="M305.1,156.971c0-.53-.008-.986-.034-1.4h.647l.025.883h.034a1.247,1.247,0,0,1,1.124-.986.726.726,0,0,1,.21.028v.771a1,1,0,0,0-.252-.028c-.521,0-.89.437-.991,1.051a2.531,2.531,0,0,0-.034.381v2.4h-.73Z" transform="translate(-144.321 -64.75)" fill="#444244"/><path d="M311.142,153.109a.46.46,0,0,1-.47.5.465.465,0,0,1-.445-.5.476.476,0,0,1,.462-.511.465.465,0,0,1,.453.511m-.823,1.264h.739v4.5h-.739Z" transform="translate(-146.763 -63.556)" fill="#444244"/><path d="M314.1,157.036c0-.577-.017-1.041-.034-1.469h.663l.034.771h.016a1.571,1.571,0,0,1,1.444-.874c.982,0,1.721.92,1.721,2.287,0,1.617-.89,2.417-1.847,2.417a1.39,1.39,0,0,1-1.251-.707h-.017v2.445h-.73Zm.73,1.2a2.035,2.035,0,0,0,.034.335,1.168,1.168,0,0,0,1.108.957c.78,0,1.234-.707,1.234-1.738,0-.9-.428-1.673-1.209-1.673a1.214,1.214,0,0,0-1.116,1.013,1.45,1.45,0,0,0-.051.335Z" transform="translate(-148.579 -64.75)" fill="#444244"/><path d="M323.671,153.426v1.292h1.057v.623h-1.057v2.426c0,.558.143.874.554.874a1.485,1.485,0,0,0,.428-.055l.034.613a1.642,1.642,0,0,1-.654.112.973.973,0,0,1-.8-.344,1.791,1.791,0,0,1-.286-1.171v-2.454h-.629v-.623h.629V153.64Z" transform="translate(-152.483 -63.901)" fill="#444244"/><path d="M229.954,188.665c-14.243,1.81-23.322,2.007-36.472.032a1.8,1.8,0,0,1-1.446-1.829v-25.3a1.746,1.746,0,0,1,1.808-1.838c13.822,1.282,22.637,1.774,35.727.082a1.739,1.739,0,0,1,1.863,1.832v25.184a1.792,1.792,0,0,1-1.48,1.834" transform="translate(-90.848 -66.525)" fill="#dae6ea"/><path d="M225.876,192.141c-14.243,1.81-23.322,2.007-36.472.032a1.8,1.8,0,0,1-1.447-1.829v-25.3a1.746,1.746,0,0,1,1.808-1.837c13.822,1.281,22.637,1.773,35.727.082a1.739,1.739,0,0,1,1.863,1.832v25.184a1.792,1.792,0,0,1-1.48,1.834" transform="translate(-88.919 -67.972)" fill="#ecf9ff"/><path d="M202.69,180.785H194.4a1.443,1.443,0,0,1,0-2.871h8.293a1.443,1.443,0,0,1,0,2.871" transform="translate(-91.353 -74.1)" fill="#fff"/><path d="M224.6,180.785h-8.293a1.443,1.443,0,0,1,0-2.871H224.6a1.443,1.443,0,0,1,0,2.871" transform="translate(-101.719 -74.1)" fill="#fff"/><path d="M246.515,180.785h-8.293a1.443,1.443,0,0,1,0-2.871h8.293a1.443,1.443,0,0,1,0,2.871" transform="translate(-112.085 -74.1)" fill="#fff"/><path d="M202.69,189.641H194.4a1.443,1.443,0,0,1,0-2.871h8.293a1.443,1.443,0,0,1,0,2.871" transform="translate(-91.353 -77.788)" fill="#fff"/><path d="M224.6,189.641h-8.293a1.443,1.443,0,0,1,0-2.871H224.6a1.443,1.443,0,0,1,0,2.871" transform="translate(-101.719 -77.788)" fill="#fff"/><path d="M246.515,189.641h-8.293a1.443,1.443,0,0,1,0-2.871h8.293a1.443,1.443,0,0,1,0,2.871" transform="translate(-112.085 -77.788)" fill="#fff"/><path d="M202.69,198.5H194.4a1.443,1.443,0,0,1,0-2.871h8.293a1.443,1.443,0,0,1,0,2.871" transform="translate(-91.353 -81.477)" fill="#fff"/><path d="M224.6,198.5h-8.293a1.443,1.443,0,0,1,0-2.871H224.6a1.443,1.443,0,0,1,0,2.871" transform="translate(-101.719 -81.477)" fill="#fff"/><path d="M246.515,198.5h-8.293a1.443,1.443,0,0,1,0-2.871h8.293a1.443,1.443,0,0,1,0,2.871" transform="translate(-112.085 -81.477)" fill="#fff"/><path d="M91.054,145.052c-14.783,7.138-22.435-1.629-36.472.032-.83.1-1.447-.905-1.447-1.829v-25.3c0-1.079.893-2.21,1.808-1.838,13.807,5.62,23.064-1.679,35.727.082a1.9,1.9,0,0,1,1.864,1.831v25.185c0,.938-.7,1.459-1.48,1.834" transform="translate(-25.137 -48.28)" fill="#dae6ea"/><path d="M94.25,150.717c-14.783,7.138-22.435-1.629-36.472.032-.829.1-1.446-.905-1.446-1.829v-25.3c0-1.08.893-2.21,1.808-1.838,13.807,5.62,23.064-1.679,35.727.082a1.9,1.9,0,0,1,1.864,1.832v25.184c0,.938-.7,1.459-1.48,1.834" transform="translate(-26.649 -50.639)" fill="#ecf9ff"/><path d="M79.483,134.06H62.49a.661.661,0,0,1,0-1.315H79.483a.661.661,0,0,1,0,1.315" transform="translate(-29.282 -55.287)" fill="#fff"/><path d="M113.893,134.06H102.776a.661.661,0,0,1,0-1.315h11.117a.661.661,0,0,1,0,1.315" transform="translate(-48.34 -55.287)" fill="#fff"/><path d="M91.624,138.377h16.994a.661.661,0,0,0,0-1.315H91.624a.661.661,0,0,0,0,1.315" transform="translate(-43.065 -57.085)" fill="#fff"/><path d="M62.49,138.377H73.607a.661.661,0,0,0,0-1.315H62.49a.661.661,0,0,0,0,1.315" transform="translate(-29.282 -57.085)" fill="#fff"/><path d="M79.483,142.694H62.49a.661.661,0,0,1,0-1.315H79.483a.661.661,0,0,1,0,1.315" transform="translate(-29.282 -58.883)" fill="#fff"/><path d="M113.893,142.694H102.776a.661.661,0,0,1,0-1.315h11.117a.661.661,0,0,1,0,1.315" transform="translate(-48.34 -58.883)" fill="#fff"/><path d="M91.624,147.012h16.994a.661.661,0,0,0,0-1.315H91.624a.661.661,0,0,0,0,1.315" transform="translate(-43.065 -60.681)" fill="#fff"/><path d="M62.49,147.012H73.607a.661.661,0,0,0,0-1.315H62.49a.661.661,0,0,0,0,1.315" transform="translate(-29.282 -60.681)" fill="#fff"/><path d="M79.483,151.329H62.49a.661.661,0,0,1,0-1.315H79.483a.661.661,0,0,1,0,1.315" transform="translate(-29.282 -62.479)" fill="#fff"/><path d="M113.893,151.329H102.776a.661.661,0,0,1,0-1.315h11.117a.661.661,0,0,1,0,1.315" transform="translate(-48.34 -62.479)" fill="#fff"/><path d="M91.624,155.646h16.994a.661.661,0,0,0,0-1.315H91.624a.661.661,0,0,0,0,1.315" transform="translate(-43.065 -64.277)" fill="#fff"/><path d="M62.49,155.646H73.607a.661.661,0,0,0,0-1.315H62.49a.661.661,0,0,0,0,1.315" transform="translate(-29.282 -64.277)" fill="#fff"/><path d="M79.483,159.964H62.49a.661.661,0,0,1,0-1.315H79.483a.661.661,0,0,1,0,1.315" transform="translate(-29.282 -66.076)" fill="#fff"/><path d="M113.893,159.964H102.776a.661.661,0,0,1,0-1.315h11.117a.661.661,0,0,1,0,1.315" transform="translate(-48.34 -66.076)" fill="#fff"/><path d="M91.624,164.281h16.994a.661.661,0,0,0,0-1.315H91.624a.661.661,0,0,0,0,1.315" transform="translate(-43.065 -67.874)" fill="#fff"/><path d="M62.49,164.281H73.607a.661.661,0,0,0,0-1.315H62.49a.661.661,0,0,0,0,1.315" transform="translate(-29.282 -67.874)" fill="#fff"/><path d="M335.451,128.946c-14.381,2.365-23.966-3.612-39.448.017-.8.188-1.406-.916-1.406-1.823V106.212a1.732,1.732,0,0,1,1.909-1.825c14.908,2.4,21.589-2.912,38.424.06,1.019.18,1.946.676,1.946,1.818V127.12a1.8,1.8,0,0,1-1.425,1.826" transform="translate(-139.368 -43.114)" fill="#e1f7ff"/><path d="M338.977,125.548c-14.381,2.365-23.966-3.612-39.448.017-.8.188-1.406-.916-1.406-1.823V102.814a1.732,1.732,0,0,1,1.909-1.825c14.908,2.4,21.589-2.912,38.424.06,1.019.18,1.946.676,1.946,1.818v20.855a1.8,1.8,0,0,1-1.425,1.826" transform="translate(-141.037 -41.699)" fill="#d3e7f1"/><path d="M307.98,111.615a.989.989,0,1,1,.888-.984.94.94,0,0,1-.888.984" transform="translate(-145.28 -45.667)" fill="#fff"/><path d="M318.514,111.615h-3.556a.989.989,0,0,1,0-1.968h3.556a.989.989,0,0,1,0,1.968" transform="translate(-148.58 -45.667)" fill="#fff"/><path d="M363.716,111.615h-3.556a.989.989,0,0,1,0-1.968h3.556a.989.989,0,0,1,0,1.968" transform="translate(-169.965 -45.667)" fill="#fff"/><path d="M341.789,111.615H329.551a.989.989,0,0,1,0-1.968h12.238a.989.989,0,0,1,0,1.968" transform="translate(-155.484 -45.667)" fill="#fff"/><path d="M307.98,117.148a.989.989,0,1,1,.888-.983.939.939,0,0,1-.888.983" transform="translate(-145.28 -47.971)" fill="#fff"/><path d="M318.514,117.148h-3.556a.989.989,0,0,1,0-1.968h3.556a.989.989,0,0,1,0,1.968" transform="translate(-148.58 -47.971)" fill="#fff"/><path d="M363.716,117.148h-3.556a.989.989,0,0,1,0-1.968h3.556a.989.989,0,0,1,0,1.968" transform="translate(-169.965 -47.971)" fill="#fff"/><path d="M341.789,117.148H329.551a.989.989,0,0,1,0-1.968h12.238a.989.989,0,0,1,0,1.968" transform="translate(-155.484 -47.971)" fill="#fff"/><path d="M307.98,122.68a.989.989,0,1,1,.888-.984.94.94,0,0,1-.888.984" transform="translate(-145.28 -50.275)" fill="#fff"/><path d="M318.514,122.68h-3.556a.989.989,0,0,1,0-1.968h3.556a.989.989,0,0,1,0,1.968" transform="translate(-148.58 -50.275)" fill="#fff"/><path d="M363.716,122.68h-3.556a.989.989,0,0,1,0-1.968h3.556a.989.989,0,0,1,0,1.968" transform="translate(-169.965 -50.275)" fill="#fff"/><path d="M341.789,122.68H329.551a.989.989,0,0,1,0-1.968h12.238a.989.989,0,0,1,0,1.968" transform="translate(-155.484 -50.275)" fill="#fff"/><path d="M307.98,128.212a.989.989,0,1,1,.888-.984.94.94,0,0,1-.888.984" transform="translate(-145.28 -52.579)" fill="#fff"/><path d="M318.514,128.212h-3.556a.989.989,0,0,1,0-1.968h3.556a.989.989,0,0,1,0,1.968" transform="translate(-148.58 -52.579)" fill="#fff"/><path d="M363.716,128.212h-3.556a.989.989,0,0,1,0-1.968h3.556a.989.989,0,0,1,0,1.968" transform="translate(-169.965 -52.579)" fill="#fff"/><path d="M341.789,128.212H329.551a.989.989,0,0,1,0-1.968h12.238a.989.989,0,0,1,0,1.968" transform="translate(-155.484 -52.579)" fill="#fff"/><path d="M307.98,133.744a.989.989,0,1,1,.888-.984.94.94,0,0,1-.888.984" transform="translate(-145.28 -54.883)" fill="#fff"/><path d="M318.514,133.744h-3.556a.989.989,0,0,1,0-1.968h3.556a.989.989,0,0,1,0,1.968" transform="translate(-148.58 -54.883)" fill="#fff"/><path d="M363.716,133.744h-3.556a.989.989,0,0,1,0-1.968h3.556a.989.989,0,0,1,0,1.968" transform="translate(-169.965 -54.883)" fill="#fff"/><path d="M341.789,133.744H329.551a.989.989,0,0,1,0-1.968h12.238a.989.989,0,0,1,0,1.968" transform="translate(-155.484 -54.883)" fill="#fff"/><path d="M356.948,198.854c-15.156-1.645-24.272-.935-38.195.078a1.75,1.75,0,0,1-1.778-1.841V177.8a1.738,1.738,0,0,1,1.868-1.83c14.749,1.97,24.878,2.79,37.969.163a1.726,1.726,0,0,1,1.968,1.813v19.075a1.742,1.742,0,0,1-1.832,1.835" transform="translate(-149.955 -73.283)" fill="#9cd1f0"/><path d="M353.421,194.847c-15.156-1.645-24.272-.935-38.195.078a1.75,1.75,0,0,1-1.778-1.841V173.791a1.738,1.738,0,0,1,1.868-1.83c14.75,1.97,24.878,2.79,37.969.163a1.726,1.726,0,0,1,1.968,1.813v19.075a1.742,1.742,0,0,1-1.832,1.835" transform="translate(-148.287 -71.614)" fill="#a9e2ff"/><path d="M326.308,184.624h-4.947a.9.9,0,0,1,0-1.791h4.947a.9.9,0,0,1,0,1.791" transform="translate(-151.647 -76.148)" fill="#fff"/><path d="M343.865,184.624h-4.947a.9.9,0,0,1,0-1.791h4.947a.9.9,0,0,1,0,1.791" transform="translate(-159.953 -76.148)" fill="#fff"/><path d="M361.423,184.624h-4.947a.9.9,0,0,1,0-1.791h4.947a.9.9,0,0,1,0,1.791" transform="translate(-168.26 -76.148)" fill="#fff"/><path d="M378.981,184.624h-4.947a.9.9,0,0,1,0-1.791h4.947a.9.9,0,0,1,0,1.791" transform="translate(-176.566 -76.148)" fill="#fff"/><path d="M326.308,191.9h-4.947a.9.9,0,0,1,0-1.791h4.947a.9.9,0,0,1,0,1.791" transform="translate(-151.647 -79.177)" fill="#fff"/><path d="M343.865,191.9h-4.947a.9.9,0,0,1,0-1.791h4.947a.9.9,0,0,1,0,1.791" transform="translate(-159.953 -79.177)" fill="#fff"/><path d="M361.423,191.9h-4.947a.9.9,0,0,1,0-1.791h4.947a.9.9,0,0,1,0,1.791" transform="translate(-168.26 -79.177)" fill="#fff"/><path d="M378.981,191.9h-4.947a.9.9,0,0,1,0-1.791h4.947a.9.9,0,0,1,0,1.791" transform="translate(-176.566 -79.177)" fill="#fff"/><path d="M326.308,199.168h-4.947a.9.9,0,0,1,0-1.791h4.947a.9.9,0,0,1,0,1.791" transform="translate(-151.647 -82.206)" fill="#fff"/><path d="M343.865,199.168h-4.947a.9.9,0,0,1,0-1.791h4.947a.9.9,0,0,1,0,1.791" transform="translate(-159.953 -82.206)" fill="#fff"/><path d="M361.423,199.168h-4.947a.9.9,0,0,1,0-1.791h4.947a.9.9,0,0,1,0,1.791" transform="translate(-168.26 -82.206)" fill="#fff"/><path d="M378.981,199.168h-4.947a.9.9,0,0,1,0-1.791h4.947a.9.9,0,0,1,0,1.791" transform="translate(-176.566 -82.206)" fill="#fff"/><path d="M105.083,179.772c-16.88,9.106-24.272-.935-38.195.078a1.75,1.75,0,0,1-1.778-1.841V158.716a1.738,1.738,0,0,1,1.868-1.83c14.75,1.97,23.774,8.606,37.969.163.916-.545,1.968.661,1.968,1.813v19.075c0,1.091-.946,1.357-1.832,1.835" transform="translate(-30.802 -65.336)" fill="#a9e2ff"/><path d="M108.273,184.507c-16.88,9.106-24.272-.935-38.195.078a1.75,1.75,0,0,1-1.778-1.841V163.451a1.738,1.738,0,0,1,1.868-1.83c14.749,1.97,23.774,8.606,37.969.163.916-.545,1.968.661,1.968,1.813v19.075c0,1.091-.946,1.357-1.832,1.835" transform="translate(-32.311 -67.308)" fill="#9cd1f0"/><path d="M82.972,178.416H74.222a1.038,1.038,0,0,1,0-2.064h8.749a1.038,1.038,0,0,1,0,2.064" transform="translate(-34.672 -73.449)" fill="#fff"/><path d="M114,178.416H98.172a1.038,1.038,0,0,1,0-2.064H114a1.038,1.038,0,0,1,0,2.064" transform="translate(-46.002 -73.449)" fill="#fff"/><path d="M137.689,178.416h-2.621a1.038,1.038,0,0,1,0-2.064h2.621a1.038,1.038,0,0,1,0,2.064" transform="translate(-63.457 -73.449)" fill="#fff"/><path d="M123.437,184.823h8.749a1.038,1.038,0,0,0,0-2.064h-8.749a1.038,1.038,0,0,0,0,2.064" transform="translate(-57.955 -76.117)" fill="#fff"/><path d="M86.051,184.823H101.88a1.038,1.038,0,0,0,0-2.064H86.051a1.038,1.038,0,0,0,0,2.064" transform="translate(-40.268 -76.117)" fill="#fff"/><path d="M74.222,184.823h2.621a1.038,1.038,0,0,0,0-2.064H74.222a1.038,1.038,0,0,0,0,2.064" transform="translate(-34.672 -76.117)" fill="#fff"/><path d="M82.972,191.23H74.222a1.038,1.038,0,0,1,0-2.064h8.749a1.038,1.038,0,0,1,0,2.064" transform="translate(-34.672 -78.786)" fill="#fff"/><path d="M114,191.23H98.172a1.038,1.038,0,0,1,0-2.064H114a1.038,1.038,0,0,1,0,2.064" transform="translate(-46.002 -78.786)" fill="#fff"/><path d="M137.689,191.23h-2.621a1.038,1.038,0,0,1,0-2.064h2.621a1.038,1.038,0,0,1,0,2.064" transform="translate(-63.457 -78.786)" fill="#fff"/><path d="M322.88,226.756c-6.721.353-13.894-6.547-23.08.177-.96.7-2.132-.845-1.95-2.1.976-6.721.218-12.553-.336-21.533a1.759,1.759,0,0,1,1.825-1.965c9.016.972,14.414,4.473,23.674.249.962-.439,1.967.661,1.967,1.812v21.584c0,1.215-1,1.72-2.1,1.778" transform="translate(-140.747 -83.849)" fill="#f2f2f2"/><path d="M324.716,228.67c-6.721.353-13.894-6.546-23.08.177-.96.7-2.132-.845-1.95-2.1.976-6.721.218-12.553-.337-21.534a1.76,1.76,0,0,1,1.826-1.965c9.016.972,14.414,4.473,23.674.249.962-.439,1.967.661,1.967,1.812v21.584c0,1.215-1,1.72-2.1,1.778" transform="translate(-141.615 -84.647)" fill="#fff"/><path d="M305.315,218.89a6.854,6.854,0,0,1,1.255-.108,1.948,1.948,0,0,1,1.42.466,1.589,1.589,0,0,1,.443,1.173,1.758,1.758,0,0,1-.39,1.2,1.987,1.987,0,0,1-1.548.616,2.018,2.018,0,0,1-.526-.05v2.247h-.654Zm.654,2.7a1.994,1.994,0,0,0,.541.058,1.127,1.127,0,0,0,1.27-1.2c0-.74-.474-1.1-1.2-1.1a2.478,2.478,0,0,0-.616.059Z" transform="translate(-144.439 -91.121)" fill="#444244"/><path d="M312.726,221.563l.8,2.38c.083.266.173.582.233.823h.015c.068-.241.143-.549.233-.84l.721-2.363h.7l-.992,2.871a6.324,6.324,0,0,1-1.247,2.521,1.733,1.733,0,0,1-.811.474l-.165-.616a1.715,1.715,0,0,0,.579-.358,2.214,2.214,0,0,0,.556-.816.566.566,0,0,0,.053-.174.7.7,0,0,0-.045-.192l-1.345-3.711Z" transform="translate(-147.604 -92.279)" fill="#444244"/><path d="M320.062,219.58v1.156h.947v.558h-.947v2.172c0,.5.128.782.5.782a1.331,1.331,0,0,0,.383-.05l.03.549a1.474,1.474,0,0,1-.586.1.874.874,0,0,1-.714-.307,1.611,1.611,0,0,1-.256-1.049v-2.2h-.563v-.558h.563v-.965Z" transform="translate(-150.843 -91.453)" fill="#444244"/><path d="M324.357,218.34h.661v2.513h.015a1.294,1.294,0,0,1,.473-.516,1.259,1.259,0,0,1,.677-.208c.488,0,1.269.333,1.269,1.723v2.4h-.661v-2.313c0-.649-.218-1.2-.842-1.2a1.046,1.046,0,0,0-.932,1.082v2.43h-.661Z" transform="translate(-153.447 -90.937)" fill="#444244"/><path d="M335.328,223.478a1.884,1.884,0,0,1-1.811,2.139,1.839,1.839,0,0,1-1.743-2.072,1.888,1.888,0,0,1,1.8-2.139,1.833,1.833,0,0,1,1.75,2.072m-2.885.041c0,.882.458,1.547,1.1,1.547s1.1-.657,1.1-1.564c0-.682-.308-1.547-1.09-1.547s-1.12.8-1.12,1.564" transform="translate(-156.956 -92.214)" fill="#444244"/><path d="M340.077,222.588c0-.416-.007-.757-.03-1.09h.586l.038.666h.015a1.324,1.324,0,0,1,1.2-.757c.5,0,1.285.333,1.285,1.714v2.4h-.661V223.2c0-.649-.218-1.19-.841-1.19a.962.962,0,0,0-.887.749,1.174,1.174,0,0,0-.045.341v2.422h-.661Z" transform="translate(-160.87 -92.214)" fill="#444244"/><path d="M135.636,169.714c-6.721.353-13.894-6.547-23.08.177-.96.7-2.132-.845-1.95-2.1.976-6.721.218-12.553-.336-21.534a1.759,1.759,0,0,1,1.825-1.965c9.016.972,14.414,4.473,23.674.249.962-.439,1.967.661,1.967,1.812v21.584c0,1.215-1,1.72-2.1,1.778" transform="translate(-52.165 -60.092)" fill="#edf2f2"/><path d="M133.339,172.882c-6.721.353-13.894-6.547-23.08.177-.96.7-2.132-.845-1.95-2.1.976-6.721.218-12.553-.337-21.534a1.759,1.759,0,0,1,1.826-1.965c9.016.972,14.414,4.473,23.674.249.962-.439,1.967.661,1.967,1.812V171.1c0,1.215-1,1.72-2.1,1.778" transform="translate(-51.078 -61.411)" fill="#fff"/><path d="M120.192,163.424a7.689,7.689,0,0,1,1.4-.121,2.177,2.177,0,0,1,1.587.52,1.776,1.776,0,0,1,.495,1.311,1.962,1.962,0,0,1-.436,1.339,2.217,2.217,0,0,1-1.729.688,2.27,2.27,0,0,1-.588-.056v2.51h-.73Zm.73,3.021a2.215,2.215,0,0,0,.6.065,1.259,1.259,0,0,0,1.418-1.338c0-.827-.528-1.227-1.335-1.227a2.772,2.772,0,0,0-.688.065Z" transform="translate(-56.861 -68.014)" fill="#444244"/><path d="M129.4,163.383V166h2.737v-2.622h.739v6.266h-.739v-2.938H129.4v2.938h-.73v-6.266Z" transform="translate(-60.87 -68.048)" fill="#444244"/><path d="M139.055,163.424a7.689,7.689,0,0,1,1.4-.121,2.175,2.175,0,0,1,1.586.52,1.774,1.774,0,0,1,.5,1.311,1.962,1.962,0,0,1-.436,1.339,2.217,2.217,0,0,1-1.729.688,2.27,2.27,0,0,1-.588-.056v2.51h-.73Zm.73,3.021a2.215,2.215,0,0,0,.6.065,1.259,1.259,0,0,0,1.418-1.338c0-.827-.529-1.227-1.335-1.227a2.772,2.772,0,0,0-.688.065Z" transform="translate(-65.784 -68.014)" fill="#444244"/><path d="M278.959,219.424c0,4.109-3.008,7.44-6.718,7.44s-6.719-3.331-6.719-7.44,3.008-7.44,6.719-7.44,6.718,3.331,6.718,7.44" transform="translate(-125.614 -88.289)" fill="#ecf9ff"/><path d="M270.242,227.57c-4.932,0-8.944-4.443-8.944-9.905s4.012-9.906,8.944-9.906,8.944,4.444,8.944,9.906-4.012,9.905-8.944,9.905m0-19.574c-4.814,0-8.731,4.337-8.731,9.669s3.917,9.669,8.731,9.669,8.731-4.337,8.731-9.669S275.057,208,270.242,208" transform="translate(-123.615 -86.53)" fill="#ecf9ff"/><path d="M358.069,239.078c0,4.134-6.245,7.485-13.948,7.485s-13.948-3.351-13.948-7.485,6.245-7.485,13.948-7.485,13.948,3.351,13.948,7.485" transform="translate(-156.199 -96.456)" fill="#ecf9ff"/><path d="M342.9,246.788c-8.442,0-15.31-3.712-15.31-8.276s6.868-8.277,15.31-8.277,15.31,3.713,15.31,8.277-6.868,8.276-15.31,8.276m0-16.316c-8.324,0-15.1,3.607-15.1,8.04s6.772,8.04,15.1,8.04,15.1-3.607,15.1-8.04-6.772-8.04-15.1-8.04" transform="translate(-154.976 -95.891)" fill="#ecf9ff"/><path d="M263.112,55.157a3.787,3.787,0,1,1-3.768-4.173,3.986,3.986,0,0,1,3.768,4.173" transform="translate(-120.909 -21.234)" fill="#ecf9ff"/><path d="M258.286,59.7a5.507,5.507,0,1,1,4.947-5.479,5.239,5.239,0,0,1-4.947,5.479m0-10.721a5.269,5.269,0,1,0,4.734,5.242,5.013,5.013,0,0,0-4.734-5.242" transform="translate(-119.85 -20.302)" fill="#ecf9ff"/><path d="M257.707,59.907c-3.084,0-5.593-2.779-5.593-6.193s2.509-6.194,5.593-6.194S263.3,50.3,263.3,53.714s-2.509,6.193-5.593,6.193m0-12.15c-2.966,0-5.379,2.672-5.379,5.957s2.413,5.956,5.379,5.956,5.379-2.672,5.379-5.956-2.413-5.957-5.379-5.957" transform="translate(-119.271 -19.792)" fill="#ecf9ff"/><path d="M90.9,220.441a3.788,3.788,0,1,1-3.768-4.173,3.986,3.986,0,0,1,3.768,4.173" transform="translate(-39.44 -90.074)" fill="#ecf9ff"/><path d="M86.078,224.987a5.507,5.507,0,1,1,4.947-5.479,5.239,5.239,0,0,1-4.947,5.479m0-10.721a5.27,5.27,0,1,0,4.734,5.242,5.013,5.013,0,0,0-4.734-5.242" transform="translate(-38.382 -89.141)" fill="#ecf9ff"/><path d="M85.5,225.191c-3.084,0-5.593-2.778-5.593-6.193S82.415,212.8,85.5,212.8s5.593,2.779,5.593,6.194-2.509,6.193-5.593,6.193m0-12.15c-2.966,0-5.379,2.672-5.379,5.957s2.413,5.957,5.379,5.957,5.379-2.672,5.379-5.957-2.413-5.957-5.379-5.957" transform="translate(-37.802 -88.631)" fill="#ecf9ff"/><path d="M127.675,97.758H102.924a1.762,1.762,0,0,1-1.666-1.845V86.961a1.762,1.762,0,0,1,1.666-1.845h24.751a1.763,1.763,0,0,1,1.666,1.845v8.952a1.762,1.762,0,0,1-1.666,1.845" transform="translate(-47.903 -35.45)" fill="#ecf9ff"/><path d="M126.654,99.507H101.9a1.763,1.763,0,0,1-1.666-1.845V88.71a1.763,1.763,0,0,1,1.666-1.845h24.751a1.763,1.763,0,0,1,1.666,1.845v8.952a1.763,1.763,0,0,1-1.666,1.845" transform="translate(-47.42 -36.178)" fill="#d3e7f1"/><path d="M111.068,94.72a3.787,3.787,0,1,1-3.768-4.173,3.986,3.986,0,0,1,3.768,4.173" transform="translate(-48.98 -37.712)" fill="#ecf9ff"/><path d="M127.27,94.72a3.787,3.787,0,1,1-3.768-4.173,3.986,3.986,0,0,1,3.768,4.173" transform="translate(-56.644 -37.712)" fill="#ecf9ff"/><path d="M143.472,94.72a3.787,3.787,0,1,1-3.768-4.173,3.986,3.986,0,0,1,3.768,4.173" transform="translate(-64.309 -37.712)" fill="#ecf9ff"/><g transform="translate(59.081 158.392)" opacity="0.5" style="mix-blend-mode:multiply;isolation:isolate"><g clip-path="url(#c)"><path d="M148.736,282.816c-48.621,0-49.007-11.369,0-11.369,48.621,0,49.007,11.369,0,11.369" transform="translate(-112.125 -271.447)" fill="#e0dfea"/></g></g><path d="M148.334,239.223c10.232,3.565,5.566,17.97-4.159,16.711-5.427-.7-31.876-11.059-34.719-15.444a5.3,5.3,0,0,1-.273-5.243c1.313-2.372,3.46-1.913,5.511-1.564.307.052,25.389,2.665,33.642,5.54" transform="translate(-51.383 -97.208)" fill="#514342"/><path d="M145.266,256.044a9.3,9.3,0,0,1-1.2-.078c-5.614-.726-31.981-11.154-34.794-15.493A5.438,5.438,0,0,1,109,235.1c1.306-2.36,3.394-2,5.414-1.655l.2.035c.025,0,.258.03.611.069,9.524,1.063,26.482,3.188,33.047,5.476a8.123,8.123,0,0,1,5.664,9.513,9.032,9.032,0,0,1-8.67,7.506M112.26,233.433a3.211,3.211,0,0,0-3.081,1.791,5.172,5.172,0,0,0,.269,5.111c2.793,4.308,29.051,14.672,34.645,15.4a8.735,8.735,0,0,0,9.635-7.242c.639-3.313-.475-7.48-5.52-9.238-6.547-2.281-23.488-4.4-33-5.465-.421-.047-.593-.066-.621-.071l-.2-.035a12.817,12.817,0,0,0-2.118-.246" transform="translate(-51.289 -97.123)" fill="#463c3a"/><path d="M174.209,238.078c-10.232,3.565-5.566,17.97,4.159,16.711,5.427-.7,31.876-11.059,34.719-15.444a5.3,5.3,0,0,0,.273-5.243c-1.313-2.372-3.46-1.913-5.51-1.564-.307.052-25.389,2.665-33.642,5.54" transform="translate(-79.691 -96.731)" fill="#514342"/><path d="M177.1,254.9a9.032,9.032,0,0,1-8.67-7.507,8.123,8.123,0,0,1,5.664-9.513c6.565-2.288,23.523-4.413,33.047-5.475.353-.04.585-.065.61-.069l.2-.036c2.019-.347,4.107-.7,5.413,1.655a5.438,5.438,0,0,1-.278,5.374c-2.813,4.338-29.18,14.766-34.794,15.492a9.3,9.3,0,0,1-1.2.079m-2.974-16.907.032.113c-5.045,1.758-6.159,5.925-5.519,9.239a8.733,8.733,0,0,0,9.634,7.242c5.594-.724,31.853-11.088,34.645-15.4a5.174,5.174,0,0,0,.269-5.112c-1.232-2.226-3.248-1.879-5.2-1.545l-.2.035c-.028.005-.2.024-.621.071-9.516,1.062-26.458,3.184-33,5.465Z" transform="translate(-79.604 -96.646)" fill="#463c3a"/><path d="M182.775,246.121c-12.23,3.491-19.387,3.54-31.266,0,.907-10.809.845-17.644,3.3-27.678l24.346,1.214c2.89,10.213,2.925,16.411,3.616,26.464" transform="translate(-71.676 -90.98)" fill="#514342"/><path d="M166.845,248.805a52.959,52.959,0,0,1-15.466-2.657l-.087-.026.008-.1c.21-2.5.366-4.771.517-6.962.5-7.272.9-13.017,2.79-20.736l.023-.092.085,0,24.421,1.218.022.079c2.5,8.826,2.861,14.584,3.364,22.553.079,1.253.162,2.559.257,3.938l.006.1-.086.025c-6.2,1.77-11.063,2.656-15.855,2.656m-15.323-2.859c11.766,3.5,18.756,3.5,31.038,0-.092-1.342-.172-2.616-.249-3.84-.5-7.929-.863-13.665-3.333-22.42l-24.186-1.206c-1.867,7.652-2.262,13.37-2.761,20.6-.149,2.164-.3,4.4-.51,6.867" transform="translate(-71.574 -90.892)" fill="#463c3a"/><path d="M182.677,237a.111.111,0,0,1-.105-.1c-1.007-6.417-2.148-13.69-.732-20.519a.107.107,0,0,1,.128-.089.119.119,0,0,1,.08.142c-1.406,6.783-.269,14.031.735,20.425a.118.118,0,0,1-.087.137l-.018,0" transform="translate(-85.711 -90.083)" fill="#323d4e"/><path d="M179.472,230.2a.1.1,0,0,1-.069-.028c-3.564-3.339-3.464-4.445-2.511-15.015a.11.11,0,0,1,.117-.106.116.116,0,0,1,.1.13c-.943,10.458-1.041,11.551,2.436,14.81a.128.128,0,0,1,.013.167.1.1,0,0,1-.082.042" transform="translate(-83.416 -89.566)" fill="#323d4e"/><path d="M154.559,226.151a.107.107,0,0,1-.1-.081.121.121,0,0,1,.067-.149c3.491-1.292,4.217-1.561,5.926-9.574a.106.106,0,0,1,.128-.088.118.118,0,0,1,.08.142c-1.736,8.141-2.481,8.417-6.066,9.744a.1.1,0,0,1-.034.006" transform="translate(-73.069 -90.069)" fill="#323d4e"/><path d="M154.559,226.151a.107.107,0,0,1-.1-.081.121.121,0,0,1,.067-.149c3.491-1.292,4.217-1.561,5.926-9.574a.106.106,0,0,1,.128-.088.118.118,0,0,1,.08.142c-1.736,8.141-2.481,8.417-6.066,9.744a.1.1,0,0,1-.034.006" transform="translate(-73.069 -90.069)" fill="#323d4e"/><path d="M201.912,226.631a.1.1,0,0,1-.034-.006l-.138-.051c-3.464-1.281-4.185-1.548-5.893-9.561a.119.119,0,0,1,.08-.142.106.106,0,0,1,.128.088c1.681,7.885,2.3,8.115,5.753,9.391l.137.051a.121.121,0,0,1,.067.149.107.107,0,0,1-.1.081" transform="translate(-92.65 -90.324)" fill="#323d4e"/><path d="M169.434,268.827a13.161,13.161,0,0,0,.236,6.4c-7.355.471-24.1,4.438-24.55,1.247-.093-.661-.188-.394,12.483-7.726,2.151-1.245,3.347-.589,3.658,1.829.115.9,7.4-1.456,8.174-1.748" transform="translate(-68.646 -111.673)" fill="#fffff6"/><path d="M148.76,277.736c-2.232,0-3.7-.356-3.842-1.329-.085-.593-.085-.593,5.691-3.907,1.716-.984,3.947-2.264,6.847-3.943,1.127-.652,2.025-.8,2.669-.431a2.976,2.976,0,0,1,1.144,2.349s0,.015.026.031c.7.474,6.922-1.465,8.007-1.875l.183-.069-.045.209a12.953,12.953,0,0,0,.233,6.333l.043.146-.138.009c-2.25.144-5.366.614-8.664,1.112a95.674,95.674,0,0,1-12.155,1.365m10.574-9.571a3.73,3.73,0,0,0-1.779.6c-2.9,1.678-5.132,2.958-6.847,3.943-5.534,3.175-5.639,3.242-5.582,3.641.3,2.117,8.514.878,15.761-.215,3.236-.488,6.3-.949,8.542-1.1a13.23,13.23,0,0,1-.238-6.113c-1.216.418-7.2,2.333-8.007,1.788a.279.279,0,0,1-.126-.2,2.768,2.768,0,0,0-1.03-2.172,1.388,1.388,0,0,0-.694-.171" transform="translate(-68.55 -111.59)" fill="#ede3d7"/><path d="M155.151,281.7a.119.119,0,0,1,0-.237,42.5,42.5,0,0,0,9.645-1.167.107.107,0,0,1,.127.09.119.119,0,0,1-.082.141,42.646,42.646,0,0,1-9.688,1.173Z" transform="translate(-73.348 -116.739)" fill="#ede3d7"/><path d="M217.606,249.182c10.281-5.188,3.725-19.579-6.294-16.875-5.592,1.51-32.034,16.112-34.5,21.1a5.586,5.586,0,0,0,.325,5.519c1.649,2.292,3.84,1.507,5.943.849.315-.1,26.228-6.411,34.521-10.6" transform="translate(-83.377 -96.614)" fill="#514342"/><path d="M179.874,260.5a3.389,3.389,0,0,1-2.91-1.578,5.717,5.717,0,0,1-.335-5.65c2.434-4.936,28.78-19.6,34.563-21.16a9.16,9.16,0,0,1,11.174,6.351,8.761,8.761,0,0,1-4.81,10.746c-6.592,3.326-24.068,7.969-33.9,10.44-.369.093-.613.154-.638.162l-.21.066a10.182,10.182,0,0,1-2.935.623m33.793-28.489a9.269,9.269,0,0,0-2.424.331c-5.764,1.556-32.008,16.141-34.426,21.044a5.454,5.454,0,0,0,.314,5.389c1.55,2.154,3.619,1.5,5.62.875l.21-.066c.029-.009.209-.054.649-.165,9.823-2.469,27.283-7.107,33.857-10.424l.045.108-.045-.108c5.073-2.56,5.753-7.078,4.7-10.452a9.107,9.107,0,0,0-8.5-6.53" transform="translate(-83.282 -96.531)" fill="#463c3a"/><path d="M173.393,268.2a13.163,13.163,0,0,1-.211,6.4c7.356.438,24.115,4.325,24.554,1.133.091-.661.187-.4-12.512-7.668-2.156-1.235-3.349-.574-3.651,1.847-.112.9-7.406-1.421-8.18-1.71" transform="translate(-81.929 -111.39)" fill="#fffff6"/><path d="M193.751,277a97.167,97.167,0,0,1-12.036-1.3c-3.3-.482-6.417-.937-8.669-1.071l-.138-.008.042-.146a12.953,12.953,0,0,0,.209-6.335l-.045-.208.183.068c1.087.4,7.32,2.311,8.013,1.837.025-.017.026-.029.026-.032a2.979,2.979,0,0,1,1.136-2.354c.643-.369,1.541-.228,2.671.42,2.906,1.664,5.143,2.933,6.862,3.91,5.789,3.286,5.789,3.286,5.709,3.862-.138,1-1.662,1.362-3.963,1.362m-20.556-2.6c2.248.144,5.31.592,8.548,1.064,7.25,1.059,15.469,2.259,15.757.16.058-.418-.046-.485-5.592-3.634-1.72-.977-3.956-2.247-6.863-3.911-1.064-.61-1.9-.751-2.474-.42a2.769,2.769,0,0,0-1.022,2.177.281.281,0,0,1-.125.2c-.8.548-6.8-1.339-8.014-1.751a13.215,13.215,0,0,1-.214,6.113" transform="translate(-81.8 -111.307)" fill="#ede3d7"/><path d="M200.889,280.98a42.659,42.659,0,0,1-9.693-1.127.119.119,0,0,1-.082-.141.108.108,0,0,1,.126-.091,42.512,42.512,0,0,0,9.649,1.123.119.119,0,0,1,0,.236" transform="translate(-90.411 -116.459)" fill="#ede3d7"/><path d="M105.444,250.511c-10.3-5.148-3.787-19.564,6.24-16.9,5.6,1.487,32.085,15.988,34.561,20.968a5.584,5.584,0,0,1-.307,5.521c-1.641,2.3-3.835,1.521-5.94.872-.315-.1-26.248-6.309-34.554-10.462" transform="translate(-47.42 -97.162)" fill="#514342"/><path d="M143.019,261.679a10.255,10.255,0,0,1-2.921-.612l-.21-.065c-.025-.008-.268-.068-.634-.159-9.839-2.433-27.331-7.007-33.935-10.309a8.755,8.755,0,0,1-4.844-10.727,9.169,9.169,0,0,1,11.153-6.4c5.788,1.539,32.18,16.1,34.63,21.027a5.718,5.718,0,0,1-.317,5.651,3.391,3.391,0,0,1-2.922,1.589m-33.833-28.357a9.111,9.111,0,0,0-8.51,6.563c-1.045,3.379-.35,7.894,4.73,10.434,6.586,3.293,24.063,7.863,33.894,10.294.437.109.616.153.645.162l.211.065c2,.621,4.074,1.263,5.617-.9a5.454,5.454,0,0,0,.3-5.39c-2.433-4.893-28.724-19.377-34.493-20.91a9.3,9.3,0,0,0-2.392-.322" transform="translate(-47.339 -97.078)" fill="#463c3a"/><path d="M168.076,149.078c.044,4.026,1.249,7.012-5.438,10.5,3.98,6.064,7.9,8.305,7.9,8.305s8.386-4.181,11.268-6.947c-1.5-1.208-3.065-2.111-4.448-3.187-2.732-2.126-1.12-6.849-1.653-8.593Z" transform="translate(-76.941 -62.09)" fill="#f9a587"/><path d="M181.571,158.8c-.736-1.2-.782-2.573-.737-4.481-3.511,2.748-5.2,1.486-7.413-.316,3.177,5.079,5.047,3.209,8.15,4.8" transform="translate(-82.042 -64.142)" fill="#ea795c"/><path d="M177.089,141.461c1.914-.676,5.022-6.833,3.854-14.419-1.176-7.647-8.857-8.562-11.905-3.4-2.933,4.964-1.036,21.031,8.051,17.822" transform="translate(-79.365 -50.146)" fill="#f9a587"/><path d="M169.882,123.295c1.261-.282,2.755-2.166,4.086-1.229,2.337,1.646,4.807,2.877,4.925,10.031,1.395-6.088,1.073-4.679,2.235-5.8,1.83-1.763-.772-4.9-1.2-6.451-.417-1.5-.04-3.477-2.943-4.534a2.018,2.018,0,0,0-1.78.085c-3.374,1.046-7.058-4.257-9.616,1.643a2.676,2.676,0,0,0-.1,2.378c.411,2.1-1.425,3.942-1.668,6.077-.1.914,2.581,6.427,2.581,6.427s-.014-2.517.05-3.035c.773-6.295,2.347-5.351,3.433-5.595" transform="translate(-77.498 -47.565)" fill="#30323e"/><path d="M193.377,137.538c-1.332-.368-1.3,2.686-1.247,4.2.1,2.985,3.344-3.621,1.247-4.2" transform="translate(-90.884 -57.271)" fill="#f9a587"/><path d="M166.089,138.607c1.3-.488,1.5,2.558,1.557,4.072.118,2.984-3.6-3.3-1.557-4.072" transform="translate(-78.282 -57.707)" fill="#f9a587"/><path d="M183.345,134.97c.1.057,3.423.33,3.476.31.8-.3-2.035-1.552-3.431-.875a.365.365,0,0,0-.044.565" transform="translate(-86.683 -55.896)" fill="#30323e"/><path d="M174.216,134.245c-1.418-.618-4.063.8-3.391,1.053.888,0,4.648-.505,3.391-1.053" transform="translate(-80.764 -55.847)" fill="#30323e"/><path d="M180.012,143.375a.84.84,0,0,1-.314-.067c-.449-.181-.318-.877-.152-1.759a8.246,8.246,0,0,0,.205-1.816.115.115,0,0,1,.1-.124.113.113,0,0,1,.112.113,8.477,8.477,0,0,1-.21,1.875c-.14.739-.26,1.378.016,1.488a.574.574,0,0,0,.511-.013,1.116,1.116,0,0,1,.432-.095.119.119,0,0,1,0,.237.925.925,0,0,0-.361.081.9.9,0,0,1-.34.08" transform="translate(-84.867 -58.146)" fill="#ea795c"/><path d="M181.055,149.414c.087-.056.236-.015.226.1a3.14,3.14,0,0,1-.941,1.973c-1.094.729-2.272-1.776-1.477-1.767a3.464,3.464,0,0,0,2.193-.3" transform="translate(-84.493 -62.219)" fill="#fff"/><path d="M193.259,142.029a.1.1,0,0,1-.057-.019.125.125,0,0,1-.032-.163,2.707,2.707,0,0,0,.221-2.127.122.122,0,0,1,.065-.151.1.1,0,0,1,.137.072,2.972,2.972,0,0,1-.243,2.335.105.105,0,0,1-.09.054" transform="translate(-91.377 -58.126)" fill="#ea795c"/><path d="M167.726,143.047a.1.1,0,0,1-.08-.039,2.925,2.925,0,0,1-.574-2.263.108.108,0,0,1,.125-.095.118.118,0,0,1,.085.138,2.663,2.663,0,0,0,.523,2.062.127.127,0,0,1-.008.167.1.1,0,0,1-.072.03" transform="translate(-79.021 -58.579)" fill="#ea795c"/><path d="M181.806,122.442a.1.1,0,0,1-.047-.012.124.124,0,0,1-.049-.158,9.1,9.1,0,0,0,.525-4.681.115.115,0,0,1,.093-.131.108.108,0,0,1,.119.1,9.349,9.349,0,0,1-.545,4.814.106.106,0,0,1-.1.066" transform="translate(-85.959 -48.92)" fill="#353b4a"/><path d="M187.073,117.96a.1.1,0,0,1-.066-.026,2.053,2.053,0,0,0-2.85-.008.1.1,0,0,1-.149-.025.126.126,0,0,1,.023-.165,2.246,2.246,0,0,1,3.109.012.127.127,0,0,1,.017.166.1.1,0,0,1-.084.045" transform="translate(-87.041 -48.779)" fill="#353b4a"/><path d="M186.333,121.684a2.85,2.85,0,0,1-2.083-.784.127.127,0,0,1,.005-.167.1.1,0,0,1,.151.006,2.815,2.815,0,0,0,2.022.706.109.109,0,0,1,.112.113.115.115,0,0,1-.1.124c-.009,0-.046,0-.106,0" transform="translate(-87.152 -50.271)" fill="#353b4a"/><path d="M186.006,127.458a.1.1,0,0,1-.062-.022,4.523,4.523,0,0,1-1.368-1.8c-.272-.569-.453-.947-1.2-1.093a.119.119,0,0,1-.086-.137.108.108,0,0,1,.124-.1,1.715,1.715,0,0,1,1.353,1.216,4.335,4.335,0,0,0,1.3,1.716.126.126,0,0,1,.024.165.1.1,0,0,1-.087.049" transform="translate(-86.709 -51.774)" fill="#353b4a"/><path d="M176.9,117.1a5.633,5.633,0,0,1-1.906-.473c-.891-.335-1.661-.624-2.121-.048a.1.1,0,0,1-.151.01.127.127,0,0,1-.009-.167c.553-.694,1.426-.366,2.35-.019a3.73,3.73,0,0,0,2.509.347.1.1,0,0,1,.135.075.121.121,0,0,1-.067.149,2.11,2.11,0,0,1-.74.127" transform="translate(-81.697 -48.317)" fill="#353b4a"/><path d="M178.247,121.243a.1.1,0,0,1-.061-.021.127.127,0,0,1-.026-.165c.428-.679,1.236-.448,1.806-.215a.123.123,0,0,1,.063.152.1.1,0,0,1-.138.07c-.811-.332-1.291-.292-1.556.128a.1.1,0,0,1-.088.051" transform="translate(-84.275 -50.232)" fill="#353b4a"/><path d="M174.713,126.349a.1.1,0,0,1-.088-.051.126.126,0,0,1,.027-.165,2.417,2.417,0,0,1,1.423-.624c.394-.04.735-.074,1.739-1.141a.1.1,0,0,1,.151,0,.127.127,0,0,1,0,.167c-1.059,1.126-1.452,1.165-1.867,1.206a2.23,2.23,0,0,0-1.322.584.1.1,0,0,1-.06.02" transform="translate(-82.603 -51.784)" fill="#353b4a"/><path d="M167.323,137.5a.109.109,0,0,1-.1-.08,1.326,1.326,0,0,0-.939-.914.118.118,0,0,1-.083-.139.107.107,0,0,1,.126-.093,1.554,1.554,0,0,1,1.1,1.07.122.122,0,0,1-.067.15.087.087,0,0,1-.034.006" transform="translate(-78.625 -56.756)" fill="#353b4a"/><path d="M192.194,136.576h-.014a.116.116,0,0,1-.092-.132c.076-.635.715-.867,1.059-.992a.1.1,0,0,1,.134.076.122.122,0,0,1-.068.149c-.414.149-.859.347-.913.8a.111.111,0,0,1-.106.1" transform="translate(-90.873 -56.412)" fill="#353b4a"/><path d="M166.423,126.383l-.025,0a.12.12,0,0,1-.08-.142,4.549,4.549,0,0,1,.786-1.749c.49-.731.876-1.308.429-3.412a2.062,2.062,0,0,1,.487-2.2.1.1,0,0,1,.15.014.127.127,0,0,1-.013.167,1.786,1.786,0,0,0-.416,1.967c.469,2.211.036,2.858-.465,3.607a4.282,4.282,0,0,0-.749,1.662.11.11,0,0,1-.1.091" transform="translate(-78.681 -49.499)" fill="#353b4a"/><path d="M194.113,128.593a.1.1,0,0,1-.044-.01.124.124,0,0,1-.053-.157,2.364,2.364,0,0,0-.3-2.276,4.162,4.162,0,0,0-.661-.633,2.416,2.416,0,0,1-1.032-2.44.109.109,0,0,1,.113-.111.115.115,0,0,1,.1.125,2.172,2.172,0,0,0,.946,2.235,4.326,4.326,0,0,1,.694.668,2.628,2.628,0,0,1,.336,2.53.108.108,0,0,1-.1.069" transform="translate(-90.838 -51.214)" fill="#353b4a"/><path d="M173.821,140.272c-.4-.031-.61-1.755.369-1.678.522.041.291,1.73-.369,1.678" transform="translate(-82.073 -57.722)" fill="#382823"/><path d="M185.849,140.272c-.4-.031-.61-1.755.369-1.678.523.041.291,1.73-.369,1.678" transform="translate(-87.763 -57.722)" fill="#382823"/><path d="M160.572,163.528c2.572,3.2,7.469,5.371,10.839.491.267-.387-.03-.5,7.428,2.515,3.319,31.341,4.7,39.406,1.983,39.7-10.08,1.093-22.123,5.954-28.473.558-3.678-3.126-.819-37.56.272-40.281,7.87-3.361,7.608-3.408,7.951-2.982" transform="translate(-71.213 -68.03)" fill="#8a9077"/><path d="M160.539,209.312c-3.248,0-6.15-.644-8.35-2.512-2.141-1.82-1.981-13.557-1.695-20.392.395-9.409,1.381-18.652,1.934-20.032l.018-.044.042-.018c1.714-.732,3.041-1.307,4.074-1.754,3.681-1.592,3.681-1.593,3.974-1.222l.021.025c1.342,1.668,3.672,3.415,6.176,3.31a5.729,5.729,0,0,0,4.5-2.813l.026-.04c.271-.415.271-.416,7.219,2.394l.365.147.008.073c.514,4.852.982,9.149,1.394,12.941,1.947,17.887,2.675,24.58,1.38,26.366a1.207,1.207,0,0,1-.887.524c-2.719.295-5.628.874-8.441,1.433a63.361,63.361,0,0,1-11.758,1.613m-7.931-42.8c-.546,1.5-1.521,10.872-1.9,19.9-.484,11.552.1,18.912,1.611,20.193,4.6,3.906,12.4,2.355,19.94.854,2.817-.561,5.73-1.14,8.458-1.435a1.011,1.011,0,0,0,.741-.437c1.239-1.709.459-8.876-1.426-26.19-.41-3.772-.876-8.046-1.386-12.869l-.242-.1c-6.413-2.593-6.8-2.748-6.973-2.478l-.03.046a5.928,5.928,0,0,1-4.66,2.905c-2.585.105-4.969-1.68-6.344-3.389l-.021-.027c-.191-.241-.262-.217-3.736,1.287-1.024.443-2.34,1.012-4.033,1.736" transform="translate(-71.118 -67.945)" fill="#787160"/><path d="M176.256,233.669c-.387-.445.463-1.078.748-.334a.836.836,0,0,1-.114.749c.525.117.682-.963,1.2-.909.981.1.216,5.487-2.666,4.9-.616-.127-.25-.676-.125-1.14.845-3.115-.922-4.865.957-3.261" transform="translate(-82.825 -97.039)" fill="#ea795c"/><path d="M153.534,234.4l.914-3.52,6.574,2.438c2.746-.3,4.29-1.63,6.18.065a.317.317,0,0,1-.02.487,1.911,1.911,0,0,1-1.63.043c-1.214-.2-2.885,1.93-.659,2.722,3.137,1.117,3.273-3.112,4.206-3.5.844-.352.577,1.448-.828,4-.794,1.444-.981.682-2.792,1.429a1,1,0,0,1-1.142-.015c-4.7-2.469-3.172-1.809-10.8-4.149" transform="translate(-72.634 -96.16)" fill="#f9a587"/><path d="M118.229,198.082c-3.28,5.514.505,7.765,3.559,8.781,4.029,1.341,20.811,5.892,21.469,3.932,1.186-3.535,1.352-4.166.674-4.585-16.549-10.238-18.742-3.87-9.052-14.6a8.338,8.338,0,0,0,2.033-4.469c.876-6.452,1.565-19.132-.171-18.389-4.353,1.859-9.5,14.182-18.513,29.332" transform="translate(-55.333 -70.27)" fill="#8a9077"/><path d="M141.482,211.291c-4.729,0-17.3-3.56-19.82-4.4-2.584-.861-4.164-2.119-4.7-3.742-.477-1.457-.114-3.213,1.078-5.218,2.891-4.859,5.382-9.425,7.581-13.453,4.64-8.5,7.993-14.647,10.983-15.924a.416.416,0,0,1,.466.078c1.358,1.207.613,12.814-.151,18.439a8.41,8.41,0,0,1-2.064,4.535c-1.25,1.385-2.305,2.487-3.153,3.373-1.79,1.871-2.688,2.81-2.576,3.412.1.554,1.107.956,2.928,1.688a71.06,71.06,0,0,1,11.829,5.942c.769.476.547,1.232-.626,4.73-.128.379-.778.54-1.78.54m-23.259-13.229c-1.153,1.939-1.509,3.624-1.055,5.006.507,1.549,2.04,2.759,4.556,3.6,5.245,1.746,20.77,5.7,21.338,4,1.17-3.488,1.315-4.074.722-4.441a70.887,70.887,0,0,0-11.8-5.926c-1.955-.785-2.936-1.179-3.064-1.862-.137-.732.733-1.64,2.638-3.632.846-.885,1.9-1.986,3.148-3.368a8.16,8.16,0,0,0,2-4.4c.878-6.466,1.372-17.2.229-18.219a.222.222,0,0,0-.256-.042c-2.922,1.248-6.259,7.363-10.877,15.825-2.2,4.03-4.692,8.6-7.585,13.462" transform="translate(-55.238 -70.185)" fill="#787160"/><path d="M178.983,233.252c.367-.466-.511-1.051-.762-.292a.833.833,0,0,0,.148.742c-.518.146-.725-.924-1.239-.841-.975.158.034,5.493,2.885,4.74.609-.161.219-.689.073-1.144-.986-3.064.7-4.911-1.1-3.2" transform="translate(-83.626 -96.873)" fill="#ea795c"/><path d="M190.441,232.81l-1.073-3.465-6.454,2.8c-2.756-.146-4.359-1.389-6.17.41a.316.316,0,0,0,.042.484,1.911,1.911,0,0,0,1.629-.048c1.2-.265,2.97,1.766.782,2.682-3.082,1.29-3.41-2.926-4.36-3.262-.858-.3-.511,1.478,1.009,3.95.859,1.4,1.011.626,2.854,1.272a1.006,1.006,0,0,0,1.14-.079c4.582-2.727,3.086-1.983,10.6-4.746" transform="translate(-82.495 -95.52)" fill="#f9a587"/><path d="M203.277,198.8a117.569,117.569,0,0,0-13.687,6.633c-.911.541-.183,1.553.6,4.68a.849.849,0,0,0,.946.674c25.6-4.443,26.843-6.741,24.547-12.336-1.579-3.848-14.854-28.165-18.564-29.653-1.345-.539-1.563,11.811-.694,16.915.807,4.742,8.884,12.227,6.854,13.087" transform="translate(-89.492 -70.297)" fill="#8a9077"/><path d="M190.9,210.835a.972.972,0,0,1-.917-.773c-.219-.878-.436-1.594-.61-2.17-.459-1.517-.669-2.21.065-2.646a117.72,117.72,0,0,1,13.7-6.639.381.381,0,0,0,.242-.269c.18-.735-1.2-2.637-2.661-4.65-1.919-2.644-4.094-5.64-4.5-8.035-.814-4.778-.665-15.895.471-16.964a.327.327,0,0,1,.365-.084c3.8,1.523,17.154,26.13,18.626,29.715.739,1.8,1.1,3.268.469,4.568-1.405,2.886-7.972,4.962-25.1,7.935a.862.862,0,0,1-.149.013m12.313-12.006a117.307,117.307,0,0,0-13.674,6.626c-.551.327-.438.794.036,2.362.175.578.393,1.3.614,2.182a.74.74,0,0,0,.827.589c17.047-2.959,23.574-5,24.942-7.813.593-1.219.258-2.571-.475-4.358-1.8-4.383-14.894-28.144-18.5-29.591a.133.133,0,0,0-.153.042c-.994.937-1.252,11.732-.4,16.74.4,2.337,2.649,5.439,4.458,7.931,1.625,2.24,2.909,4.009,2.7,4.861a.6.6,0,0,1-.373.428" transform="translate(-89.394 -70.212)" fill="#787160"/><path d="M166.079,200.278a.1.1,0,0,1-.086-.048c-2.042-3.079-4.584-6.91-4.974-11.283a26.914,26.914,0,0,1,.84-7.779c.593-2.86,1.207-5.817.681-8.693a22.216,22.216,0,0,0-1.5-4.5l-.664-1.595a.124.124,0,0,1,.053-.157.1.1,0,0,1,.142.058l.664,1.594a22.431,22.431,0,0,1,1.52,4.549c.534,2.926-.084,5.909-.683,8.793a26.723,26.723,0,0,0-.835,7.7c.384,4.309,2.906,8.111,4.933,11.166a.127.127,0,0,1-.023.166.1.1,0,0,1-.063.023" transform="translate(-75.864 -69.227)" fill="#ffba73"/><path d="M198.448,200.316a.116.116,0,0,1-.106-.127,42.2,42.2,0,0,0-.188-10.723,41.805,41.805,0,0,0-1.274-4.673,30.12,30.12,0,0,1-1.533-6.545c-.32-3.932.866-7.712,2.2-11.21a.1.1,0,0,1,.14-.064.124.124,0,0,1,.057.155c-1.319,3.47-2.5,7.216-2.18,11.1a29.9,29.9,0,0,0,1.522,6.488,41.984,41.984,0,0,1,1.281,4.7,42.378,42.378,0,0,1,.191,10.789.112.112,0,0,1-.106.11" transform="translate(-92.39 -69.54)" fill="#ffba73"/><path d="M163.063,195.794c-4.887,0-9.85-1.447-14.354-2.76-3.583-1.044-6.967-2.031-9.635-2.039a12.447,12.447,0,0,0-2.656.288.107.107,0,0,1-.125-.093.118.118,0,0,1,.084-.139,12.727,12.727,0,0,1,2.7-.293c2.7.008,6.093,1,9.69,2.047,5.859,1.709,12.5,3.645,18.708,2.3a38.482,38.482,0,0,0,5.875-1.952,28.176,28.176,0,0,1,8.282-2.308.11.11,0,0,1,.113.11.116.116,0,0,1-.1.126,28.036,28.036,0,0,0-8.223,2.295,38.585,38.585,0,0,1-5.906,1.961,21.049,21.049,0,0,1-4.449.452" transform="translate(-64.476 -79.449)" fill="#fff"/><path d="M120.12,205.134a.1.1,0,0,1-.066-.025.127.127,0,0,1-.018-.166,60.019,60.019,0,0,1,4.234-5.111c2.422-2.712,4.927-5.515,6.45-8.973a38.329,38.329,0,0,0,2-6.665,43.947,43.947,0,0,1,1.706-5.966c.512-1.306,1.156-2.564,1.779-3.781.53-1.035,1.077-2.105,1.54-3.2a17.335,17.335,0,0,0,1-3.073.108.108,0,0,1,.129-.088.12.12,0,0,1,.079.143,17.6,17.6,0,0,1-1.011,3.119c-.466,1.1-1.016,2.175-1.548,3.214-.62,1.211-1.26,2.464-1.768,3.759a43.608,43.608,0,0,0-1.695,5.932,38.52,38.52,0,0,1-2.016,6.709c-1.538,3.492-4.055,6.31-6.49,9.035a59.585,59.585,0,0,0-4.219,5.091.1.1,0,0,1-.084.045" transform="translate(-56.776 -70.006)" fill="#ffba73"/><path d="M220.038,206.435a.1.1,0,0,1-.076-.035,11.8,11.8,0,0,1-2.361-4.455,38.144,38.144,0,0,1-.961-4.434c-.2-1.167-.416-2.373-.711-3.532A26.145,26.145,0,0,0,211.613,185c-.275-.375-.564-.752-.843-1.115a23.267,23.267,0,0,1-2.091-3.046,21.836,21.836,0,0,1-1.946-6.091c-.319-1.588-.595-3.208-.82-4.815a.117.117,0,0,1,.09-.135.109.109,0,0,1,.122.1c.225,1.6.5,3.216.818,4.8a21.6,21.6,0,0,0,1.921,6.021,23.115,23.115,0,0,0,2.07,3.016c.28.364.57.741.846,1.119a26.383,26.383,0,0,1,4.355,9.06c.3,1.168.51,2.38.716,3.551a37.92,37.92,0,0,0,.954,4.4,11.547,11.547,0,0,0,2.31,4.363.128.128,0,0,1,0,.167.1.1,0,0,1-.075.034" transform="translate(-97.413 -70.72)" fill="#ffba73"/><path d="M157.431,211.33a36.5,36.5,0,0,1-8.138-.945c-2.366-.539-4.733-1.327-7.023-2.091-4.706-1.57-9.574-3.194-14.652-2.7a.113.113,0,0,1-.116-.107.116.116,0,0,1,.1-.128c5.12-.5,10.006,1.129,14.732,2.705,2.285.762,4.647,1.55,7,2.086,10.648,2.423,18.126-.326,24.724-2.751a58.729,58.729,0,0,1,8.053-2.538.108.108,0,0,1,.125.095.118.118,0,0,1-.085.138,58.523,58.523,0,0,0-8.025,2.53c-4.805,1.766-10.077,3.7-16.7,3.7" transform="translate(-60.319 -85.323)" fill="#fff"/><path d="M170.276,182.859c-3.8,0-7.557-1.14-11.2-2.246-4.8-1.458-9.762-2.964-14.77-1.813a.107.107,0,0,1-.126-.092.119.119,0,0,1,.083-.14c5.059-1.163,10.047.352,14.871,1.816,4.077,1.238,8.293,2.518,12.544,2.184a34.639,34.639,0,0,0,7.731-1.844c.8-.256,1.619-.519,2.431-.76a.107.107,0,0,1,.131.083.12.12,0,0,1-.076.145c-.81.24-1.632.5-2.426.759a34.813,34.813,0,0,1-7.776,1.853q-.709.056-1.416.055" transform="translate(-68.207 -74.2)" fill="#fff"/><path d="M183.473,206.407a.089.089,0,0,1-.03,0,.12.12,0,0,1-.073-.146,20.191,20.191,0,0,0-.214-10.707,39.048,39.048,0,0,0-1.512-3.954,28.611,28.611,0,0,1-1.905-5.516,30.512,30.512,0,0,1,.093-9.243,36.354,36.354,0,0,0,.319-7.5.116.116,0,0,1,.094-.131.112.112,0,0,1,.118.105,36.54,36.54,0,0,1-.319,7.552,30.322,30.322,0,0,0-.1,9.164,28.378,28.378,0,0,0,1.891,5.466,39.391,39.391,0,0,1,1.52,3.98,20.454,20.454,0,0,1,.217,10.847.109.109,0,0,1-.1.086" transform="translate(-84.878 -70.473)" fill="#ffba73"/><path d="M164.5,172.194a35.883,35.883,0,0,1-8.312-1.339c-1.632-.4-3.321-.8-4.986-1.065a.117.117,0,0,1-.091-.134.109.109,0,0,1,.121-.1c1.673.261,3.365.672,5,1.068,3.843.93,7.817,1.892,11.668.939a23.949,23.949,0,0,0,3.533-1.267,31.257,31.257,0,0,1,6.941-2.185.108.108,0,0,1,.123.1.118.118,0,0,1-.087.137,31.089,31.089,0,0,0-6.9,2.173,24.041,24.041,0,0,1-3.562,1.277,14.306,14.306,0,0,1-3.449.4" transform="translate(-71.486 -70.016)" fill="#fff"/><path d="M116.946,222.875a.105.105,0,0,1-.089-.052.126.126,0,0,1,.03-.164c3.495-2.592,7.627-2.446,10.644-2.339.676.024,1.315.047,1.853.032a.117.117,0,0,1,.11.114.115.115,0,0,1-.1.122c-.544.015-1.186-.008-1.865-.033-2.989-.106-7.081-.25-10.518,2.3a.1.1,0,0,1-.06.019" transform="translate(-55.274 -91.742)" fill="#fff"/><path d="M137.719,232.2a.1.1,0,0,1-.05-.013.125.125,0,0,1-.045-.16A13.326,13.326,0,0,1,145.184,225a.106.106,0,0,1,.134.077.121.121,0,0,1-.07.149,13.106,13.106,0,0,0-7.434,6.909.106.106,0,0,1-.095.064" transform="translate(-65.102 -93.708)" fill="#fff"/><path d="M228.308,221.222h-.013a24.613,24.613,0,0,1-7.315-2.572,25.1,25.1,0,0,0-6.7-2.443.117.117,0,0,1-.091-.134.109.109,0,0,1,.121-.1,25.266,25.266,0,0,1,6.749,2.46,24.474,24.474,0,0,0,7.256,2.555.117.117,0,0,1,.093.132.111.111,0,0,1-.106.1" transform="translate(-101.331 -89.949)" fill="#fff"/><path d="M183.681,230.394a.1.1,0,0,1-.051-.014.126.126,0,0,1-.044-.16c.756-1.561,4.2-2.251,8.552-3.124a52.06,52.06,0,0,0,11.044-3.063c.874-.4,1.743-.862,2.584-1.311a25.868,25.868,0,0,1,4.832-2.165c.468-.136.98-.247,1.521-.365.333-.073.674-.147,1.018-.23a.107.107,0,0,1,.127.09.119.119,0,0,1-.082.141c-.345.083-.688.158-1.022.231-.538.117-1.046.228-1.508.362a25.716,25.716,0,0,0-4.794,2.149c-.844.449-1.716.914-2.6,1.316a52.2,52.2,0,0,1-11.087,3.079c-4.129.827-7.695,1.541-8.4,3a.106.106,0,0,1-.094.062" transform="translate(-86.846 -91.611)" fill="#ffba73"/><path d="M212.932,229.805a.1.1,0,0,1-.048-.013,19.234,19.234,0,0,1-5.061-4.731,14.935,14.935,0,0,0-3.689-3.572.123.123,0,0,1-.048-.158.1.1,0,0,1,.143-.053,15.052,15.052,0,0,1,3.751,3.622,18.79,18.79,0,0,0,5,4.68.124.124,0,0,1,.047.159.106.106,0,0,1-.1.065" transform="translate(-96.544 -92.155)" fill="#fff"/><path d="M147.835,229.233h-.017a15.535,15.535,0,0,1-5.547-2.678,15.528,15.528,0,0,0-5.426-2.641,14.57,14.57,0,0,0-3.01-.135c-.451.01-.916.021-1.374.013-5.662-.1-8.79-2.6-11.3-4.616-.469-.375-.912-.73-1.34-1.042a.126.126,0,0,1-.031-.164.1.1,0,0,1,.148-.034c.433.315.878.671,1.349,1.048,2.489,1.993,5.587,4.472,11.182,4.571.454.008.917,0,1.365-.014a14.741,14.741,0,0,1,3.05.138,15.679,15.679,0,0,1,5.5,2.671A15.376,15.376,0,0,0,147.852,229a.117.117,0,0,1,.089.135.111.111,0,0,1-.105.1" transform="translate(-56.66 -90.76)" fill="#ffba73"/><path d="M220.874,220.286a4.514,4.514,0,0,1-2.468-.742.126.126,0,0,1-.038-.162.1.1,0,0,1,.146-.042,4.264,4.264,0,0,0,3.5.552.107.107,0,0,1,.13.085.12.12,0,0,1-.077.144,4.359,4.359,0,0,1-1.188.165" transform="translate(-103.299 -91.347)" fill="#787160"/><path d="M135.766,218.754a3.54,3.54,0,0,1-3.065-1.964.125.125,0,0,1,.04-.161.1.1,0,0,1,.145.043,3.327,3.327,0,0,0,2.88,1.845s.009,0,.011,0a.113.113,0,0,1,.107.118.119.119,0,0,1-.118.119" transform="translate(-62.772 -90.217)" fill="#787160"/><path d="M177.971,216.925a.111.111,0,0,1-.105-.1.117.117,0,0,1,.089-.135c5.744-.971,8.762-7.653,10.76-12.074a.1.1,0,0,1,.143-.053.124.124,0,0,1,.047.159c-2.017,4.464-5.065,11.212-10.918,12.2h-.016" transform="translate(-84.145 -85.193)" fill="#787160"/><path d="M173.09,170.108c-2.868,0-5.906-1.742-6.549-3.776a.122.122,0,0,1,.066-.151.1.1,0,0,1,.136.072c.626,1.98,3.654,3.683,6.477,3.617a.116.116,0,0,1,.109.117.113.113,0,0,1-.1.12h-.134" transform="translate(-78.785 -69.21)" fill="#787160"/><path d="M152.537,205.756a.1.1,0,0,1-.075-.034.128.128,0,0,1,0-.167,9.924,9.924,0,0,0,2.4-5.577.112.112,0,0,1,.118-.1.117.117,0,0,1,.094.131,10.176,10.176,0,0,1-2.458,5.716.1.1,0,0,1-.076.036" transform="translate(-72.112 -83.245)" fill="#787160"/><path d="M179.371,229.884H149.43a3.081,3.081,0,0,1-2.913-3.226v-23.8a3.081,3.081,0,0,1,2.913-3.225h29.941a3.081,3.081,0,0,1,2.913,3.225v23.8a3.081,3.081,0,0,1-2.913,3.226" transform="translate(-69.315 -83.146)" fill="#858789"/><path d="M179.275,229.917H149.334a3.2,3.2,0,0,1-3.02-3.344v-23.8a3.2,3.2,0,0,1,3.02-3.344h29.941a3.2,3.2,0,0,1,3.02,3.344v23.8a3.2,3.2,0,0,1-3.02,3.344m-29.941-30.249a2.972,2.972,0,0,0-2.806,3.108v23.8a2.972,2.972,0,0,0,2.806,3.107h29.941a2.972,2.972,0,0,0,2.806-3.107v-23.8a2.972,2.972,0,0,0-2.806-3.108Z" transform="translate(-69.218 -83.062)" fill="#d2d4d5"/><path d="M180.71,223.593a2.493,2.493,0,1,1-2.48-2.747,2.623,2.623,0,0,1,2.48,2.747" transform="translate(-83.144 -91.98)" fill="#d2d4d5"/><path d="M178.133,226.375a2.88,2.88,0,1,1,2.587-2.865,2.74,2.74,0,0,1-2.587,2.865m0-5.494a2.642,2.642,0,1,0,2.374,2.629,2.514,2.514,0,0,0-2.374-2.629" transform="translate(-83.048 -91.897)" fill="#858789"/><path d="M163.433,218.68l-.193-.1.019-.045.195.1Z" transform="translate(-77.226 -91.017)" fill="#fff"/></g></g></svg>