<svg xmlns="http://www.w3.org/2000/svg" xmlns:xlink="http://www.w3.org/1999/xlink" width="232" height="205.034" viewBox="0 0 232 205.034"><defs><clipPath id="a"><rect width="232" height="205.034" fill="none"/></clipPath><clipPath id="e"><rect width="125.649" height="82.56" fill="none"/></clipPath><clipPath id="f"><rect width="115.733" height="75.913" fill="none"/></clipPath><clipPath id="g"><rect width="15.057" height="16.446" fill="none"/></clipPath><clipPath id="h"><rect width="14.599" height="17.181" fill="none"/></clipPath><clipPath id="i"><rect width="28.687" height="27.667" fill="none"/></clipPath><clipPath id="j"><rect width="30.18" height="24.734" fill="none"/></clipPath><clipPath id="k"><rect width="21.239" height="3.28" fill="none"/></clipPath><clipPath id="l"><rect width="24.473" height="3.28" fill="none"/></clipPath><clipPath id="m"><rect width="13.438" height="3.28" fill="none"/></clipPath><clipPath id="o"><rect width="7.806" height="3.28" fill="none"/></clipPath><clipPath id="q"><rect width="12.291" height="18.579" fill="none"/></clipPath><clipPath id="r"><rect width="4.674" height="10.423" fill="none"/></clipPath><clipPath id="s"><rect width="25.179" height="40.884" fill="none"/></clipPath><clipPath id="t"><rect width="5.221" height="11.622" fill="none"/></clipPath><clipPath id="u"><rect width="4.345" height="5.45" fill="none"/></clipPath><clipPath id="v"><rect width="6.132" height="6.042" fill="none"/></clipPath><clipPath id="w"><rect width="5.825" height="35.056" fill="none"/></clipPath><clipPath id="y"><rect width="15.334" height="19.203" fill="none"/></clipPath></defs><g clip-path="url(#a)"><g clip-path="url(#a)"><path d="M54.358,226.71H26.722a2.575,2.575,0,0,1-2.456-2.346l-6.918-52.252a2.666,2.666,0,0,1,2.456-3.14H47.44a2.576,2.576,0,0,1,2.456,2.346l6.917,52.252a2.665,2.665,0,0,1-2.456,3.139" transform="translate(-7.579 -63.954)" fill="#f0f0f0"/><path d="M22.43,226.71H9.4a2.575,2.575,0,0,1-2.456-2.346L.026,172.113a2.666,2.666,0,0,1,2.456-3.14H15.513a2.576,2.576,0,0,1,2.456,2.346l6.917,52.252a2.665,2.665,0,0,1-2.456,3.139" transform="translate(0 -63.954)" fill="#fafafa"/><path d="M220.777,147.667H86.454a6.923,6.923,0,0,0-6.706,6.313l-3.38,40.343a5.657,5.657,0,0,0,5.648,6.313H216.338a6.923,6.923,0,0,0,6.706-6.313l3.38-40.343a5.657,5.657,0,0,0-5.648-6.313" transform="translate(-33.403 -55.89)" fill="#e0e0e0"/><path d="M204.567,147.667H70.244a6.923,6.923,0,0,0-6.706,6.313l-3.38,40.343a5.657,5.657,0,0,0,5.648,6.313H200.128a6.923,6.923,0,0,0,6.706-6.313l3.38-40.343a5.657,5.657,0,0,0-5.648-6.313" transform="translate(-26.311 -55.89)" fill="#e6e6e6"/><path d="M47.96,243.207V228.843a4.275,4.275,0,0,1,4.047-4.471H102.6a4.275,4.275,0,0,1,4.047,4.471v14.364a4.275,4.275,0,0,1-4.047,4.472H52.007a4.276,4.276,0,0,1-4.047-4.472" transform="translate(-20.984 -84.922)" fill="#ebebeb"/><path d="M178.016,243.586V228.463a3.912,3.912,0,0,1,3.7-4.092h59.045a3.912,3.912,0,0,1,3.7,4.092v15.123a3.912,3.912,0,0,1-3.7,4.092H181.719a3.912,3.912,0,0,1-3.7-4.092" transform="translate(-77.886 -84.922)" fill="#e0e0e0"/><path d="M152.293,243.586V228.463a3.912,3.912,0,0,1,3.7-4.092h59.045a3.912,3.912,0,0,1,3.7,4.092v15.123a3.912,3.912,0,0,1-3.7,4.092H156a3.912,3.912,0,0,1-3.7-4.092" transform="translate(-66.632 -84.922)" fill="#ebebeb"/><path d="M314.773,226.71H294.214a2.352,2.352,0,0,1-2.094-3.139l12.948-52.252a2.981,2.981,0,0,1,2.726-2.346h20.559a2.353,2.353,0,0,1,2.094,3.14L317.5,224.365a2.981,2.981,0,0,1-2.726,2.346" transform="translate(-127.769 -63.954)" fill="#f0f0f0"/><path d="M289.922,226.71h-13.03a2.352,2.352,0,0,1-2.094-3.139l12.948-52.252a2.982,2.982,0,0,1,2.726-2.346H303.5a2.353,2.353,0,0,1,2.094,3.14l-12.948,52.252a2.981,2.981,0,0,1-2.726,2.346" transform="translate(-120.19 -63.954)" fill="#fafafa"/><path d="M277.152,276.079h-1.978l-4.739-14.208h4.9Z" transform="translate(-118.322 -99.115)" fill="#e0e0e0"/><path d="M321.771,276.079h-1.978l-4.739-14.208h4.9Z" transform="translate(-137.844 -99.115)" fill="#e0e0e0"/><path d="M73.371,276.079h1.978l4.739-14.208h-4.9Z" transform="translate(-32.102 -99.115)" fill="#e0e0e0"/><path d="M28.753,276.079H30.73l4.739-14.208h-4.9Z" transform="translate(-12.58 -99.115)" fill="#e0e0e0"/><rect width="149.991" height="59.113" transform="translate(37.668)" fill="#e0e0e0"/><rect width="149.991" height="59.113" transform="translate(36.293)" fill="#f0f0f0"/><rect width="140.991" height="49.168" transform="translate(40.793 4.972)" fill="#fafafa"/><path d="M200.819,38.577c0,8.143-5.974,14.743-13.343,14.743s-13.344-6.6-13.344-14.743,5.974-14.743,13.344-14.743,13.343,6.6,13.343,14.743" transform="translate(-76.187 -9.021)" fill="#f0f0f0"/><path d="M113.215,57.169,122.559,8h20.624l-9.344,49.168Z" transform="translate(-49.534 -3.028)" fill="#fff"/><path d="M165.353,57.169,174.7,8h10.312l-9.345,49.168Z" transform="translate(-72.346 -3.028)" fill="#fff"/><path d="M277.294,57.169,286.638,8h10.312l-9.345,49.168Z" transform="translate(-121.323 -3.028)" fill="#fff"/><path d="M388.4,154.1c-3.5,16.758,5.061,34.067,1.561,50.825l-3.465-.159-3.465-.159c5.81-16.652-.44-33.855,5.369-50.507" transform="translate(-167.585 -58.323)" fill="#f0f0f0"/><path d="M373.5,165.788c2.867,16.021-6.336,32.042-3.469,48.063h6.938c-5.18-16.021,1.711-32.042-3.469-48.063" transform="translate(-161.652 -62.749)" fill="#f0f0f0"/><path d="M381.649,144.355c-4.588,17.086,3.94,35.524-.647,52.61l-3.769-.389-3.769-.389c7.1-16.827,1.085-35.005,8.185-51.832" transform="translate(-163.399 -54.637)" fill="#e6e6e6"/><path d="M395.774,183.941c1.48,9.239-6.771,16.5-5.291,25.742l2.8.567,2.8.567c-3.344-9.617,3.043-17.259-.3-26.877" transform="translate(-170.768 -69.62)" fill="#e6e6e6"/><path d="M384.779,224.372H362.118a46.677,46.677,0,0,0,0,37.514h22.661a46.677,46.677,0,0,0,0-37.514" transform="translate(-156.714 -84.922)" fill="#e0e0e0"/></g><g clip-path="url(#a)"><path d="M224.527,314.286c0,3.887-48.827,7.037-109.058,7.037S6.411,318.173,6.411,314.286s48.827-7.037,109.058-7.037,109.058,3.151,109.058,7.037" transform="translate(-2.805 -116.29)" fill="#f5f5f5"/></g><g clip-path="url(#a)"><path d="M237.794,123.578H116.245a2.379,2.379,0,0,1-2.252-2.633l4.093-82.34a2.682,2.682,0,0,1,2.514-2.633H242.149A2.379,2.379,0,0,1,244.4,38.6l-4.094,82.34a2.682,2.682,0,0,1-2.513,2.633" transform="translate(-49.873 -13.615)" fill="#263238"/><path d="M228.809,47.616H217.06c-3.918,0-6.948-3.536-6.732-7.859l.119-2.4c.208-4.188,3.485-7.615,7.28-7.615h11.742c3.922,0,6.955,3.54,6.74,7.867L236.09,40c-.208,4.188-3.485,7.615-7.281,7.615" transform="translate(-92.019 -11.256)" fill="#263238"/><path d="M251.219,207.774h-3.765L237.091,32.691h3.765Z" transform="translate(-103.733 -12.373)" fill="#263238"/><path d="M211.973,207.774h3.765L226.1,32.691h-3.765Z" transform="translate(-92.743 -12.373)" fill="#263238"/><path d="M236.643,123.578H115.094a2.379,2.379,0,0,1-2.252-2.633l4.093-82.34a2.682,2.682,0,0,1,2.514-2.633H241A2.379,2.379,0,0,1,243.25,38.6l-4.093,82.34a2.683,2.683,0,0,1-2.514,2.633" transform="translate(-49.37 -13.615)" fill="#407bff"/><g transform="translate(65.852 24.88)" opacity="0.4"><g clip-path="url(#e)"><path d="M118.876,122.59a1.9,1.9,0,0,1-1.8-2.1l3.9-78.355a2.139,2.139,0,0,1,2.007-2.1H240.923a1.9,1.9,0,0,1,1.8,2.1l-3.9,78.355a2.138,2.138,0,0,1-2.007,2.1Z" transform="translate(-117.075 -40.031)" fill="#263238"/></g></g><g transform="translate(70.81 28.203)" opacity="0.1"><g clip-path="url(#f)"><path d="M241.407,83.082H205.9a1.61,1.61,0,0,1-1.528-1.786l1.773-35.665a.227.227,0,0,0-.215-.252.255.255,0,0,0-.241.252L203.92,81.3a1.814,1.814,0,0,1-1.7,1.786H165.322a1.61,1.61,0,0,1-1.528-1.786l1.773-35.665a.227.227,0,0,0-.215-.252.256.256,0,0,0-.241.252L163.338,81.3a1.814,1.814,0,0,1-1.705,1.786h-35.5a.257.257,0,0,0-.241.252.227.227,0,0,0,.216.252h35.5a1.61,1.61,0,0,1,1.528,1.786l-1.773,35.666a.228.228,0,0,0,.216.252.256.256,0,0,0,.241-.252l1.773-35.666a1.814,1.814,0,0,1,1.7-1.786H202.19a1.61,1.61,0,0,1,1.528,1.786l-1.773,35.666a.227.227,0,0,0,.215.252.256.256,0,0,0,.241-.252l1.773-35.666a1.814,1.814,0,0,1,1.7-1.786h35.5a.257.257,0,0,0,.241-.252.228.228,0,0,0-.216-.252" transform="translate(-125.89 -45.378)" fill="#fff"/></g></g><g transform="translate(113.387 34.667)" opacity="0.4"><g clip-path="url(#g)"><path d="M216.641,55.779h-14.26l-.8,16.025,14.239.421Z" transform="translate(-201.585 -55.779)" fill="#263238"/></g></g><path d="M214.472,70.7l-14.313-.771a152.809,152.809,0,0,0,1.488-16.353l14.4.771A152.669,152.669,0,0,1,214.472,70.7" transform="translate(-87.574 -20.279)" fill="#fff"/><g transform="translate(131.356 45.373)" opacity="0.4"><g clip-path="url(#h)"><path d="M247.81,73l-14.278,1.2.313,15.978,14.286-.784Z" transform="translate(-233.532 -73.004)" fill="#263238"/></g></g><path d="M246.916,88.417l-14.384.442a151.159,151.159,0,0,0,.357-16.361l14.468-.45a151.123,151.123,0,0,1-.441,16.369" transform="translate(-101.738 -27.269)" fill="#407bff"/><g transform="translate(75.245 73.406)" opacity="0.4"><g clip-path="url(#i)"><path d="M162.462,119.22l-26.325-1.111-2.362,25.877,26.263,1.791Z" transform="translate(-133.775 -118.109)" fill="#263238"/></g></g><path d="M157.624,143.252l-26.379-2.363a216.843,216.843,0,0,0,3.658-26.352l26.534,2.369a217.214,217.214,0,0,1-3.813,26.347" transform="translate(-57.423 -43.351)" fill="#fff"/><g transform="translate(74.367 35.008)" opacity="0.3" style="mix-blend-mode:multiply;isolation:isolate"><g clip-path="url(#j)"><path d="M135.514,59.607h0a1.482,1.482,0,0,1-1.4-1.639,1.671,1.671,0,0,1,1.566-1.64,1.481,1.481,0,0,1,1.4,1.64,1.67,1.67,0,0,1-1.565,1.639" transform="translate(-133.043 -56.327)" fill="#263238"/><g transform="translate(6.062)" opacity="0.8"><g clip-path="url(#k)"><path d="M162.661,59.607H144.4a1.481,1.481,0,0,1-1.4-1.639,1.67,1.67,0,0,1,1.566-1.64h18.266a1.482,1.482,0,0,1,1.4,1.64,1.67,1.67,0,0,1-1.566,1.639" transform="translate(-142.991 -56.327)" fill="#263238"/></g></g><path d="M134.882,71.114h0a1.482,1.482,0,0,1-1.4-1.64,1.672,1.672,0,0,1,1.566-1.64,1.483,1.483,0,0,1,1.4,1.64,1.671,1.671,0,0,1-1.565,1.64" transform="translate(-132.766 -60.682)" fill="#263238"/><g transform="translate(5.707 7.152)" opacity="0.8"><g clip-path="url(#l)"><path d="M165.264,71.114h-21.5a1.482,1.482,0,0,1-1.4-1.64,1.671,1.671,0,0,1,1.566-1.64h21.5a1.482,1.482,0,0,1,1.4,1.64,1.67,1.67,0,0,1-1.565,1.64" transform="translate(-142.359 -67.834)" fill="#263238"/></g></g><path d="M134.249,82.621h0a1.483,1.483,0,0,1-1.4-1.64,1.671,1.671,0,0,1,1.566-1.64,1.482,1.482,0,0,1,1.4,1.64,1.671,1.671,0,0,1-1.566,1.64" transform="translate(-132.489 -65.038)" fill="#263238"/><g transform="translate(5.351 14.303)" opacity="0.8"><g clip-path="url(#m)"><path d="M153.6,82.621H143.131a1.483,1.483,0,0,1-1.4-1.64,1.671,1.671,0,0,1,1.566-1.64h10.465a1.482,1.482,0,0,1,1.4,1.64,1.67,1.67,0,0,1-1.565,1.64" transform="translate(-141.726 -79.341)" fill="#263238"/></g></g><g transform="translate(15.042 21.455)" opacity="0.8"><g clip-path="url(#m)"><path d="M170.825,94.127H160.36a1.483,1.483,0,0,1-1.4-1.64,1.671,1.671,0,0,1,1.566-1.64h10.465a1.482,1.482,0,0,1,1.4,1.64,1.67,1.67,0,0,1-1.565,1.64" transform="translate(-158.955 -90.847)" fill="#263238"/></g></g><path d="M133.617,94.127h0a1.483,1.483,0,0,1-1.4-1.64,1.671,1.671,0,0,1,1.566-1.64,1.482,1.482,0,0,1,1.4,1.64,1.67,1.67,0,0,1-1.565,1.64" transform="translate(-132.213 -69.392)" fill="#263238"/><g transform="translate(4.995 21.455)" opacity="0.8"><g clip-path="url(#o)"><path d="M147.332,94.127H142.5a1.483,1.483,0,0,1-1.4-1.64,1.671,1.671,0,0,1,1.566-1.64H147.5a1.482,1.482,0,0,1,1.4,1.64,1.671,1.671,0,0,1-1.566,1.64" transform="translate(-141.094 -90.847)" fill="#263238"/></g></g></g></g><path d="M209.178,130.365h-7.083l-.973,19.583H208.2Z" transform="translate(-87.995 -49.341)" fill="#407bff"/><path d="M228.434,136.859H221.35l-.773,15.546h7.083Z" transform="translate(-96.508 -51.8)" fill="#407bff"/><path d="M248.409,120.081h-7.083l-1.291,25.974h7.083Z" transform="translate(-105.021 -45.449)" fill="#407bff"/><path d="M200.46,138.7q-1.052,0-2.124-.061a11.037,11.037,0,0,1-4.285-.96.527.527,0,0,1-.229-.667.44.44,0,0,1,.6-.254,10.257,10.257,0,0,0,3.957.873c8.5.484,15.941-1.963,23.43-7.7a27.463,27.463,0,0,0,6.09-6.524.43.43,0,0,1,.635-.129.538.538,0,0,1,.117.7,28.032,28.032,0,0,1-6.322,6.781C215.3,136.149,208.3,138.7,200.46,138.7" transform="translate(-84.784 -46.627)" fill="#fff"/><path d="M252.745,125.229a.42.42,0,0,1-.174-.039.524.524,0,0,1-.247-.659,9.75,9.75,0,0,0,.393-5.436,29.946,29.946,0,0,1-5.659,3.319.443.443,0,0,1-.594-.279.524.524,0,0,1,.253-.657,29.178,29.178,0,0,0,6-3.608.42.42,0,0,1,.4-.067.483.483,0,0,1,.291.318,10.791,10.791,0,0,1-.244,6.794.459.459,0,0,1-.422.312" transform="translate(-107.819 -44.578)" fill="#fff"/><path d="M302.236,81.47H275.888a1.51,1.51,0,0,1-1.159-.544,1.859,1.859,0,0,1-.429-1.312L275.524,55a1.859,1.859,0,0,1,1.745-1.828h26.349a1.509,1.509,0,0,1,1.159.544,1.856,1.856,0,0,1,.429,1.312l-1.223,24.612a1.86,1.86,0,0,1-1.746,1.828M277.269,53.679a1.374,1.374,0,0,0-1.29,1.351l-1.223,24.612a1.329,1.329,0,0,0,.3.938,1.078,1.078,0,0,0,.828.386h26.348a1.374,1.374,0,0,0,1.29-1.351L304.749,55a1.326,1.326,0,0,0-.3-.937,1.075,1.075,0,0,0-.827-.386Z" transform="translate(-120.012 -20.126)" fill="#407bff"/><path d="M305.492,64.23H276.266a.254.254,0,0,1,0-.5h29.226a.254.254,0,0,1,0,.5" transform="translate(-120.773 -24.119)" fill="#407bff"/><path d="M286.658,85.463h-.013a.244.244,0,0,1-.215-.265l1.055-21.235a.236.236,0,0,1,.241-.238.245.245,0,0,1,.215.266l-1.055,21.234a.24.24,0,0,1-.228.239" transform="translate(-125.32 -24.119)" fill="#407bff"/><path d="M309.932,68.289H294.065a.254.254,0,0,1,0-.5h15.867a.254.254,0,0,1,0,.5" transform="translate(-128.561 -25.655)" fill="#407bff"/><path d="M307.422,73.27h-13.63a.254.254,0,0,1,0-.5h13.63a.254.254,0,0,1,0,.5" transform="translate(-128.441 -27.541)" fill="#407bff"/><path d="M301.442,78.411h-7.934a.254.254,0,0,1,0-.5h7.934a.254.254,0,0,1,0,.5" transform="translate(-128.317 -29.487)" fill="#407bff"/><path d="M302.643,88.444h-9.685a.254.254,0,0,1,0-.5h9.685a.254.254,0,0,1,0,.5" transform="translate(-128.076 -33.284)" fill="#407bff"/><path d="M300.609,93.585h-7.934a.254.254,0,0,1,0-.5h7.934a.254.254,0,0,1,0,.5" transform="translate(-127.953 -35.23)" fill="#407bff"/><path d="M313.059,93.585h-2.542a.254.254,0,0,1,0-.5h2.542a.254.254,0,0,1,0,.5" transform="translate(-135.759 -35.23)" fill="#407bff"/><path d="M308.093,83.392H293.235a.254.254,0,0,1,0-.5h14.857a.254.254,0,0,1,0,.5" transform="translate(-128.198 -31.372)" fill="#407bff"/><path d="M287.192,141.582c-3.442,0-6.263-1.124-8.015-3.215-1.87-2.232-2.646-5.742-2.128-9.63a13.542,13.542,0,0,1,2.094-5.94,11.8,11.8,0,0,1,4.628-3.835,14.725,14.725,0,0,1,13.627.2,6.631,6.631,0,0,1,3.449,3.858.516.516,0,0,1-.3.633.45.45,0,0,1-.573-.329,5.707,5.707,0,0,0-2.987-3.26,13.883,13.883,0,0,0-12.845-.183,10.877,10.877,0,0,0-4.272,3.524,12.494,12.494,0,0,0-1.917,5.476c-.476,3.585.214,6.792,1.9,8.8,2.337,2.789,6.206,2.989,8.3,2.861A13.46,13.46,0,0,0,297.6,136.3c2.565-2.919,3.284-7.284,1.673-10.154a2.928,2.928,0,0,0-1.971-1.614.494.494,0,0,1-.409-.553.473.473,0,0,1,.5-.452,3.683,3.683,0,0,1,2.656,2.086c1.826,3.252,1.055,8.149-1.794,11.389a14.328,14.328,0,0,1-10.055,4.545q-.513.031-1.011.031" transform="translate(-121.147 -44.432)" fill="#fff"/></g><g clip-path="url(#a)"><path d="M77.4,69.451l-1.622,3.124-1.59,3.19c-1.047,2.131-2.047,4.28-2.96,6.439-.454,1.083-.887,2.16-1.282,3.243l-.073.2a.272.272,0,0,1-.024.046.436.436,0,0,0-.048.086,1.114,1.114,0,0,0-.077.178,1.351,1.351,0,0,0,.067.7,7.013,7.013,0,0,0,1.354,2.27,25.832,25.832,0,0,0,2.2,2.3l-1.318,3.1a13,13,0,0,1-1.818-.71,13.59,13.59,0,0,1-1.717-.973,10.183,10.183,0,0,1-3.17-3.249,7.687,7.687,0,0,1-.992-2.835,7.148,7.148,0,0,1-.03-1.689,6.334,6.334,0,0,1,.129-.828l.092-.4.069-.245c.362-1.271.736-2.529,1.175-3.741.855-2.44,1.818-4.8,2.869-7.091.525-1.149,1.069-2.283,1.642-3.4s1.138-2.213,1.8-3.348Z" transform="translate(-28.116 -24.908)" fill="#ffc3bd"/><path d="M77.429,105.612l2.956-.849.169,5.272a4.469,4.469,0,0,1-3.728-1.183Z" transform="translate(-33.614 -39.652)" fill="#ffc3bd"/><path d="M87.341,103.334l-.667,4.629-3.352,1.532-.169-5.272Z" transform="translate(-36.382 -39.111)" fill="#ffc3bd"/><path d="M112.319,31.237c.066.361.293.615.507.567s.333-.38.266-.74-.293-.615-.506-.567-.333.379-.267.74" transform="translate(-49.134 -11.54)" fill="#263238"/><path d="M112.8,32.691a12.949,12.949,0,0,0,2.128,2.736,1.818,1.818,0,0,1-1.5.674Z" transform="translate(-49.353 -12.373)" fill="#ed847e"/><path d="M109.4,28.233a.187.187,0,0,1-.133-.057.233.233,0,0,1-.011-.306,1.831,1.831,0,0,1,1.665-.716.216.216,0,0,1,.16.25.2.2,0,0,1-.225.177,1.465,1.465,0,0,0-1.313.582.186.186,0,0,1-.143.07" transform="translate(-47.779 -10.272)" fill="#263238"/><path d="M95.067,39.859c.593,3.34,1.184,9.461-.931,11.689,0,0,.826,3.388,6.444,3.388,6.176,0,2.951-3.388,2.951-3.388-3.371-.889-3.284-3.653-2.7-6.248Z" transform="translate(-41.187 -15.086)" fill="#ffc3bd"/><path d="M91.561,57.851c-.452-.928-.949-1.99.08-2.323,1.132-.366,8.4-1.045,10.536-.358-.656,1.29.455,2.874.455,2.874Z" transform="translate(-39.83 -20.77)" fill="#263238"/><path d="M58.595,309.627a1.215,1.215,0,0,0,1.028-.062.473.473,0,0,0,.1-.5.489.489,0,0,0-.252-.318c-.558-.295-1.84.283-1.894.308a.108.108,0,0,0-.061.1.11.11,0,0,0,.055.1,4.842,4.842,0,0,0,1.029.378m.672-.73a.486.486,0,0,1,.115.042.283.283,0,0,1,.149.185c.052.195-.013.255-.034.276-.223.209-1.047.016-1.629-.241a2.951,2.951,0,0,1,1.4-.262" transform="translate(-25.162 -116.825)" fill="#407bff"/><path d="M57.588,308.5a.089.089,0,0,0,.048,0c.467-.151,1.467-.935,1.479-1.453a.351.351,0,0,0-.25-.35.489.489,0,0,0-.434.039c-.552.311-.9,1.576-.916,1.63a.117.117,0,0,0,.024.108.1.1,0,0,0,.049.029m1.169-1.614.043.013c.121.047.119.112.119.14-.007.306-.667.922-1.15,1.171a2.645,2.645,0,0,1,.751-1.284.318.318,0,0,1,.238-.04" transform="translate(-25.162 -116.068)" fill="#407bff"/><path d="M112.629,310.778c.53,0,1.042-.081,1.214-.344a.444.444,0,0,0-.008-.472.5.5,0,0,0-.31-.253c-.688-.207-2.132.7-2.193.741a.112.112,0,0,0-.048.111.106.106,0,0,0,.077.089,6.608,6.608,0,0,0,1.268.128m.655-.886a.643.643,0,0,1,.189.025.3.3,0,0,1,.192.151c.069.134.044.2.019.239-.192.3-1.237.3-2.005.182a4.146,4.146,0,0,1,1.605-.6" transform="translate(-48.689 -117.209)" fill="#407bff"/><path d="M111.38,309.985a.092.092,0,0,0,.04-.009c.5-.247,1.487-1.235,1.411-1.751-.018-.121-.1-.272-.364-.3a.671.671,0,0,0-.543.186,3.284,3.284,0,0,0-.642,1.759.114.114,0,0,0,.041.1.094.094,0,0,0,.057.02m1.009-1.851c.019,0,.039,0,.059,0,.176.02.187.1.191.122.045.31-.626,1.086-1.135,1.424a2.68,2.68,0,0,1,.546-1.408.491.491,0,0,1,.34-.14" transform="translate(-48.689 -116.543)" fill="#407bff"/><path d="M103.379,304.632h4.132l.412-10.573h-4.132Z" transform="translate(-45.231 -111.298)" fill="#ffc3bd"/><path d="M49.459,301.672l4.039.966,4.055-9.848-4.039-.966Z" transform="translate(-21.639 -110.452)" fill="#ffc3bd"/><path d="M52.218,307.837l-4.537-1.085a.352.352,0,0,0-.4.222L45.7,310.75a.684.684,0,0,0,.436.935c1.59.349,2.379.43,4.375.908,1.227.293,4,1.039,5.693,1.445,1.658.4,2.28-1.394,1.619-1.728-2.965-1.5-4.2-2.814-5.005-4.042a1,1,0,0,0-.6-.431" transform="translate(-19.972 -116.098)" fill="#263238"/><path d="M106.247,310.22h-4.513a.371.371,0,0,0-.352.312l-.816,4.059a.649.649,0,0,0,.595.812c1.628-.03,3.98-.135,6.026-.135,2.392,0,4.458.144,7.264.144,1.7,0,2.167-1.895,1.457-2.067-3.233-.781-5.872-.865-8.665-2.768a1.8,1.8,0,0,0-1-.355" transform="translate(-43.994 -117.415)" fill="#263238"/><path d="M75.487,60.252c-3.873.981-7.066,11.906-7.066,11.906L76.2,78.707a19.256,19.256,0,0,0,4.125-8.438c1.331-5.725-.876-11.02-4.836-10.017" transform="translate(-29.936 -22.758)" fill="#407bff"/><g transform="translate(38.485 37.371)" opacity="0.2"><g clip-path="url(#q)"><path d="M75.487,60.252c-3.873.981-7.066,11.906-7.066,11.906L76.2,78.707a19.256,19.256,0,0,0,4.125-8.438c1.331-5.725-.876-11.02-4.836-10.017" transform="translate(-68.421 -60.129)" fill="#fafafa"/></g></g><g transform="translate(45.917 45.528)" opacity="0.2"><g clip-path="url(#r)"><path d="M84.587,73.253c-2.1,2.3-2.79,6.489-2.953,10.131l.343.292a19.275,19.275,0,0,0,4.129-8.44c.079-.342.146-.684.2-1.019Z" transform="translate(-81.634 -73.253)"/></g></g><path d="M104.132,59.841s4.4,5.489.245,39.464h-22.1c-.153-3.748,1.979-22.036-1.294-39.7a52.569,52.569,0,0,1,7.4-1.032,73.42,73.42,0,0,1,9.4,0,37.986,37.986,0,0,1,6.356,1.267" transform="translate(-35.432 -22.112)" fill="#407bff"/><g transform="translate(45.551 36.309)" opacity="0.2"><g clip-path="url(#s)"><path d="M104.132,59.841s4.4,5.489.245,39.464h-22.1c-.153-3.748,1.979-22.036-1.294-39.7a52.569,52.569,0,0,1,7.4-1.032,73.42,73.42,0,0,1,9.4,0,37.986,37.986,0,0,1,6.356,1.267" transform="translate(-80.983 -58.421)" fill="#fafafa"/></g></g><g transform="translate(65.508 48.033)" opacity="0.2"><g clip-path="url(#t)"><path d="M121.588,77.365l-.084-.081-5.023,1.33c-.287,3.754,3.206,8.241,5.006,10.292.247-4.792.242-8.571.1-11.541" transform="translate(-116.464 -77.284)"/></g></g><g transform="translate(58.346 182.763)" opacity="0.2"><g clip-path="url(#u)"><path d="M108.075,294.063l-.212,5.45H103.73l.211-5.45Z" transform="translate(-103.73 -294.063)"/></g></g><g transform="translate(29.78 181.374)" opacity="0.2"><g clip-path="url(#v)"><path d="M55.037,291.828l4.04.966-2.092,5.076-4.04-.966Z" transform="translate(-52.945 -291.828)"/></g></g><path d="M92.56,29.614c1.061,4.377,1.482,7,3.926,8.819,3.677,2.737,8.255-.4,8.4-5.044.129-4.176-1.629-10.632-5.88-11.514-4.188-.869-7.506,3.362-6.445,7.739" transform="translate(-40.41 -8.236)" fill="#ffc3bd"/><path d="M90.886,34.537c1.685,1.065,7.825-2.494,6.564-7.889a10.991,10.991,0,0,0,2.075-6.538c-.264-3.43-2.4-4.737-4.661-4-2,.649-1.94,1.858-1.94,1.858s-9.443,1.228-7.427,5.47c-3.844,4.63,3.289,9.772,5.39,11.1" transform="translate(-36.917 -6.022)" fill="#263238"/><path d="M84.685,27.786s-1.125-2.151-2.766-.947a3.939,3.939,0,0,1,2.766.947" transform="translate(-35.842 -10.02)" fill="#263238"/><path d="M109.877,22.173s2.058-5.133-1.15-6.786a9.537,9.537,0,0,1,1.15,6.786" transform="translate(-47.571 -5.824)" fill="#263238"/><path d="M104.641,33.377a5.165,5.165,0,0,0,1.668,2.725c1.075.884,1.878.014,1.8-1.331-.069-1.21-.711-3.129-1.9-3.487-1.169-.353-1.88.78-1.572,2.094" transform="translate(-45.751 -11.816)" fill="#ffc3bd"/><path d="M83.28,124.2s-4.689,34.893-7.264,47.965C73.2,186.483,58.08,233.844,58.08,233.844l-7.4-1.769s10.571-38.6,12.937-58.609c1.817-15.372,5.4-49.263,5.4-49.263Z" transform="translate(-22.175 -47.009)" fill="#263238"/><path d="M59.437,295.128c.031.007-1.379,2.956-1.379,2.956l-8.322-1.991.7-2.764Z" transform="translate(-21.761 -111.021)" fill="#407bff"/><g transform="translate(53.537 89.58)" opacity="0.3"><g clip-path="url(#w)"><path d="M99.785,144.179c-5.422,1.175-4.849,23.518-4.2,35.01,1.564-8.123,3.853-23.754,5.417-34.848a1.7,1.7,0,0,0-1.221-.162" transform="translate(-95.181 -144.132)"/></g></g><path d="M111.273,124.2s.569,34.138.12,48.062c-.467,14.482-5.046,61.9-5.046,61.9h-7s-.257-46.574-.569-60.8c-.339-15.505-2.034-49.167-2.034-49.167Z" transform="translate(-42.328 -47.009)" fill="#263238"/><g transform="translate(92.749 53.126)" opacity="0.4"><g clip-path="url(#g)"><path d="M179.951,85.479h-14.26l-.8,16.025,14.24.421Z" transform="translate(-164.894 -85.479)" fill="#263238"/></g></g><path d="M167.228,91.068l-14.282-1.947A149.769,149.769,0,0,0,155.52,73l14.366,1.953a149.95,149.95,0,0,1-2.658,16.111" transform="translate(-66.918 -27.631)" fill="#407bff"/><path d="M109.1,296.177c.032,0-.395,3.211-.395,3.211h-8.515l-.23-2.866Z" transform="translate(-43.736 -112.1)" fill="#407bff"/><path d="M121.572,67.407c.635,1.093,1.359,2.321,2.082,3.456s1.474,2.288,2.249,3.387a45.187,45.187,0,0,0,4.923,6.072c.435.444.88.856,1.329,1.236l.337.281a1.014,1.014,0,0,0-.2-.075c-.147-.031-.218,0-.179.019a1.731,1.731,0,0,0,.926-.235,10.467,10.467,0,0,0,1.422-.816,50.345,50.345,0,0,0,5.942-5.087l2.414,2.154a31.239,31.239,0,0,1-5.409,7.292,13.437,13.437,0,0,1-1.933,1.572,7.122,7.122,0,0,1-2.838,1.165,4.531,4.531,0,0,1-2.151-.2,4.643,4.643,0,0,1-1.093-.557l-.488-.342q-.965-.691-1.838-1.452a43.233,43.233,0,0,1-6.058-6.72c-.881-1.2-1.736-2.423-2.528-3.689s-1.554-2.5-2.3-3.927Z" transform="translate(-50.834 -25.513)" fill="#ffc3bd"/><path d="M111.239,67.5c-1.322,6.121,8.7,12.116,8.7,12.116l6.511-8.429a59.059,59.059,0,0,0-6.652-8.874c-4.555-4.831-7.555.526-8.561,5.187" transform="translate(-48.617 -22.866)" fill="#407bff"/><g transform="translate(62.501 37.549)" opacity="0.2"><g clip-path="url(#y)"><path d="M111.239,67.5c-1.322,6.121,8.7,12.116,8.7,12.116l6.511-8.429a59.059,59.059,0,0,0-6.652-8.874c-4.555-4.831-7.555.526-8.561,5.187" transform="translate(-111.118 -60.415)" fill="#fafafa"/></g></g><path d="M158.083,79.389l1.537-5.453,4.044,2.227s-.589,3.978-3.533,4.668Z" transform="translate(-69.165 -27.984)" fill="#ffc3bd"/><path d="M162.436,71.5l3.647,1.109-1.225,2.629-4.044-2.227Z" transform="translate(-70.36 -27.064)" fill="#ffc3bd"/></g></g></svg>