<svg xmlns="http://www.w3.org/2000/svg" xmlns:xlink="http://www.w3.org/1999/xlink" width="136" height="108.375" viewBox="0 0 136 108.375"><defs><clipPath id="a"><path d="M28.247,0C20.487,0,14.746,6.795,15,14.163c.247,7.078-.074,16.247-2.381,23.723C10.307,45.385,6.393,50.125,0,50.734v6.906c6.394.609,10.307,5.349,12.621,12.848C14.929,77.965,15.249,87.134,15,94.212c-.257,7.368,5.484,14.163,13.244,14.163h79.516c7.76,0,13.5-6.795,13.244-14.163-.246-7.078.074-16.247,2.381-23.723C125.7,62.99,129.607,58.25,136,57.641V50.734c-6.393-.609-10.3-5.349-12.612-12.848-2.307-7.476-2.628-16.645-2.381-23.723C121.264,6.795,115.523,0,107.763,0Z" fill="none"/></clipPath><linearGradient id="b" x1="0.099" y1="0.812" x2="0.1" y2="0.812" gradientUnits="objectBoundingBox"><stop offset="0" stop-color="#9013fe"/><stop offset="1" stop-color="#6610f2"/></linearGradient><clipPath id="c"><path d="M187.068,126.814h12.113c8.676,0,13.177,3.2,13.177,9.427s-4.379,9.547-12.645,9.547H187.068Zm0-24.047h12.2c6.629,0,10.394,2.956,10.394,8.308,0,5.712-4.379,8.908-12.318,8.908H187.068Zm-9.167-7.31V153.1H201.6c12.563,0,20.134-6.151,20.134-16.3,0-7.669-5.4-13.222-13.423-14.1v-.32a12.878,12.878,0,0,0,10.517-12.543c0-8.708-6.875-14.38-17.351-14.38Z" transform="translate(-177.901 -95.457)" fill="none"/></clipPath><linearGradient id="d" x1="-0.531" y1="1.253" x2="-0.527" y2="1.253" gradientUnits="objectBoundingBox"><stop offset="0" stop-color="#fff"/><stop offset="1" stop-color="#f1e5fc"/></linearGradient><clipPath id="e"><rect width="136" height="108" fill="none"/></clipPath></defs><g clip-path="url(#a)"><rect width="169.438" height="173.899" transform="matrix(0.622, -0.783, 0.783, 0.622, -52.774, 66.483)" fill="url(#b)"/></g><g transform="translate(47.255 25.356)"><g clip-path="url(#c)"><rect width="67.064" height="71.923" transform="matrix(0.861, -0.509, 0.509, 0.861, -25.253, 14.932)" fill="url(#d)"/></g></g><g clip-path="url(#e)"><path d="M201.6,153.1c12.563,0,20.134-6.151,20.134-16.3,0-7.669-5.4-13.222-13.423-14.1v-.32a12.878,12.878,0,0,0,10.517-12.543c0-8.708-6.875-14.38-17.351-14.38H177.9V153.1Zm-14.528-50.331h12.2c6.629,0,10.394,2.956,10.394,8.308,0,5.712-4.379,8.908-12.318,8.908H187.068Zm0,43.021V126.814h12.113c8.676,0,13.177,3.2,13.177,9.427s-4.379,9.547-12.645,9.547Z" transform="translate(-130.646 -70.101)" fill="none" stroke="#fff" stroke-width="1"/></g></svg>