<svg xmlns="http://www.w3.org/2000/svg" xmlns:xlink="http://www.w3.org/1999/xlink" width="64.373" height="73" viewBox="0 0 64.373 73"><defs><clipPath id="a"><rect width="64.373" height="73" fill="none"/></clipPath></defs><g transform="translate(2 1)"><g transform="translate(-2 -1)" clip-path="url(#a)"><path d="M0,0V.355C.413,3.9.659,7.467,1,11.022,2,22.832,3.123,34.633,4.157,46.441c.548,6.391,1.1,12.782,1.72,19.17C10.6,66.879,15.286,68.3,20.01,69.572c4,1.19,8.045,2.238,12.048,3.428h.124c4.206-1.224,8.444-2.341,12.648-3.575,4.577-1.219,9.111-2.6,13.69-3.814Q59.713,52.829,60.8,40.035C62.029,26.693,63.192,13.348,64.373,0Q32.185,0,0,0m52.926,19.32a12.43,12.43,0,0,1-.237,1.995,7.393,7.393,0,0,1-1.509.782c-2.656,1.177-5.334,2.3-7.981,3.5-2.758,1.234-5.583,2.33-8.269,3.713.723.053,1.45.057,2.177.053,4.992-.021,9.985-.006,14.977-.032C51.562,37.677,50.739,46,50,54.324c-5.869,1.529-11.712,3.155-17.595,4.632L32.174,59a4.222,4.222,0,0,1-1.211-.2c-3.342-.893-6.719-1.648-10.055-2.556-2.177-.593-4.362-1.151-6.544-1.72a123.364,123.364,0,0,1-1.224-12.4c2.213-.034,4.427-.013,6.638-.026a4.876,4.876,0,0,1,1.364.13c.192,2.159.343,4.323.559,6.48,1.524.443,3.108.618,4.654.955,1.961.348,3.9.787,5.873,1.079a24.593,24.593,0,0,1,3.349-1.117c2.11-.633,4.234-1.211,6.327-1.895.181-3.49.471-6.975.661-10.465-3.415.023-6.83-.07-10.243-.011-2.925.064-5.852.006-8.778.021-3.65.006-7.3.064-10.949.077-.194-2.727-.635-5.446-.686-8.179a8.12,8.12,0,0,1,1.529-.738c6.018-2.631,12.083-5.163,18.075-7.851-6.849-.205-13.707.058-20.556-.2-.343-2.468-.676-4.939-.8-7.427,7.361-.008,14.724-.028,22.085,0,7.071.038,14.14-.011,21.21.045-.1,2.112-.373,4.21-.526,6.32" transform="translate(0 0)" fill="#fff"/></g></g></svg>