<svg xmlns="http://www.w3.org/2000/svg" xmlns:xlink="http://www.w3.org/1999/xlink" width="440" height="307.373" viewBox="0 0 440 307.373"><defs><clipPath id="a"><rect width="440" height="307.373" transform="translate(0 0)" fill="none"/></clipPath></defs><g transform="translate(0 -68.918)"><g transform="translate(0 68.918)"><g transform="translate(0 0)" clip-path="url(#a)"><path d="M84.31,306.681s-50.207-72.024-4.833-128.3C134.613,110,75.648,70.982,118.691,25.346c35.213-37.335,77.262-30.584,158.215,1.8,62.594,25.039,87.355-42.648,150.615-8.1,41.352,22.586,11.142,91.885,34.832,137.5,27.583,53.119,27.583,122.122-7.912,150.127Z" transform="translate(-49.936 -0.004)" fill="#ebf3fa"/><path d="M2031.231,860.449s-5.026-6.756-.31-11.047c0,0,3.444-2.4,6.253-2.208,0,0-3.98,7.69-2.692,8.455s3.9-8.937,3.9-8.937,7.839-.876,10.36.521c0,0-6.7,6.319-5.289,6.695s8.649-5.826,8.649-5.826,7.3,1.431,6.906,6.559-2.9,6.712-4.007,6.575-7.568-2.979-7.709-1.936,3.75,4.452,6.474,4.611c0,0-5.144,6.536-8.561,4.65s-3.71-4.877-5.841-6-3.95-1.119-3.07.025,4.736,2.255,5.954,4.739,2.312,4.159-1.225,3.546-9.285-3.6-9.537-7.01Z" transform="translate(-1674.868 -676.242)" fill="#c8dbf4"/><path d="M2045.574,887.85s-19.814-.88-24.19,5.65a16.889,16.889,0,0,1-3.945,6.381l-.465,1.458s3.434-4.172,4.663-4.424c0,0-1.922-8.09,23.937-9.065" transform="translate(-1665.021 -709.293)" fill="#c8dbf4"/><path d="M1998.117,945.558a14.888,14.888,0,0,0-4.549,10.1l.772.08s1.358-6.7,3.813-9.315-.037-.865-.037-.865" transform="translate(-1645.699 -754.97)" fill="#c8dbf4"/><path d="M1802.834,779.072s7.994-5.158,4.264-12.159c0,0-2.985-4.3-6.182-5.4,0,0,1.705,10.44,0,10.686s-1.173-11.791-1.173-11.791-8.42-4.667-11.724-4.3c0,0,5.223,10.195,3.518,9.949s-7.568-10.563-7.568-10.563-8.634-1.842-10.019,4.053.853,8.843,2.132,9.212,9.486.246,9.273,1.474-5.756,3.193-8.847,2.088c0,0,3.411,9.7,7.887,9.212s5.862-3.684,8.634-3.93,4.8.614,3.411,1.474-6.076.282-8.314,2.475-4.05,3.544.107,4.526,11.618.368,13.11-3.316Z" transform="translate(-1464.041 -603.362)" fill="#c8dbf4"/><path d="M1798.619,785.893s22.383,8.352,24.942,17.687a22.057,22.057,0,0,0,2.131,8.966v1.842s-2.344-6.264-3.624-7.124c0,0,5.01-8.106-23.449-21.371" transform="translate(-1484.768 -627.869)" fill="#c8dbf4"/><path d="M1948.711,913.888a19.18,19.18,0,0,1,1.484,13.393l-.888-.275s.862-8.1-.944-12.172.348-.946.348-.946" transform="translate(-1607.786 -729.211)" fill="#c8dbf4"/><path d="M1981.664,713.533s-10.538-6.8-5.62-16.029c0,0,3.934-5.667,8.149-7.124,0,0-2.248,13.762,0,14.086s1.546-15.543,1.546-15.543,11.1-6.152,15.455-5.667c0,0-6.885,13.438-4.637,13.114s9.976-13.924,9.976-13.924,11.381-2.429,13.208,5.343-1.124,11.657-2.81,12.143-12.5.324-12.224,1.943,7.587,4.21,11.662,2.753c0,0-4.5,12.791-10.4,12.143s-7.728-4.857-11.381-5.181-6.323.81-4.5,1.943,8.009.371,10.959,3.262,5.339,4.671-.14,5.967-15.315.486-17.282-4.372Z" transform="translate(-1630.153 -544.937)" fill="#d4e4f8"/><path d="M2034.02,722.524s-29.505,11.01-32.877,23.314a29.067,29.067,0,0,1-2.811,11.819v2.429s3.092-8.257,4.778-9.39c0,0-6.6-10.686,30.91-28.172" transform="translate(-1649.632 -577.242)" fill="#d4e4f8"/><path d="M1985.3,891.245a25.283,25.283,0,0,0-1.956,17.655l1.17-.362s-1.137-10.676,1.244-16.045-.459-1.248-.459-1.248" transform="translate(-1636.597 -710.83)" fill="#d4e4f8"/><path d="M1914.751,995.073c11.4,0,20.642-10.649,20.642-23.786H1894.11c0,13.137,9.241,23.786,20.641,23.786" transform="translate(-1563.596 -775.984)" fill="#d4e4f8"/><path d="M1934.329,1083.94h-41.854a2.762,2.762,0,0,1,2.547-2.935h36.76a2.762,2.762,0,0,1,2.547,2.935" transform="translate(-1562.246 -863.641)" fill="#d4e4f8"/><rect width="42.431" height="0.73" transform="translate(329.836 195.302)" fill="#9fc1f4"/><path d="M243.1,1097.923h72.5L304.219,991.175h-72.5Z" transform="translate(-191.286 -791.873)" fill="#a4c4e0"/><path d="M261.092,1097.923h72.5L322.216,991.175h-72.5Z" transform="translate(-206.143 -791.873)" fill="#c8dbf4"/><path d="M287.425,1112.512h63.993l-10.246-96.16H277.179Z" transform="translate(-228.812 -811.988)" fill="#d4e4f8"/><path d="M298.9,1248.647h66.278l-.574-5.385H298.322Z" transform="translate(-246.266 -993.271)" fill="#c8dbf4"/><path d="M601.579,1007.083l-1.695-15.907h-13.8Z" transform="translate(-483.811 -791.874)" fill="#b7cfea"/><path d="M251.413,1007.083l-1.695-15.907h13.8Z" transform="translate(-206.143 -791.874)" fill="#b7cfea"/><path d="M651.273,1458.928h13.8l-1.695-15.907Z" transform="translate(-537.629 -1152.864)" fill="#b7cfea"/><path d="M320.7,1458.928h-13.8l-1.695-15.907Z" transform="translate(-251.942 -1152.864)" fill="#b7cfea"/><path d="M452.325,1219.543h51.713l-8.113-76.144H444.211Z" transform="translate(-366.698 -913.489)" fill="#a4c4e0"/><path d="M465.162,1219.543h51.713l-8.113-76.144H457.048Z" transform="translate(-377.295 -913.489)" fill="#c8dbf4"/><path d="M483.945,1229.95h45.646l-7.308-68.591H476.637Z" transform="translate(-393.465 -927.838)" fill="#d4e4f8"/><path d="M492.127,1327.054H539.4l-.409-3.841H491.718Z" transform="translate(-405.915 -1057.146)" fill="#c8dbf4"/><path d="M708.031,1154.746l-1.209-11.347h-9.847Z" transform="translate(-575.356 -913.489)" fill="#b7cfea"/><path d="M458.257,1154.746l-1.209-11.347h9.846Z" transform="translate(-377.295 -913.489)" fill="#b7cfea"/><path d="M743.478,1477.047h9.847l-1.209-11.347Z" transform="translate(-613.744 -1170.982)" fill="#b7cfea"/><path d="M507.677,1477.047h-9.847l-1.209-11.347Z" transform="translate(-409.963 -1170.982)" fill="#b7cfea"/><path d="M523.888,218.444h-30.35A2.755,2.755,0,0,1,491,215.525V181.77a2.755,2.755,0,0,1,2.533-2.919h30.35a2.755,2.755,0,0,1,2.533,2.919v33.755a2.755,2.755,0,0,1-2.533,2.919" transform="translate(-405.327 -142.889)" fill="#c0d8fb"/><path d="M529.832,223.543h-27.72a2.516,2.516,0,0,1-2.314-2.666v-30.83a2.516,2.516,0,0,1,2.314-2.666h27.72a2.516,2.516,0,0,1,2.314,2.666v30.83a2.516,2.516,0,0,1-2.314,2.666" transform="translate(-412.585 -149.704)" fill="#dfebfd"/><path d="M588.282,201.993a.741.741,0,1,1,.733.845.8.8,0,0,1-.733-.845" transform="translate(-485.629 -160.702)" fill="#b7d3f3"/><path d="M621.769,209.566a.685.685,0,0,1,1-.328.916.916,0,0,1,.285,1.15.686.686,0,0,1-1,.328.916.916,0,0,1-.285-1.15" transform="translate(-513.197 -167.08)" fill="#b7d3f3"/><path d="M649.681,233.848a.678.678,0,0,1,1.014.252.925.925,0,0,1-.219,1.169.678.678,0,0,1-1.014-.252.926.926,0,0,1,.219-1.169" transform="translate(-536.037 -186.719)" fill="#b7d3f3"/><path d="M662.2,270.124a.854.854,0,1,1-.734.846.8.8,0,0,1,.734-.846" transform="translate(-546.04 -215.809)" fill="#b7d3f3"/><path d="M652.392,310.616a.939.939,0,0,1,0,1.2.667.667,0,0,1-1.038,0,.939.939,0,0,1,0-1.2.667.667,0,0,1,1.038,0" transform="translate(-537.518 -247.961)" fill="#b7d3f3"/><path d="M625.991,337.086a.939.939,0,0,1,0,1.2.667.667,0,0,1-1.037,0,.939.939,0,0,1,0-1.2.667.667,0,0,1,1.037,0" transform="translate(-515.724 -269.109)" fill="#b7d3f3"/><path d="M588.282,348.354a.741.741,0,1,1,.733.845.8.8,0,0,1-.733-.845" transform="translate(-485.629 -277.634)" fill="#b7d3f3"/><path d="M556.127,209.566a.686.686,0,0,0-1-.328.916.916,0,0,0-.285,1.15.686.686,0,0,0,1,.328.916.916,0,0,0,.285-1.15" transform="translate(-457.95 -167.08)" fill="#b7d3f3"/><path d="M528.216,233.848a.678.678,0,0,0-1.014.252.926.926,0,0,0,.219,1.169.678.678,0,0,0,1.014-.252.926.926,0,0,0-.219-1.169" transform="translate(-435.11 -186.719)" fill="#b7d3f3"/><path d="M515.7,270.124a.854.854,0,1,0,.733.846.8.8,0,0,0-.733-.846" transform="translate(-425.107 -215.809)" fill="#b7d3f3"/><path d="M525.505,310.616a.939.939,0,0,0,0,1.2.667.667,0,0,0,1.038,0,.939.939,0,0,0,0-1.2.667.667,0,0,0-1.038,0" transform="translate(-433.63 -247.961)" fill="#b7d3f3"/><path d="M551.906,337.086a.939.939,0,0,0,0,1.2.667.667,0,0,0,1.037,0,.939.939,0,0,0,0-1.2.667.667,0,0,0-1.037,0" transform="translate(-455.424 -269.109)" fill="#b7d3f3"/><path d="M591.353,270.968a.741.741,0,1,1,.734.845.8.8,0,0,1-.734-.845" transform="translate(-488.164 -215.808)" fill="#b7d3f3"/><rect width="0.2" height="10.561" transform="translate(103.822 44.599)" fill="#b7d3f3"/><path d="M.044.457,6.58,0,6.536.658,0,1.115Z" transform="matrix(0.787, -0.617, 0.617, 0.787, 103.327, 54.541)" fill="#b7d3f3"/><path d="M1850.576,1096.961v2.14c0,.75.211,1.361.467,1.361h67.779c.257,0,.467-.612.467-1.361v-2.14c0-.748-.21-1.361-.467-1.361h-67.779c-.257,0-.467.613-.467,1.361" transform="translate(-1527.658 -875.301)" fill="#9abfe2"/><path d="M1850.576,1096.961v2.14c0,.75.193,1.361.429,1.361h53.809c.236,0,.429-.612.429-1.361v-2.14c0-.748-.193-1.361-.429-1.361H1851c-.236,0-.429.613-.429,1.361" transform="translate(-1527.658 -875.301)" fill="#bad4f4"/><rect width="48.119" height="80.819" transform="translate(340.072 225.162)" fill="#c8dbf4"/><rect width="48.119" height="80.819" transform="translate(326.588 225.162)" fill="#dfebfd"/><path d="M1886.422,1131.14h42.948v74.074h-42.948Zm42.484.534h-42.02v73.005h42.02Z" transform="translate(-1557.249 -903.695)" fill="#b7d3f3"/><rect width="42.483" height="0.534" transform="translate(329.405 251.949)" fill="#b7d3f3"/><rect width="42.483" height="0.534" transform="translate(329.405 276.931)" fill="#b7d3f3"/><path d="M1981.246,1148.528h7.883a.81.81,0,0,0,0-1.6h-7.883a.81.81,0,0,0,0,1.6" transform="translate(-1634.953 -916.306)" fill="#b7d3f3"/><path d="M1981.246,1270.021h7.883a.81.81,0,0,0,0-1.6h-7.883a.81.81,0,0,0,0,1.6" transform="translate(-1634.953 -1013.369)" fill="#b7d3f3"/><path d="M1981.246,1396.669h7.883a.81.81,0,0,0,0-1.6h-7.883a.81.81,0,0,0,0,1.6" transform="translate(-1634.953 -1114.551)" fill="#b7d3f3"/><path d="M.457.039,2.088,0,1.631,22,0,22.039Z" transform="matrix(0.987, -0.159, 0.159, 0.987, 368.788, 190.169)" fill="#9abfe2"/><path d="M2116.335,925.766l-.268,3.985,1.605-.3Z" transform="translate(-1746.822 -739.617)" fill="#b7cfea"/><path d="M.044.523,22.021,0l-.044,1.633L0,2.156Z" transform="translate(376.276 211.505) rotate(-79.501)" fill="#9abfe2"/><path d="M2180.769,926.03l-1.414,3.65,1.6.341Z" transform="translate(-1799.067 -739.827)" fill="#b7cfea"/><path d="M.044.523,22.021,0l-.044,1.633L0,2.156Z" transform="translate(381.91 208.259) rotate(-79.501)" fill="#87a6d8"/><path d="M2213.058,909.885l-1.414,3.651,1.6.341Z" transform="translate(-1825.721 -726.929)" fill="#b7cfea"/><rect width="12.802" height="21.26" transform="translate(375.262 199.039)" fill="#91b2e2"/><rect width="12.801" height="21.26" transform="translate(368.861 199.039)" fill="#b7cfea"/><path d="M1133.455,636.512s4.172-2.8,6.468-1.838,6.159,4.09,4.489,5.413-3.709.092-4.384,0-1.955,3.185-5.884,2.134-.689-5.708-.689-5.708" transform="translate(-934.635 -506.895)" fill="#ffb27d"/><path d="M829.33,290.328s-7.252-6.53-15.08-3.964c0,0-3.042-5.436-8.455-2.517-7.585,4.09-2.157,13.262,1.742,11.338,0,0-.107,2.285-2.055,6.936s2.08,14.508,10.208,11.244,15.134-6.929,15.134-6.929,6.459-10.85-1.494-16.108" transform="translate(-662.04 -226.085)" fill="#163560"/><path d="M955.566,534.9a39.1,39.1,0,0,0,3.361,5.858c2.611,3.769,6.638,8.123,11.693,8.983a11.1,11.1,0,0,0,6.947-1.3l.008,0c6.14-3.141,10.757-10.363,10.757-10.363a6.494,6.494,0,0,0-.689-5.708s-12.4,3.213-13.579,2.533-8.121-19.965-9.5-23.015a14.833,14.833,0,0,0-7.44-7.769Z" transform="translate(-788.823 -402.751)" fill="#739af0"/><path d="M972.983,656.262a15.483,15.483,0,0,0,11.693,8.983,11.1,11.1,0,0,0,6.947-1.3c-.24.036-6.372.909-8.816-4.13-2.493-5.141-5.189-13.3-8.893-10.583-1.6,1.174-1.527,4.093-.931,7.03" transform="translate(-802.879 -518.255)" fill="#5d81db"/><path d="M675.631,1416.679s-3.783,3.978-3.045,6.805,4.152,4.711,4.614,8.166,2.307,5.34,3.968,5.34h7.918s1.223-2.431-1.73-3.164-4.066-4.793-3.881-8.562a76.49,76.49,0,0,0-.277-8.794l-6.274-1.675Z" transform="translate(-555.144 -1130.313)" fill="#294a7f"/><path d="M871.505,1434.585s-1.361,16.854.3,17.8l21.256-.05s0-2.827-3.414-3.455-9.412-2.932-10.427-8.062-7.715-6.229-7.715-6.229" transform="translate(-718.998 -1146.124)" fill="#294a7f"/><path d="M814.48,546.312l-17.447-1.333-9.833-.753s-1.106-8.044-1.6-11.706c-.557-4.133-1.248-7.027-1.705-9.717a33.821,33.821,0,0,1-.47-3.974c-.317-6.175-3.138-4.653-3.138-4.653l8.9-20.383a36.844,36.844,0,0,1,23.244.967,85.7,85.7,0,0,1,5.72,17.289c2.265,10.2-3.672,34.262-3.672,34.262" transform="translate(-644.129 -393.395)" fill="#739af0"/><path d="M816.741,644.394l-12.543-.137s-1.107-8.044-1.6-11.706c-.557-4.133-1.248-7.027-1.706-9.716l-.015-.51s3.257-5.307,5.063-4.658-1.449,10.393,1.275,13.881c1.973,2.526,8.922,4.691,9.527,12.846" transform="translate(-661.126 -493.425)" fill="#5d81db"/><path d="M876.323,744.7s6.128,21.98,6.521,29.464-11.714,106.31-12.2,109.758c-.459,3.251-3.962,5.322-3.962,5.322a4.69,4.69,0,0,1-3.91.347c-3.19-1.038-4.2-2.281-4.2-2.281s-4.77-70.482-1.818-95.659a458.687,458.687,0,0,0,2.986-46.95Z" transform="translate(-706.459 -594.959)" fill="#ed7d2b"/><path d="M720.013,741.441s-9.348,14.453-10.219,24.223-1.367,44.088-3.224,53.613-8.678,27.853-8.678,57.56a5.441,5.441,0,0,0,2.9,2.61,21.43,21.43,0,0,0,2.549.812,3.866,3.866,0,0,0,4.482-2.451c4.612-10.7,19.3-45.209,20.055-52.373.533-5.069,5.171-38.621,15.289-58.308,2.429-4.727-2.409-16.29-2.409-16.29Z" transform="translate(-576.113 -592.355)" fill="#f99746"/><path d="M867.6,445.521a48.784,48.784,0,0,0,1.676-12.086l.56.117,9.421,1.978s-.214,3.143-.221,6.1c0,.025,0,.049,0,.074a27.089,27.089,0,0,1-.245,5.341c-.9,2.468-11.809.307-11.192-1.528" transform="translate(-716.186 -346.282)" fill="#ffb27d"/><path d="M889.956,435.995s-.214,3.143-.221,6.1c-5.272-.157-8.058-5.256-9.2-8.082Z" transform="translate(-726.885 -346.747)" fill="#e8945b"/><path d="M884.9,363.552s-12.473.237-12.482-8.716-1.624-14.952,6.339-15.482,9.514,2.884,10.148,5.872-.761,18.034-4.005,18.326" transform="translate(-720.072 -271.075)" fill="#ffb27d"/><path d="M865.469,331.251s-3.415,10.5-8.656,12.057-7.514-.065-7.514-.065a17.669,17.669,0,0,0,4.854-10.1s8.74-6.887,11.316-1.887" transform="translate(-701.099 -263.191)" fill="#163560"/><path d="M937.119,335.917a7.909,7.909,0,0,1,3.575,3.219,16.246,16.246,0,0,1,1.686,8.219s2.573-7.139-.318-11.178c-3.066-4.283-4.942-.261-4.942-.261" transform="translate(-773.596 -267.004)" fill="#163560"/><path d="M930.65,430.8s.215,1.055,2.493.892c0,0,1.912-.136,1.854-1.3a5.4,5.4,0,0,0-4.347.4" transform="translate(-768.255 -343.641)" fill="#fff"/><path d="M838.052,743.535s10.311-3.968,14.45,3.128c.878,1.506-5.59,2.252-9.047,1.724-.825-.126-6.662-1.478-6.662-1.478Z" transform="translate(-690.777 -593.145)" fill="#ffb27d"/><path d="M726.832,499.312s-7.069,1.473-11.9,12.1c-4.141,9.106-10.179,23.59-10.179,26.276s3.6,10.964,22.915,15.723c0,0,2-2.422,1.877-4.337,0,0-12.059-11.936-12.027-13.331.061-2.639,1.977-6.122,12.565-18.327,2.878-3.318-3.249-18.107-3.249-18.107" transform="translate(-581.774 -398.913)" fill="#739af0"/><path d="M845.27,701.325c-6.764-13.8-32.685-12.263-33.431-8.678s5.888,7.2,4.25,10.445c-2.881,5.709-10.59,1.746-12.731,6.558s12.9,25.127,26.815,23.936,21.861-18.465,15.1-32.261m-23.446,3.02a2.736,2.736,0,0,1-1.388,3.272,2.1,2.1,0,0,1-3.075-.843,2.736,2.736,0,0,1,1.388-3.272,2.1,2.1,0,0,1,3.075.843" transform="translate(-663.007 -551.398)" fill="#ffe3ca"/><path d="M865.941,830.83a3.625,3.625,0,0,1-.95-2.443,2.282,2.282,0,0,1,1.508-1.836,5.321,5.321,0,0,1,2.3-.136l1.413.124a1.769,1.769,0,0,1,.876.236,2.109,2.109,0,0,1,.569.722,3.405,3.405,0,0,1,.375.838c.816,3.226-4.683,4.378-6.091,2.5" transform="translate(-714.044 -660.195)" fill="#233862"/><path d="M1014.175,787.637a2.081,2.081,0,0,1-3.191-2.281,7.733,7.733,0,0,1,.8-2.49l.657-1.447a2.29,2.29,0,0,1,.534-.834,1.742,1.742,0,0,1,.8-.318,2.411,2.411,0,0,1,.816-.065c2.894.41,1.641,6.686-.417,7.435" transform="translate(-834.561 -623.312)" fill="#b7cfea"/><path d="M918.2,853.761a2.4,2.4,0,0,1,2.14-.634,10.753,10.753,0,0,1,1.117.465,5.094,5.094,0,0,1,1.862.762,3.183,3.183,0,0,1,.679,2.5,4.866,4.866,0,0,1-.345,1.631,3.093,3.093,0,0,1-3.83,1.619,4.644,4.644,0,0,1-2.739-3.034,2.968,2.968,0,0,1,1.117-3.3" transform="translate(-756.934 -681.537)" fill="#f78248"/><path d="M988.74,739.577a1.9,1.9,0,0,1,1.688-.5,8.512,8.512,0,0,1,.881.367,4.016,4.016,0,0,1,1.468.6,2.51,2.51,0,0,1,.535,1.968,3.833,3.833,0,0,1-.272,1.286,2.439,2.439,0,0,1-3.02,1.276,3.661,3.661,0,0,1-2.16-2.393,2.34,2.34,0,0,1,.88-2.605" transform="translate(-815.383 -590.43)" fill="#739af0"/><path d="M939.48,717.509a1.9,1.9,0,0,1,1.688-.5,8.453,8.453,0,0,1,.881.367,4.019,4.019,0,0,1,1.468.6,2.51,2.51,0,0,1,.535,1.968,3.828,3.828,0,0,1-.272,1.285,2.438,2.438,0,0,1-3.02,1.277,3.662,3.662,0,0,1-2.16-2.393,2.34,2.34,0,0,1,.88-2.605" transform="translate(-774.719 -572.799)" fill="#ebf3fa"/><path d="M980.108,841.434a2.909,2.909,0,0,1-.222-2.606,6.278,6.278,0,0,1,1.466-2.147,5.078,5.078,0,0,1,1.355-1.1,1.751,1.751,0,0,1,1.617-.044,1.513,1.513,0,0,1,.721,1.569c-.18.846-.993,1.484-1.341,2.258-.332.738-.328,1.618-.642,2.336-.283.647-.571,1.061-1.255,1.16-1.022.147-1.122-.632-1.7-1.421" transform="translate(-808.733 -667.384)" fill="#f99746"/><path d="M861.512,740.861a27.074,27.074,0,0,1,4.281-.757,20.162,20.162,0,0,1,3.708.937c.265.216-1.384,1.415-2.7,1.206-.9-.142-2.781,1.34-3.433,1.83s-1.852-3.216-1.852-3.216" transform="translate(-711.182 -591.279)" fill="#ffb27d"/><path d="M1084,573.911l-1.9,2.381-25.972-28.074a.789.789,0,0,1-.032-1,.49.49,0,0,1,.747-.052Z" transform="translate(-871.677 -437.025)" fill="#f99746"/><path d="M1195.472,673.694l1.9-2.381-2.417-2.38-1.688,2.38Z" transform="translate(-985.049 -534.427)" fill="#739af0"/><path d="M1207.792,679.778s1.478-1.01,4.052,1.038,4.414,1.343,4.414,1.343-2.207,2.4-4.843,2.613-4.614-.069-5.525-2.613Z" transform="translate(-995.467 -542.892)" fill="#163560"/><path d="M1154.329,650.332l.339-.048c1.21-.171,5.279-.752,5.959-.922.8-.2-.478,1.395-1.844,1.844s-.5,1.724-2.005,1.564-2.448-2.438-2.448-2.438" transform="translate(-952.903 -518.777)" fill="#ffb27d"/><path d="M1279.24,507.4h-87.4l13.712-128.689h87.4Z" transform="translate(-983.869 -302.56)" fill="#916140"/><path d="M1301.762,507.4h-87.4l13.712-128.689h87.4Z" transform="translate(-1002.461 -302.56)" fill="#d8a27d"/><path d="M1324.956,524.984H1247.81l12.352-115.924h77.146Z" transform="translate(-1030.072 -326.808)" fill="#e5bd9e"/><path d="M1353.261,689.1h-79.9l.692-6.492h79.9Z" transform="translate(-1051.165 -545.352)" fill="#d8a27d"/><path d="M1281.235,397.885l2.043-19.177h16.641Z" transform="translate(-1057.664 -302.56)" fill="#c6916d"/><path d="M1713.04,397.885l2.043-19.177h-16.641Z" transform="translate(-1402.071 -302.56)" fill="#c6916d"/><path d="M1230.994,942.6h-16.642l2.043-19.177Z" transform="translate(-1002.453 -737.745)" fill="#c6916d"/><path d="M1619.849,942.6h16.642l2.043-19.177Z" transform="translate(-1337.192 -737.745)" fill="#c6916d"/><path d="M1270.468,772.729h0a1.126,1.126,0,0,1-.982-1.4l34.732-185.447a1.907,1.907,0,0,1,1.785-1.659h1.086a1.514,1.514,0,0,1,1.317,1.9L1271.65,771.643a1.263,1.263,0,0,1-1.182,1.086" transform="translate(-1047.946 -466.748)" fill="#163560"/><path d="M1565.1,774.442h0a1.218,1.218,0,0,1-1.1-1.294l.57-185.576a1.484,1.484,0,0,1,1.388-1.568l.938.012a1.541,1.541,0,0,1,1.4,1.654l-2.277,185.745a.974.974,0,0,1-.922,1.026" transform="translate(-1291.094 -468.173)" fill="#163560"/><rect width="38.436" height="3.373" transform="translate(235.884 234.016)" fill="#163560"/><path d="M.054,2.828,174.81,0l-.054,2.934L0,5.762Z" transform="translate(250.737 235.201) rotate(-82.929)" fill="#163560"/><path d="M1477.327,643.408l-21.183-.01,1.467-3.373,19.718.01Z" transform="translate(-1202.052 -511.331)" fill="#163560"/><path d="M1555.695,875.594l-40.359-157.66a1.346,1.346,0,0,1,.028-.761l.814-2.395a.984.984,0,0,1,1.931.107l39.545,160.055a1.153,1.153,0,0,1-.981,1.5,1.051,1.051,0,0,1-.979-.843" transform="translate(-1250.881 -570.456)" fill="#163560"/><path d="M1281.089,1018.116h-84.556a.83.83,0,0,1-.765-.882,2.424,2.424,0,0,1,2.236-2.576h83.946a1.135,1.135,0,0,1,1.046,1.206v.055a2.068,2.068,0,0,1-1.907,2.2" transform="translate(-987.112 -810.634)" fill="#163560"/><rect width="15.742" height="2.555" transform="translate(264.683 73.594)" fill="#163560"/></g></g></g></svg>