<svg xmlns="http://www.w3.org/2000/svg" xmlns:xlink="http://www.w3.org/1999/xlink" width="232" height="230.391" viewBox="0 0 232 230.391"><defs><clipPath id="a"><rect width="232" height="230.391" fill="none"/></clipPath><clipPath id="b"><path d="M26.6,53.618C-4.42,101.474,3.8,169.381,42.259,203.675,62.235,221.49,84.8,225.266,93.028,226.533c50.577,7.79,108.9-21.09,130.794-72.643,14.269-33.6,12.625-75.271-6.5-105.183a104.628,104.628,0,0,0-21.282-24.147C168.137,1.555,136.391.244,128.108.031c-.92-.024-1.838-.035-2.76-.035C87.728,0,48.638,19.621,26.6,53.618" transform="translate(-7.612 0.004)" fill="none"/></clipPath><linearGradient id="c" x1="0.173" y1="0.836" x2="0.173" y2="0.836" gradientUnits="objectBoundingBox"><stop offset="0" stop-color="#dae3fe"/><stop offset="1" stop-color="#e9effd"/></linearGradient><clipPath id="d"><rect width="232" height="230.392" fill="none"/></clipPath><clipPath id="e"><rect width="155.074" height="146.496" fill="none"/></clipPath><clipPath id="f"><rect width="179.22" height="179.289" fill="none"/></clipPath><clipPath id="g"><rect width="50.577" height="178.794" fill="none"/></clipPath><clipPath id="h"><rect width="137.248" height="179.289" fill="none"/></clipPath><clipPath id="i"><rect width="164.906" height="0.854" fill="none"/></clipPath><clipPath id="j"><rect width="117.12" height="0.854" fill="none"/></clipPath><clipPath id="k"><rect width="179.22" height="0.854" fill="none"/></clipPath><clipPath id="m"><rect width="117.604" height="0.631" fill="none"/></clipPath><clipPath id="n"><path d="M1592.514,209.957l-22.78,1.844a2.961,2.961,0,0,0-2.722,2.951V236.19a2.961,2.961,0,0,0,2.961,2.961h21.381a2.961,2.961,0,0,0,2.955-2.783l1.4-23.282a2.961,2.961,0,0,0-2.951-3.138q-.121,0-.243.01" transform="translate(-1567.012 -209.947)" fill="none"/></clipPath><linearGradient id="o" x1="-3.196" y1="5.601" x2="-3.194" y2="5.601" gradientUnits="objectBoundingBox"><stop offset="0" stop-color="#ff928e"/><stop offset="1" stop-color="#fe7062"/></linearGradient><clipPath id="q"><rect width="20.817" height="18.993" fill="none"/></clipPath><clipPath id="r"><path d="M1116.076,482.087a4.122,4.122,0,0,0-4.122,4.122v19.616a4.122,4.122,0,0,0,4.315,4.118l23.169-1.089a4.122,4.122,0,0,0,3.929-4.117V486.209a4.122,4.122,0,0,0-4.122-4.122Z" transform="translate(-1111.954 -482.087)" fill="none"/></clipPath><linearGradient id="s" x1="-2.147" y1="4.731" x2="-2.145" y2="4.731" xlink:href="#o"/><clipPath id="u"><rect width="23.586" height="20.128" fill="none"/></clipPath><clipPath id="v"><path d="M103.519,925.282l-101.312.443A1.735,1.735,0,0,0,.487,927.4C.347,931.493,0,941.662,0,950.065v.269c0,6.9.241,12.547,1.019,12.514,1.751-.073,93.316,1.1,102.249,1.368a1.735,1.735,0,0,0,1.786-1.726l.216-35.462a1.736,1.736,0,0,0-1.736-1.746h-.016" transform="translate(0 -925.282)" fill="none"/></clipPath><linearGradient id="w" x1="0.018" y1="1.982" x2="0.019" y2="1.982" xlink:href="#o"/><clipPath id="y"><rect width="102.529" height="36.19" fill="none"/></clipPath><clipPath id="z"><rect width="40.237" height="3.473" fill="none"/></clipPath><clipPath id="ad"><path d="M616.909,998.357a5.435,5.435,0,1,0,10.454-2.086l-1.008.438a4.336,4.336,0,1,1-4.011-2.688q.11,0,.219.005v-1.1c-.072,0-.145,0-.219,0a5.435,5.435,0,0,0-5.435,5.435" transform="translate(-616.909 -992.922)" fill="none"/></clipPath><linearGradient id="ae" x1="-3.973" y1="11.765" x2="-3.966" y2="11.765" xlink:href="#o"/><clipPath id="af"><path d="M818.266,998.357a5.435,5.435,0,0,0,8.29,4.624l-.545-.956a4.336,4.336,0,1,1-2.31-8q.11,0,.219.005v-1.1c-.073,0-.146,0-.219,0a5.434,5.434,0,0,0-5.435,5.435" transform="translate(-818.266 -992.922)" fill="none"/></clipPath><linearGradient id="ag" x1="-5.408" y1="14.589" x2="-5.402" y2="14.589" xlink:href="#o"/><clipPath id="ah"><path d="M1021.789,998.357a5.434,5.434,0,0,0,9.91,3.082l-.89-.644a4.336,4.336,0,1,1-3.586-6.774c.073,0,.146,0,.219.005v-1.1c-.073,0-.146,0-.219,0a5.434,5.434,0,0,0-5.435,5.435" transform="translate(-1021.789 -992.922)" fill="none"/></clipPath><linearGradient id="ai" x1="-6.687" y1="12.672" x2="-6.68" y2="12.672" xlink:href="#o"/><clipPath id="ak"><rect width="47.056" height="13.752" fill="none"/></clipPath><clipPath id="al"><path d="M921.733,1125.88c-19.051,14.474-38.116,29.338-56.268,39.04s-14.7,39.78-12.563,47.855,11.7,19.8,28.96,21.58,62.335,5.527,96.391-10.739c29.1-13.9,34.276-64.176,34.289-88.448v-.189c0-4.048-.148-7.361-.35-9.643C1010.787,1109.413,993.8,1100,993.8,1100a24.931,24.931,0,0,0-13.064-3.4c-19.472,0-43.654,17.607-59.006,29.271" transform="translate(-851.15 -1096.609)" fill="none"/></clipPath><linearGradient id="am" x1="-0.184" y1="0.811" x2="-0.184" y2="0.811" gradientUnits="objectBoundingBox"><stop offset="0" stop-color="#4f52ff"/><stop offset="1" stop-color="#4042e2"/></linearGradient><clipPath id="an"><path d="M848.068,1999.331c-.388,1.02-2.973,8.548-1.9,8.378,14.358-2.268,24.987-11.8,24.987-11.8-.562-9.431-5.146-9.673-5.146-9.673-10.274,5.114-16.1,8.239-17.946,13.091" transform="translate(-845.911 -1986.239)" fill="none"/></clipPath><linearGradient id="ao" x1="-1.948" y1="2.122" x2="-1.945" y2="2.122" gradientUnits="objectBoundingBox"><stop offset="0" stop-color="#09005d"/><stop offset="1" stop-color="#1a0f91"/></linearGradient><clipPath id="ap"><path d="M937.738,1467.07a4.719,4.719,0,0,0,6.757,2.226,3.869,3.869,0,0,0,1.544-1.84l-1.148-27.6s25.325,22.15,29.727,26.424,26.777,1.669,21.233-12.74h-9.673s-29.689-32.789-49.161-36.1c0,0-13.555,17.3.722,49.631" transform="translate(-931.2 -1417.439)" fill="none"/></clipPath><linearGradient id="aq" x1="-0.719" y1="1.703" x2="-0.718" y2="1.703" xlink:href="#ao"/><clipPath id="ar"><path d="M581.95,2586.471c-.427,2.56.193,5.1,4.395,4.539,4.322-.576,9.535-3.231,12.911-5.192a34.348,34.348,0,0,0,5.684-6.1l-3.153-1.929a36.365,36.365,0,0,0-19.836,8.681" transform="translate(-581.835 -2577.79)" fill="none"/></clipPath><linearGradient id="as" x1="-1.707" y1="0.887" x2="-1.704" y2="0.887" xlink:href="#ao"/><clipPath id="au"><path d="M821.846,1937.431s-25.869,21.4-30.56,54.037c0,0-.779,2.4,3.9,2.811A89.8,89.8,0,0,0,821.02,1966c12.5-22.144,37.277-12.176,37.277-12.176,8.14-5.868,19.641-7.063,28.306-9.018l-19.458-7.87Z" transform="translate(-791.237 -1936.94)" fill="none"/></clipPath><linearGradient id="av" x1="-0.79" y1="0.873" x2="-0.789" y2="0.873" xlink:href="#ao"/><clipPath id="aw"><path d="M1230.445,1531.178l-8.5-1-2.005,3.2,19.936.635a54.528,54.528,0,0,0,26.07-25.142c.3-.607,5.27-10.873-6.732-11.8,0,0-4.876,24.438-28.769,34.107" transform="translate(-1219.94 -1497.071)" fill="none"/></clipPath><linearGradient id="ax" x1="-1.513" y1="1.932" x2="-1.511" y2="1.932" gradientUnits="objectBoundingBox"><stop offset="0" stop-color="#febbba"/><stop offset="1" stop-color="#ff928e"/></linearGradient><clipPath id="ay"><path d="M1666.933,1217.61c-.844.211-12.118,15.375-13.983,19.237a1.833,1.833,0,0,0,.716,2.377,63.993,63.993,0,0,1,6.593,4.991c-1.192,14.647-6.737,29.72-6.737,29.72l17.816,9.289,5.326-1.019c25.815-24.813,32.635-48.772,26.944-56.556-6.476-8.859-14.279-11.255-21.1-11.254-7.147,0-13.222,2.629-15.57,3.215" transform="translate(-1652.767 -1214.395)" fill="none"/></clipPath><linearGradient id="az" x1="-1.355" y1="1.577" x2="-1.354" y2="1.577" xlink:href="#o"/><clipPath id="ba"><path d="M1298.939,1634.584s-5.09-4.641-8.876-2.984-8.976,8.971-8.976,8.971h25.291s23.914-.843,35.864-15.344c-.961-5.074-3.841-8.106-8.2-11.552,0,0-15.406,18.242-35.1,20.909" transform="translate(-1281.087 -1613.675)" fill="none"/></clipPath><linearGradient id="bb" x1="-1.598" y1="1.937" x2="-1.596" y2="1.937" xlink:href="#ax"/><clipPath id="bc"><path d="M1897.95,1101.335l.8,9.794a1.833,1.833,0,0,0,1.179,1.574,12.559,12.559,0,0,0,11.684-1.174,1.236,1.236,0,0,0,.48-1.377l-3.371-11.243Z" transform="translate(-1897.95 -1098.91)" fill="none"/></clipPath><linearGradient id="bd" x1="-8.152" y1="7.07" x2="-8.147" y2="7.07" xlink:href="#ax"/><clipPath id="be"><path d="M1789.844,904.2s1.657,11.655,6.134,15.239,13.2.885,16.146-7.9l-5.87-15.023Z" transform="translate(-1789.844 -896.514)" fill="none"/></clipPath><linearGradient id="bf" x1="-4.514" y1="5.421" x2="-4.512" y2="5.421" xlink:href="#ax"/><clipPath id="bg"><path d="M1721.689,781.573c-1.043.782-1.875,1.564-2.616,1.456-2.845-.414-3.917-.2-4.354.023-.337.169-.294.338-.4.213-.8-.968,1.106-2.793-2.446-1.667-3.8,1.2-3.958,4.952-3.838,6.581a.577.577,0,0,1-.686.6c-9.779-1.837-6.031,8.077-2.331,10.047,3.8,2.021,10.241-1.373,14.533-3.683s3.864-.781,3.864-.781a15.059,15.059,0,0,1,1.382,4.655.577.577,0,0,0,.75.462l1.088-.351a.58.58,0,0,1,.712.327l2.507,5.974a.582.582,0,0,0,.968.167c3.257-3.665,3.489-10.163,3.5-11.653a.578.578,0,0,1,.261-.476c.98-.651,4.247-3.135,1.961-6-1.653-2.072-3.38-1.815-4.453-1.321a.575.575,0,0,1-.82-.549c.058-1.345-.487-3.5-3.992-5.048a4.923,4.923,0,0,0-2-.451,6.007,6.007,0,0,0-3.59,1.466" transform="translate(-1701.119 -780.107)" fill="none"/></clipPath><linearGradient id="bh" x1="-4.36" y1="3.888" x2="-4.358" y2="3.888" xlink:href="#ao"/><clipPath id="bi"><path d="M1994.994,977.292l.586,3.119c2.665-.849,5.6-5.306,3.271-7.331a1.415,1.415,0,0,0-.926-.4c-1.8,0-2.931,4.616-2.931,4.616" transform="translate(-1994.994 -972.676)" fill="none"/></clipPath><linearGradient id="bj" x1="-17.831" y1="18.369" x2="-17.822" y2="18.369" xlink:href="#ax"/><clipPath id="bk"><path d="M905.3,1455.464l12.695,36.166a3.183,3.183,0,0,0,2.683,2.113l15.1,1.677,1.857-1.174-11.356-37.87a3.873,3.873,0,0,0-3.445-2.751l-15.332-1.049c-.052,0-.1-.005-.154-.005a2.175,2.175,0,0,0-2.046,2.9" transform="translate(-905.172 -1452.569)" fill="none"/></clipPath><linearGradient id="bl" x1="-1.193" y1="2.237" x2="-1.191" y2="2.237" gradientUnits="objectBoundingBox"><stop offset="0" stop-color="#4042e2"/><stop offset="1" stop-color="#4f52ff"/></linearGradient><clipPath id="bn"><path d="M1290.229,1914.734l-32.17,1.626a1.442,1.442,0,0,0,.072,2.882l.074,0,32.17-1.626a1.443,1.443,0,0,0-.051-2.883c-.031,0-.063,0-.095,0" transform="translate(-1256.69 -1914.731)" fill="none"/></clipPath><linearGradient id="bo" x1="-2.963" y1="14.88" x2="-2.96" y2="14.88" xlink:href="#bl"/><clipPath id="bp"><path d="M1742.621,1380.443c-.027.09-2.641,9.082-2.619,15.878a.255.255,0,0,0,.51,0c-.022-6.721,2.572-15.643,2.6-15.733a.256.256,0,0,0-.173-.317.269.269,0,0,0-.072-.01.254.254,0,0,0-.245.184" transform="translate(-1740.003 -1380.26)" fill="none"/></clipPath><linearGradient id="bq" x1="-45.513" y1="7.103" x2="-45.487" y2="7.103" gradientUnits="objectBoundingBox"><stop offset="0" stop-color="#e1473d"/><stop offset="1" stop-color="#e9605a"/></linearGradient><clipPath id="br"><path d="M1925.87,1428.743c-2.392,6.06-9.382,14.946-9.453,15.035a.256.256,0,0,0,.4.317c.07-.09,7.107-9.034,9.526-15.164a.255.255,0,1,0-.474-.188" transform="translate(-1916.363 -1428.582)" fill="none"/></clipPath><linearGradient id="bs" x1="-15.789" y1="7.167" x2="-15.781" y2="7.167" xlink:href="#bq"/><clipPath id="bt"><path d="M2040.308,1575.779c-.061.12-6.189,11.962-16.086,16.314l-1.049-1.482a.255.255,0,1,0-.417.294l1.288,1.82.19-.081c10.179-4.358,16.467-16.511,16.529-16.633a.255.255,0,0,0-.112-.344.252.252,0,0,0-.115-.028.258.258,0,0,0-.229.139" transform="translate(-2022.709 -1575.64)" fill="none"/></clipPath><linearGradient id="bu" x1="-9.242" y1="5.834" x2="-9.237" y2="5.834" xlink:href="#bq"/></defs><g clip-path="url(#a)"><g transform="translate(0.632 0)"><g clip-path="url(#b)"><rect width="336.044" height="336.813" transform="matrix(0.659, -0.753, 0.753, 0.659, -128.159, 132.717)" fill="url(#c)"/></g></g><g transform="translate(0 0)"><g clip-path="url(#d)"><path d="M307.808,444.744c-2.217,50.51-48.212,89.515-102.732,87.122s-96.92-45.28-94.7-95.789,48.212-89.515,102.732-87.122,96.92,45.28,94.7,95.789" transform="translate(-101.14 -319.911)" fill="#91b3fa"/><g transform="translate(25.065 40.647)" opacity="0.24"><g clip-path="url(#e)"><path d="M457.219,563.228c0,40.454-34.715,73.248-77.537,73.248s-77.537-32.794-77.537-73.248,34.715-73.248,77.537-73.248,77.537,32.794,77.537,73.248" transform="translate(-302.144 -489.98)" fill="#bdd0fb"/></g></g><g transform="translate(18.076 31.332)" opacity="0.68"><g clip-path="url(#f)"><g transform="translate(64.54 0.494)" style="mix-blend-mode:soft-light;isolation:isolate"><g clip-path="url(#g)"><path d="M1046.487,472.765a276.457,276.457,0,0,1-3.976,48.242c-.72,3.976-1.556,7.933-2.551,11.852a114.239,114.239,0,0,1-3.561,11.6,54.98,54.98,0,0,1-5.313,10.932,21.826,21.826,0,0,1-3.987,4.651,11.36,11.36,0,0,1-2.61,1.682,7.816,7.816,0,0,1-3.047.718,7.688,7.688,0,0,1-3.08-.566,10.673,10.673,0,0,1-2.671-1.59,20.724,20.724,0,0,1-4.074-4.578,53.193,53.193,0,0,1-5.39-10.894,111.657,111.657,0,0,1-3.6-11.587c-1.005-3.917-1.849-7.872-2.575-11.847-1.45-7.951-2.438-15.979-3.105-24.029s-.994-16.128-1.035-24.206c-.02-4.038.09-8.076.234-12.112s.373-8.068.671-12.1c.6-8.053,1.489-16.089,2.816-24.058.666-3.984,1.441-7.951,2.375-11.882a114.267,114.267,0,0,1,3.372-11.645c.678-1.906,1.419-3.791,2.265-5.632a41.148,41.148,0,0,1,2.9-5.343,19.925,19.925,0,0,1,3.985-4.607,10.178,10.178,0,0,1,2.635-1.578,7.432,7.432,0,0,1,3.029-.538,8.032,8.032,0,0,1,2.994.7,11.688,11.688,0,0,1,2.6,1.624,22.215,22.215,0,0,1,4.071,4.527,54.522,54.522,0,0,1,5.583,10.767,110.423,110.423,0,0,1,3.826,11.5c1.078,3.9,1.99,7.834,2.78,11.8a253.117,253.117,0,0,1,4.441,48.191m-1.2,0c.015-8.045-.291-16.092-.959-24.109a232.1,232.1,0,0,0-3.146-23.916c-.743-3.952-1.608-7.882-2.638-11.768a109.713,109.713,0,0,0-3.677-11.474,54,54,0,0,0-5.408-10.718,21.764,21.764,0,0,0-3.938-4.48,11.3,11.3,0,0,0-2.5-1.6,7.466,7.466,0,0,0-2.849-.695,7,7,0,0,0-2.874.541,9.779,9.779,0,0,0-2.514,1.545,19.49,19.49,0,0,0-3.843,4.546,40.623,40.623,0,0,0-2.8,5.307c-.817,1.832-1.532,3.709-2.184,5.608a113.6,113.6,0,0,0-3.225,11.611c-.886,3.922-1.615,7.88-2.234,11.854-1.234,7.95-2.036,15.966-2.543,24s-.689,16.081-.675,24.127q-.032,12.067.845,24.114c.6,8.022,1.526,16.023,2.907,23.946.692,3.961,1.5,7.9,2.47,11.8a110.761,110.761,0,0,0,3.482,11.525,52.469,52.469,0,0,0,5.225,10.776,20.053,20.053,0,0,0,3.9,4.455,10.022,10.022,0,0,0,2.493,1.513,6.878,6.878,0,0,0,2.82.536,7.173,7.173,0,0,0,2.792-.683,10.7,10.7,0,0,0,2.442-1.6,21.15,21.15,0,0,0,3.818-4.532,54.227,54.227,0,0,0,5.147-10.817,113.338,113.338,0,0,0,3.441-11.537c.958-3.9,1.757-7.845,2.442-11.806,1.372-7.924,2.284-15.927,2.89-23.948s.9-16.07.894-24.116" transform="translate(-995.91 -383.649)" fill="#fff"/></g></g><g transform="translate(18.599)" style="mix-blend-mode:soft-light;isolation:isolate"><g clip-path="url(#h)"><path d="M579.359,467.3a117.7,117.7,0,0,1-4.176,30.826,99.248,99.248,0,0,1-12.9,28.268,81.4,81.4,0,0,1-9.851,12.063,69.1,69.1,0,0,1-12.126,9.762,58.455,58.455,0,0,1-14.148,6.469,52.916,52.916,0,0,1-30.764.013,58.47,58.47,0,0,1-14.159-6.458A69.159,69.159,0,0,1,469.1,538.49a81.469,81.469,0,0,1-9.87-12.06A99.394,99.394,0,0,1,446.3,498.151a111.964,111.964,0,0,1-3.131-15.284,114.936,114.936,0,0,1,.01-31.13,111.872,111.872,0,0,1,3.141-15.28A99.359,99.359,0,0,1,459.264,408.2a81.421,81.421,0,0,1,9.871-12.047,68.937,68.937,0,0,1,12.139-9.737,58.706,58.706,0,0,1,14.148-6.435,52.541,52.541,0,0,1,30.716.013,58.663,58.663,0,0,1,14.137,6.446,68.884,68.884,0,0,1,12.122,9.744,81.374,81.374,0,0,1,9.852,12.05,99.209,99.209,0,0,1,12.914,28.248,117.7,117.7,0,0,1,4.2,30.821m-1.37,0a116.4,116.4,0,0,0-4.008-30.493,98.813,98.813,0,0,0-12.487-28.074,80.547,80.547,0,0,0-9.628-12.027,67.265,67.265,0,0,0-11.91-9.765,57.543,57.543,0,0,0-13.968-6.457,51.243,51.243,0,0,0-30.41.013,57.5,57.5,0,0,0-13.957,6.468,67.223,67.223,0,0,0-11.893,9.772,80.489,80.489,0,0,0-9.609,12.03,98.665,98.665,0,0,0-12.453,28.064,112.727,112.727,0,0,0-2.994,15.1,117.469,117.469,0,0,0,.01,30.73,112.658,112.658,0,0,0,3,15.1,98.624,98.624,0,0,0,12.471,28.044,80.429,80.429,0,0,0,9.61,12.016,66.994,66.994,0,0,0,11.889,9.755,57.732,57.732,0,0,0,13.946,6.444,50.879,50.879,0,0,0,30.362.014,57.746,57.746,0,0,0,13.957-6.434,67.064,67.064,0,0,0,11.906-9.748,80.488,80.488,0,0,0,9.629-12.014,98.767,98.767,0,0,0,12.5-28.055,116.384,116.384,0,0,0,4.028-30.487" transform="translate(-442.111 -377.692)" fill="#fff"/></g></g><g transform="translate(7.157 53.787)" style="mix-blend-mode:soft-light;isolation:isolate"><g clip-path="url(#i)"><path d="M304.267,1026.4l20.595-.166,20.595-.094,41.189-.076,41.189.084,20.595.1,20.595.18a.06.06,0,0,1,0,.121l-20.595.18-20.595.1-41.189.084-41.189-.076-20.595-.094-20.595-.166a.09.09,0,0,1,0-.18" transform="translate(-304.178 -1026.067)" fill="#fff"/></g></g><g transform="translate(31.05 19.292)" style="mix-blend-mode:soft-light;isolation:isolate"><g clip-path="url(#j)"><path d="M592.285,610.591c4.874-.077,9.748-.11,14.622-.166l14.622-.094c4.874-.04,9.748-.036,14.622-.048l14.622-.028,29.243.084,14.622.1c4.874.061,9.748.1,14.622.18a.06.06,0,0,1,0,.121c-4.874.083-9.748.118-14.622.18l-14.622.1-29.243.084-14.622-.028c-4.874-.012-9.748-.008-14.622-.048l-14.622-.094c-4.874-.056-9.748-.089-14.622-.166a.09.09,0,0,1,0-.18" transform="translate(-592.196 -610.254)" fill="#fff"/></g></g><g transform="translate(0 88.281)" style="mix-blend-mode:soft-light;isolation:isolate"><g clip-path="url(#k)"><path d="M217.993,1442.215l22.384-.166,22.384-.095,44.768-.076,44.768.084,22.384.1,22.384.18a.06.06,0,0,1,0,.121l-22.384.179-22.384.1-44.768.084-44.768-.076-22.384-.095-22.384-.166a.09.09,0,0,1,0-.18" transform="translate(-217.904 -1441.878)" fill="#fff"/></g></g><g transform="translate(7.157 122.775)" style="mix-blend-mode:soft-light;isolation:isolate"><g clip-path="url(#i)"><path d="M304.267,1858.028l20.595-.166,20.595-.094,41.189-.076,41.189.084,20.595.1,20.595.18a.06.06,0,0,1,0,.121l-20.595.18-20.595.1-41.189.083-41.189-.076-20.595-.094-20.595-.166a.09.09,0,0,1,0-.18" transform="translate(-304.178 -1857.691)" fill="#fff"/></g></g><g transform="translate(33.77 157.38)" style="mix-blend-mode:soft-light;isolation:isolate"><g clip-path="url(#m)"><path d="M742.272,2275.474H625.3a.316.316,0,1,1,0-.631H742.272a.316.316,0,1,1,0,.631" transform="translate(-624.984 -2274.843)" fill="#fff"/></g></g></g></g></g></g><g transform="translate(129.993 17.416)"><g clip-path="url(#n)"><rect width="39.069" height="38.891" transform="matrix(0.452, -0.892, 0.892, 0.452, -11.777, 23.234)" fill="url(#o)"/></g></g><g transform="translate(0 0)"><g clip-path="url(#d)"><g transform="translate(133.736 23.455)" opacity="0.73"><g clip-path="url(#q)"><path d="M1614.4,301.725a2.264,2.264,0,0,1-2.266-2.264V285.716a.7.7,0,0,1,1.4,0V299.46a.86.86,0,0,0,.911.859l16.288-.97a.862.862,0,0,0,.81-.859V285a.861.861,0,0,0-.946-.856l-13.549,1.342a.86.86,0,0,0-.612,1.361l5.167,7.132a.853.853,0,0,0,.69.356h.008a.852.852,0,0,0,.688-.344l5.692-7.584a.7.7,0,1,1,1.123.842l-5.692,7.584a2.2,2.2,0,0,1-1.83.905,2.244,2.244,0,0,1-1.815-.936l-5.167-7.132a2.264,2.264,0,0,1,1.61-3.582l13.549-1.342A2.265,2.265,0,0,1,1632.95,285V298.49a2.267,2.267,0,0,1-2.13,2.26l-16.288.97c-.044,0-.089,0-.134,0" transform="translate(-1612.133 -282.732)" fill="#fff"/></g></g></g></g><g transform="translate(92.243 39.992)"><g clip-path="url(#r)"><rect width="40.774" height="41.694" transform="matrix(0.561, -0.828, 0.828, 0.561, -12.989, 19.161)" fill="url(#s)"/></g></g><g transform="translate(0 0)"><g clip-path="url(#d)"><g transform="translate(95.967 43.175)" opacity="0.73"><g clip-path="url(#u)"><path d="M1157.041,531.3c-.783-4.591.877-7.141,2.408-8.474,2.881-2.507,8.017-3.086,13.088-1.477,4.969,1.578,8.472,6.145,7.809,10.181-.263,1.6-1.623,5.1-8.436,5.655a33.676,33.676,0,0,0,5.147,2.032h0a.688.688,0,0,1-.168,1.352c-.2,0-.454.008-.753.008-4.238,0-17.632-.688-19.1-9.277m19.681,9.107h0Zm.14-1.075h0Zm-7.371-3.313c5.618.118,9.128-1.607,9.635-4.69.558-3.4-2.631-7.427-6.963-8.8-3.825-1.213-8.989-1.3-11.9,1.232-1.878,1.634-2.551,4.1-2,7.333,1.085,6.365,9.984,7.851,15.244,8.169a47.4,47.4,0,0,1-4.324-2.083l-2.159-1.2Z" transform="translate(-1156.84 -520.451)" fill="#fff"/></g></g></g></g><g transform="translate(0 76.758)"><g clip-path="url(#v)"><rect width="109.321" height="90.528" transform="matrix(0.834, -0.551, 0.551, 0.834, -17.917, 11.832)" fill="url(#w)"/></g></g><g transform="translate(0 0)"><g clip-path="url(#d)"><g transform="translate(1.37 78.131)" opacity="0.73"><g clip-path="url(#y)"><path d="M118.462,978.02h-.012c-5.709-.17-60.425-.853-86.721-1.181-7.689-.1-13.146-.164-14.6-.184l-.136,0-.024-.134c-.621-3.506-.611-15.227.031-33.9a.363.363,0,0,1,.36-.35l101.313-.443a.363.363,0,0,1,.261.107.355.355,0,0,1,.106.258l-.216,35.463a.363.363,0,0,1-.361.362M17.269,976.327c1.637.022,7,.089,14.464.182,26.3.328,81.014,1.011,86.726,1.182h.01a.036.036,0,0,0,.025-.036l.216-35.463-.037-.2v.164L17.362,942.6a.034.034,0,0,0-.034.033c-.633,18.414-.653,30.051-.058,33.693" transform="translate(-16.51 -941.83)" fill="#fff"/></g></g><g transform="translate(6.542 84.623)" opacity="0.64"><g clip-path="url(#z)"><path d="M78.857,1021.828h0c0,.959.32,1.736.715,1.736h38.808c.395,0,.715-.778.715-1.736s-.32-1.737-.715-1.737H79.572c-.395,0-.715.778-.715,1.737" transform="translate(-78.857 -1020.091)" fill="#fff"/></g></g><g transform="translate(6.542 90.543)" opacity="0.64"><g clip-path="url(#z)"><path d="M78.857,1093.182h0c0,.959.32,1.736.715,1.736h38.808c.395,0,.715-.777.715-1.736s-.32-1.736-.715-1.736H79.572c-.395,0-.715.778-.715,1.736" transform="translate(-78.857 -1091.446)" fill="#fff"/></g></g><g transform="translate(6.542 96.462)" opacity="0.64"><g clip-path="url(#z)"><path d="M78.857,1164.539h0c0,.959.32,1.736.715,1.736h38.808c.395,0,.715-.778.715-1.736s-.32-1.736-.715-1.736H79.572c-.395,0-.715.777-.715,1.736" transform="translate(-78.857 -1162.803)" fill="#fff"/></g></g><g transform="translate(6.542 102.381)" opacity="0.64"><g clip-path="url(#z)"><path d="M78.857,1235.893h0c0,.959.32,1.736.715,1.736h38.808c.395,0,.715-.777.715-1.736s-.32-1.736-.715-1.736H79.572c-.395,0-.715.778-.715,1.736" transform="translate(-78.857 -1234.157)" fill="#fff"/></g></g><path d="M614.546,981.144a6.751,6.751,0,1,1-6.751-6.751,6.751,6.751,0,0,1,6.751,6.751" transform="translate(-551.185 -893.561)" fill="#fff"/><path d="M816.789,981.144a6.751,6.751,0,1,1-6.751-6.751,6.751,6.751,0,0,1,6.751,6.751" transform="translate(-736.65 -893.561)" fill="#fff"/><path d="M1019.033,983.808a6.751,6.751,0,1,1-6.751-6.751,6.751,6.751,0,0,1,6.751,6.751" transform="translate(-922.117 -896.004)" fill="#fff"/></g></g><g transform="translate(51.176 82.369)"><g clip-path="url(#ad)"><rect width="12.657" height="12.657" transform="translate(-1.935 10.513) rotate(-79.57)" fill="url(#ae)"/></g></g><g transform="translate(67.88 82.369)"><g clip-path="url(#af)"><rect width="12.19" height="10.121" transform="translate(-1.935 10.513) rotate(-79.57)" fill="url(#ag)"/></g></g><g transform="translate(84.764 82.369)"><g clip-path="url(#ah)"><rect width="12.484" height="11.714" transform="translate(-1.935 10.513) rotate(-79.57)" fill="url(#ai)"/></g></g><g transform="translate(0 0)"><g clip-path="url(#d)"><g transform="translate(49.86 97.193)" opacity="0.64"><g clip-path="url(#ak)"><path d="M613.3,1171.616h-11a1.25,1.25,0,1,0,0,2.5h11a1.25,1.25,0,0,0,0-2.5" transform="translate(-601.044 -1171.616)" fill="#fff"/><path d="M815.539,1171.616h-11a1.25,1.25,0,0,0,0,2.5h11a1.25,1.25,0,0,0,0-2.5" transform="translate(-786.511 -1171.616)" fill="#fff"/><path d="M1006.782,1174.117h11a1.25,1.25,0,0,0,0-2.5h-11a1.25,1.25,0,1,0,0,2.5" transform="translate(-971.977 -1171.616)" fill="#fff"/><path d="M613.3,1218.5h-11a1.25,1.25,0,0,0-1.25,1.25v7.363a1.251,1.251,0,0,0,1.25,1.25h11a1.25,1.25,0,0,0,1.25-1.25v-7.363a1.25,1.25,0,0,0-1.25-1.25" transform="translate(-601.044 -1214.615)" fill="#fff"/><path d="M815.539,1218.5h-11a1.25,1.25,0,0,0-1.25,1.25v7.363a1.25,1.25,0,0,0,1.25,1.25h11a1.25,1.25,0,0,0,1.25-1.25v-7.363a1.25,1.25,0,0,0-1.25-1.25" transform="translate(-786.511 -1214.615)" fill="#fff"/><path d="M1017.783,1218.5h-11a1.25,1.25,0,0,0-1.25,1.25v7.363a1.25,1.25,0,0,0,1.25,1.25h11a1.251,1.251,0,0,0,1.25-1.25v-7.363a1.25,1.25,0,0,0-1.25-1.25" transform="translate(-971.977 -1214.615)" fill="#fff"/></g></g></g></g><g transform="translate(70.608 90.97)"><g clip-path="url(#al)"><rect width="218.26" height="218.014" transform="matrix(0.713, -0.701, 0.701, 0.713, -75.465, 70.502)" fill="url(#am)"/></g></g><g transform="translate(70.173 164.771)"><g clip-path="url(#an)"><rect width="33.656" height="33.792" transform="matrix(0.692, -0.722, 0.722, 0.692, -11.627, 11.29)" fill="url(#ao)"/></g></g><g transform="translate(77.249 117.585)"><g clip-path="url(#ap)"><rect width="89.022" height="71.597" transform="translate(-20.979 3.515) rotate(-14.868)" fill="url(#aq)"/></g></g><g transform="translate(48.267 213.843)"><g clip-path="url(#ar)"><rect width="27.03" height="24.963" transform="matrix(0.806, -0.592, 0.592, 0.806, -6.885, 4.824)" fill="url(#as)"/></g></g><g transform="translate(0 0)"><g clip-path="url(#d)"><path d="M826.442,2090.335c2.5.808,3.6,4.346,9.932,2.007a56.086,56.086,0,0,0,13.033-6.866c.052.456.1.933.127,1.441,0,0-11.207,10.66-25.565,12.928a1.429,1.429,0,0,1-1.544-1.925,36.067,36.067,0,0,1,4.017-7.584" transform="translate(-754.112 -1912.473)" fill="#7d97f4"/><path d="M540.553,2678.243a33.446,33.446,0,0,1,3.054-3.033c-.427,2.56.193,5.1,4.394,4.539,4.322-.576,9.535-3.232,12.911-5.192-4.231,3.609-10.669,7.439-18.795,7.214a2.131,2.131,0,0,1-1.564-3.528" transform="translate(-495.226 -2452.686)" fill="#7d97f4"/></g></g><g transform="translate(65.638 160.681)"><g clip-path="url(#au)"><rect width="87.564" height="110.148" transform="translate(-19.664 50.197) rotate(-69.334)" fill="url(#av)"/></g></g><g transform="translate(101.201 124.191)"><g clip-path="url(#aw)"><rect width="63.018" height="61.272" transform="translate(-18.195 15.3) rotate(-40.061)" fill="url(#ax)"/></g></g><g transform="translate(137.107 100.741)"><g clip-path="url(#ay)"><rect width="89.077" height="88.395" transform="translate(-34.536 37.163) rotate(-47.291)" fill="url(#az)"/></g></g><g transform="translate(106.274 133.864)"><g clip-path="url(#ba)"><rect width="65.243" height="57.802" transform="translate(-12.813 9.366) rotate(-36.165)" fill="url(#bb)"/></g></g><g transform="translate(157.447 91.161)"><g clip-path="url(#bc)"><rect width="19.025" height="19.979" transform="matrix(0.935, -0.355, 0.355, 0.935, -5.291, 2.009)" fill="url(#bd)"/></g></g><g transform="translate(148.478 74.371)"><g clip-path="url(#be)"><rect width="31.832" height="29.013" transform="translate(-7.36 24.276) rotate(-73.133)" fill="url(#bf)"/></g></g><g transform="translate(141.118 64.715)"><g clip-path="url(#bg)"><rect width="32.551" height="45.096" transform="translate(-7.936 25.044) rotate(-80.056)" fill="url(#bh)"/></g></g><g transform="translate(165.497 80.689)"><g clip-path="url(#bi)"><rect width="9.197" height="8.162" transform="translate(-2.148 7.084) rotate(-73.133)" fill="url(#bj)"/></g></g><g transform="translate(75.09 120.499)"><g clip-path="url(#bk)"><rect width="53.833" height="50.935" transform="matrix(0.547, -0.837, 0.837, 0.547, -20.006, 30.007)" fill="url(#bl)"/></g></g><g transform="translate(0 0)"><g clip-path="url(#d)"><path d="M1037.545,1608.108c.848,1.711,2.312,2.714,3.27,2.239s1.048-2.247.2-3.958-2.312-2.714-3.27-2.239-1.048,2.247-.2,3.958" transform="translate(-950.941 -1470.968)" fill="#91b3fa"/></g></g><g transform="translate(104.25 158.839)"><g clip-path="url(#bn)"><rect width="35.169" height="4.819" transform="translate(-0.078 0) rotate(-0.503)" fill="url(#bo)"/></g></g><g transform="translate(144.344 114.501)"><g clip-path="url(#bp)"><rect width="3.171" height="16.315" transform="translate(-0.023)" fill="url(#bq)"/></g></g><g transform="translate(158.974 118.51)"><g clip-path="url(#br)"><rect width="10.067" height="15.61" transform="translate(-0.032 0)" fill="url(#bs)"/></g></g><g transform="translate(167.796 130.709)"><g clip-path="url(#bt)"><rect width="18.152" height="17.086" transform="translate(-0.034 0)" fill="url(#bu)"/></g></g><g transform="translate(0 0)"><g clip-path="url(#d)"><path d="M2664.638,1694s18.528-42.8,4.5-87.9a.35.35,0,0,0-.651.071c-3.382,27.274-4.39,56.811-3.849,87.827" transform="translate(-2443.464 -1472.689)" fill="#91b3fa"/><path d="M2664.415,1820.513a.242.242,0,0,1-.065-.009.238.238,0,0,1-.164-.294c3.274-11.631,4.52-31.434,4.989-46,.509-15.788.238-28.989.235-29.121a.238.238,0,0,1,.233-.243h0a.238.238,0,0,1,.238.233c0,.131.273,13.346-.235,29.146-.47,14.59-1.72,34.434-5.007,46.112a.237.237,0,0,1-.229.173" transform="translate(-2443.167 -1600.103)" fill="#bdd0fb"/><path d="M2495.312,1413.287s11.446-52.519-10.186-105.665a.332.332,0,0,0-.642.128c1.167,32.916,5.1,68.391,10.827,105.537" transform="translate(-2278.381 -1198.952)" fill="#91b3fa"/><path d="M2530.019,1564.624H2530a.238.238,0,0,1-.214-.259c2.57-27.116-7.222-89.787-7.321-90.417a.238.238,0,1,1,.47-.074c.1.63,9.9,63.36,7.325,90.536a.238.238,0,0,1-.237.216" transform="translate(-2313.205 -1351.42)" fill="#bdd0fb"/><path d="M2345.7,1791.634s5.484-45.815-21.758-87.046c-.178-.269-.674-.1-.619.206,4.8,27.425,12.6,56.571,22.377,86.839" transform="translate(-2130.585 -1563.058)" fill="#91b3fa"/><path d="M2396.583,1913.035a.238.238,0,0,1-.238-.234c-.243-12.08-4.915-31.738-8.792-46.1-4.2-15.572-8.4-28.449-8.445-28.578a.238.238,0,1,1,.452-.148c.042.128,4.246,13.015,8.452,28.6,3.885,14.39,8.566,34.091,8.81,46.22a.238.238,0,0,1-.233.243Z" transform="translate(-2181.735 -1685.352)" fill="#bdd0fb"/><path d="M2424.065,2451.067h25.183a2.566,2.566,0,0,1,2.5,3.144c-1.611,6.981-3.542,14.063-7.493,21.252a4.152,4.152,0,0,1-3.635,2.161H2432.4a4.051,4.051,0,0,1-3.568-2.134,72.584,72.584,0,0,1-7.715-20.853,3,3,0,0,1,2.945-3.571" transform="translate(-2220.225 -2247.736)" fill="#7d97f4"/></g></g></g></svg>