<svg xmlns="http://www.w3.org/2000/svg" width="136" height="136" viewBox="0 0 136 136"><path d="M123.671,0H12.329A12.329,12.329,0,0,0,0,12.329V123.671A12.329,12.329,0,0,0,12.329,136H123.671A12.329,12.329,0,0,0,136,123.671V12.329A12.329,12.329,0,0,0,123.671,0" fill="#dc395f"/><path d="M78.225,66.1a8.187,8.187,0,1,0-8.307-8.188A8.213,8.213,0,0,0,78.225,66.1" transform="translate(-32.774 -23.31)" fill="#fff"/><path d="M50.111,130.122a28.141,28.141,0,0,0-.733,6.15c0,7.21,3.91,12,12.218,12,6.891,0,12.476-4.092,16.5-10.7l-2.456,9.856H89.32l7.82-31.364C99.095,108.12,102.882,104,108.625,104c4.52,0,7.33,2.811,7.33,7.452a14.635,14.635,0,0,1-.611,4.4l-4.032,14.417a21.669,21.669,0,0,0-.854,6.109c0,6.844,4.031,11.85,12.461,11.85,7.209,0,12.95-4.64,16.127-15.759l-5.375-2.075c-2.688,7.449-5.01,8.8-6.842,8.8s-2.811-1.221-2.811-3.663a16.208,16.208,0,0,1,.611-3.789l3.911-14.045a30.976,30.976,0,0,0,1.344-8.91c0-10.507-6.354-15.99-14.05-15.99-7.208,0-14.539,6.5-18.2,13.344l2.687-12.282H79.425l-2.932,10.818h9.774l-6.019,24.1c-4.727,10.507-13.409,10.678-14.5,10.433-1.789-.4-2.933-1.083-2.933-3.407a23.038,23.038,0,0,1,.855-5.591l9.164-36.35H49.623L46.69,104.668h9.651l-6.231,25.454" transform="translate(-21.886 -43.494)" fill="#fff"/></svg>