<svg xmlns="http://www.w3.org/2000/svg" width="136" height="132.6" viewBox="0 0 136 132.6"><path d="M24.083,0h87.833A24.063,24.063,0,0,1,136,24.083v84.433A24.063,24.063,0,0,1,111.917,132.6H24.083A24.063,24.063,0,0,1,0,108.517V24.083A24.063,24.063,0,0,1,24.083,0Z" fill="#470137"/><g transform="translate(19.811 29.061)"><path d="M86.663,60.85l-17,28.05L87.8,118.65a.975.975,0,0,1,.113.68c-.057.227-.283.057-.623.113H74.31c-.907,0-1.53-.057-1.927-.623-1.19-2.38-2.437-4.7-3.627-7.083-1.19-2.323-2.493-4.7-3.853-7.14s-2.72-4.873-4.08-7.367H60.71c-1.19,2.437-2.493,4.873-3.8,7.31s-2.607,4.873-3.853,7.253c-1.3,2.38-2.607,4.817-3.91,7.14-.227.567-.68.623-1.3.623H35.38c-.227,0-.4.113-.4-.17a.787.787,0,0,1,.113-.623l17.623-28.9L35.55,60.793c-.17-.227-.227-.453-.113-.567A.657.657,0,0,1,36,60H48.866a3.344,3.344,0,0,1,.793.113,1.607,1.607,0,0,1,.567.51c1.077,2.437,2.323,4.873,3.627,7.31,1.36,2.437,2.663,4.817,4.08,7.2,1.36,2.38,2.607,4.76,3.8,7.2h.113c1.19-2.493,2.437-4.93,3.683-7.31s2.55-4.76,3.853-7.14,2.55-4.817,3.8-7.14a.964.964,0,0,1,.34-.567,1.081,1.081,0,0,1,.737-.113H86.21a.522.522,0,0,1,.623.4c.057.057-.057.283-.17.4Z" transform="translate(-34.961 -55.061)" fill="#ff61f6"/><path d="M154.155,116.857a28.172,28.172,0,0,1-12.183-2.55,19.756,19.756,0,0,1-8.557-7.707c-2.1-3.457-3.117-7.763-3.117-12.92a23.273,23.273,0,0,1,3.117-11.957,23.532,23.532,0,0,1,9.01-8.783,28.986,28.986,0,0,1,14.337-3.287,10.119,10.119,0,0,1,1.19.057c.51.057,1.077.057,1.757.113V51.917c0-.4.17-.623.567-.623h11.5a.508.508,0,0,1,.567.4v54.06c0,1.02.057,2.153.113,3.4.113,1.19.17,2.323.227,3.287a.92.92,0,0,1-.567.907,43.277,43.277,0,0,1-9.237,2.72A49.985,49.985,0,0,1,154.155,116.857Zm5.553-11.333V80.59a14.5,14.5,0,0,0-1.53-.283c-.623-.057-1.247-.113-1.87-.113a13.969,13.969,0,0,0-6.4,1.473,12.7,12.7,0,0,0-4.817,4.193,12.561,12.561,0,0,0-1.87,7.2,15.791,15.791,0,0,0,.963,5.837,11.075,11.075,0,0,0,2.55,4.023,9.79,9.79,0,0,0,3.853,2.267,14.833,14.833,0,0,0,4.7.737c.85,0,1.643-.057,2.38-.113A4.956,4.956,0,0,0,159.708,105.523Z" transform="translate(-76.273 -51.284)" fill="#ff61f6"/></g></svg>