<svg xmlns="http://www.w3.org/2000/svg" width="136" height="123.07" viewBox="0 0 136 123.07"><path d="M29.673,4.052,68,0l38.327,4.052L136,43.885,68,123.07,0,43.885Z" fill="#fdb300"/><g transform="translate(0 43.885)"><path d="M27.543,0,68,79.185,0,0Z" fill="#ea6c00"/><path d="M27.543,79.185,68,0,0,79.185Z" transform="translate(136 79.185) rotate(180)" fill="#ea6c00"/><path d="M79.634,0h80.913L120.091,79.185Z" transform="translate(-52.091)" fill="#fdad00"/></g><path d="M120.091,0,81.763,4.052,79.634,43.885Z" transform="translate(-52.091)" fill="#fdd231"/><path d="M40.457,43.885,2.129,39.833,0,0Z" transform="translate(108.457 43.885) rotate(180)" fill="#fdd231"/><path d="M0,0,29.673,39.833,27.543,0Z" transform="translate(136 43.885) rotate(180)" fill="#fdad00"/><path d="M0,51.548,29.673,11.715,27.543,51.548Z" transform="translate(0 -7.663)" fill="#fdad00"/><path d="M120.091,0,79.634,43.885h80.913Z" transform="translate(-52.091)" fill="#feeeb7"/></svg>