<svg xmlns="http://www.w3.org/2000/svg" width="136" height="83.871" viewBox="0 0 136 83.871"><g transform="translate(-40.5 -226.318)"><path d="M301.667,226.346c-23.926.781-31.037,18.334-32.667,27.844,2.123-3.525,8.815-11.259,18.667-11.259,11.481,0,20.222,13.161,25.556,17.269a39.558,39.558,0,0,0,36.593,6.238c13.63-4.26,19.951-19.121,21.333-26.17-6.593,9.205-16.593,14.734-28.963,8.216C333.667,244,327.3,225.509,301.667,226.346Z" transform="translate(-194.648 0)" fill="#07b6d5"/><path d="M73.167,500.846c-23.926.781-31.037,18.334-32.667,27.844,2.123-3.525,8.815-11.259,18.667-11.259,11.481,0,20.222,13.161,25.556,17.269a39.558,39.558,0,0,0,36.593,6.238c13.63-4.26,19.951-19.121,21.333-26.17-6.593,9.205-16.593,14.734-28.963,8.216C105.167,518.5,98.8,500.009,73.167,500.846Z" transform="translate(0 -232.734)" fill="#07b6d5"/></g></svg>